<mxfile host="app.diagrams.net" modified="2023-09-05T01:56:20.349Z" agent="Mozilla/5.0 (Windows NT 10.0; Win64; x64) AppleWebKit/537.36 (KHTML, like Gecko) Chrome/116.0.0.0 Safari/537.36" etag="i66DBC5o783WD34lnPAM" version="21.7.2" type="github" pages="6">
  <diagram id="ZfR-11JfFFlny7avc42O" name="AWS Cloud">
    <mxGraphModel dx="936" dy="522" grid="1" gridSize="10" guides="1" tooltips="1" connect="1" arrows="1" fold="1" page="1" pageScale="1" pageWidth="850" pageHeight="1100" math="0" shadow="0">
      <root>
        <mxCell id="0" />
        <mxCell id="1" parent="0" />
        <mxCell id="-T61vYKXW_mawetWw-yA-1" value="Region" style="points=[[0,0],[0.25,0],[0.5,0],[0.75,0],[1,0],[1,0.25],[1,0.5],[1,0.75],[1,1],[0.75,1],[0.5,1],[0.25,1],[0,1],[0,0.75],[0,0.5],[0,0.25]];outlineConnect=0;gradientColor=none;html=1;whiteSpace=wrap;fontSize=12;fontStyle=0;container=1;pointerEvents=0;collapsible=0;recursiveResize=0;shape=mxgraph.aws4.group;grIcon=mxgraph.aws4.group_region;strokeColor=#147EBA;fillColor=none;verticalAlign=top;align=left;spacingLeft=30;fontColor=#147EBA;dashed=1;" vertex="1" parent="1">
          <mxGeometry x="250" y="180" width="760" height="630" as="geometry" />
        </mxCell>
        <mxCell id="-T61vYKXW_mawetWw-yA-2" value="&lt;font style=&quot;font-size: 8px;&quot;&gt;Peering Connection&lt;/font&gt;" style="edgeLabel;resizable=0;html=1;align=left;verticalAlign=bottom;" connectable="0" vertex="1" parent="-T61vYKXW_mawetWw-yA-1">
          <mxGeometry x="-40" y="510" as="geometry" />
        </mxCell>
        <mxCell id="-T61vYKXW_mawetWw-yA-3" value="" style="sketch=0;outlineConnect=0;fontColor=#232F3E;gradientColor=none;fillColor=#4D27AA;strokeColor=none;dashed=0;verticalLabelPosition=bottom;verticalAlign=top;align=center;html=1;fontSize=12;fontStyle=0;aspect=fixed;pointerEvents=1;shape=mxgraph.aws4.vpn_gateway;" vertex="1" parent="-T61vYKXW_mawetWw-yA-1">
          <mxGeometry x="40" y="592" width="28" height="28" as="geometry" />
        </mxCell>
        <mxCell id="-T61vYKXW_mawetWw-yA-4" value="&lt;font style=&quot;font-size: 8px;&quot;&gt;VP Gateway&lt;/font&gt;" style="edgeLabel;resizable=0;html=1;align=left;verticalAlign=bottom;" connectable="0" vertex="1" parent="-T61vYKXW_mawetWw-yA-1">
          <mxGeometry x="10" y="630" as="geometry" />
        </mxCell>
        <mxCell id="-T61vYKXW_mawetWw-yA-5" value="VPC" style="points=[[0,0],[0.25,0],[0.5,0],[0.75,0],[1,0],[1,0.25],[1,0.5],[1,0.75],[1,1],[0.75,1],[0.5,1],[0.25,1],[0,1],[0,0.75],[0,0.5],[0,0.25]];outlineConnect=0;gradientColor=none;html=1;whiteSpace=wrap;fontSize=12;fontStyle=0;container=1;pointerEvents=0;collapsible=0;recursiveResize=0;shape=mxgraph.aws4.group;grIcon=mxgraph.aws4.group_vpc;strokeColor=#248814;fillColor=none;verticalAlign=top;align=left;spacingLeft=30;fontColor=#AAB7B8;dashed=0;" vertex="1" parent="1">
          <mxGeometry x="290" y="220" width="718" height="570" as="geometry" />
        </mxCell>
        <mxCell id="-T61vYKXW_mawetWw-yA-6" value="" style="sketch=0;outlineConnect=0;fontColor=#232F3E;gradientColor=none;fillColor=#4D27AA;strokeColor=none;dashed=0;verticalLabelPosition=bottom;verticalAlign=top;align=center;html=1;fontSize=12;fontStyle=0;aspect=fixed;pointerEvents=1;shape=mxgraph.aws4.internet_gateway;" vertex="1" parent="-T61vYKXW_mawetWw-yA-5">
          <mxGeometry x="321" y="-20" width="38" height="38" as="geometry" />
        </mxCell>
        <mxCell id="-T61vYKXW_mawetWw-yA-7" value="Availability Zone" style="fillColor=none;strokeColor=#147EBA;dashed=1;verticalAlign=top;fontStyle=0;fontColor=#147EBA;whiteSpace=wrap;html=1;" vertex="1" parent="-T61vYKXW_mawetWw-yA-5">
          <mxGeometry x="40" y="80" width="240" height="400" as="geometry" />
        </mxCell>
        <mxCell id="-T61vYKXW_mawetWw-yA-8" value="Availability Zone" style="fillColor=none;strokeColor=#147EBA;dashed=1;verticalAlign=top;fontStyle=0;fontColor=#147EBA;whiteSpace=wrap;html=1;" vertex="1" parent="-T61vYKXW_mawetWw-yA-5">
          <mxGeometry x="400" y="80" width="240" height="400" as="geometry" />
        </mxCell>
        <mxCell id="-T61vYKXW_mawetWw-yA-9" value="Public subnet" style="points=[[0,0],[0.25,0],[0.5,0],[0.75,0],[1,0],[1,0.25],[1,0.5],[1,0.75],[1,1],[0.75,1],[0.5,1],[0.25,1],[0,1],[0,0.75],[0,0.5],[0,0.25]];outlineConnect=0;gradientColor=none;html=1;whiteSpace=wrap;fontSize=12;fontStyle=0;container=1;pointerEvents=0;collapsible=0;recursiveResize=0;shape=mxgraph.aws4.group;grIcon=mxgraph.aws4.group_security_group;grStroke=0;strokeColor=#248814;fillColor=#E9F3E6;verticalAlign=top;align=left;spacingLeft=30;fontColor=#248814;dashed=0;" vertex="1" parent="-T61vYKXW_mawetWw-yA-5">
          <mxGeometry x="100" y="120" width="110" height="100" as="geometry" />
        </mxCell>
        <mxCell id="-T61vYKXW_mawetWw-yA-10" value="" style="sketch=0;outlineConnect=0;fontColor=#232F3E;gradientColor=none;fillColor=#4D27AA;strokeColor=none;dashed=0;verticalLabelPosition=bottom;verticalAlign=top;align=center;html=1;fontSize=12;fontStyle=0;aspect=fixed;pointerEvents=1;shape=mxgraph.aws4.nat_gateway;" vertex="1" parent="-T61vYKXW_mawetWw-yA-9">
          <mxGeometry x="70" y="60" width="28" height="28" as="geometry" />
        </mxCell>
        <mxCell id="-T61vYKXW_mawetWw-yA-11" value="" style="sketch=0;aspect=fixed;pointerEvents=1;shadow=0;dashed=0;html=1;strokeColor=none;labelPosition=center;verticalLabelPosition=bottom;verticalAlign=top;align=center;fillColor=#00188D;shape=mxgraph.mscae.enterprise.application_server" vertex="1" parent="-T61vYKXW_mawetWw-yA-9">
          <mxGeometry x="40" y="34" width="17.2" height="20" as="geometry" />
        </mxCell>
        <mxCell id="-T61vYKXW_mawetWw-yA-12" value="" style="sketch=0;aspect=fixed;html=1;points=[];align=center;image;fontSize=12;image=img/lib/mscae/Network_Security_Groups_Classic.svg;" vertex="1" parent="-T61vYKXW_mawetWw-yA-9">
          <mxGeometry x="25.19999999999999" y="54" width="14.8" height="20" as="geometry" />
        </mxCell>
        <mxCell id="-T61vYKXW_mawetWw-yA-13" value="&lt;font style=&quot;font-size: 8px;&quot;&gt;SG&lt;/font&gt;" style="edgeLabel;resizable=0;html=1;align=left;verticalAlign=bottom;" connectable="0" vertex="1" parent="-T61vYKXW_mawetWw-yA-9">
          <mxGeometry x="32.595957954186105" y="74.00146074060603" as="geometry" />
        </mxCell>
        <mxCell id="-T61vYKXW_mawetWw-yA-14" value="" style="aspect=fixed;perimeter=ellipsePerimeter;html=1;align=center;shadow=0;dashed=0;spacingTop=3;image;image=img/lib/active_directory/web_server.svg;" vertex="1" parent="-T61vYKXW_mawetWw-yA-9">
          <mxGeometry x="23.99999999999999" y="68" width="16" height="20" as="geometry" />
        </mxCell>
        <mxCell id="-T61vYKXW_mawetWw-yA-15" value="&lt;font style=&quot;font-size: 8px;&quot;&gt;Web Server&lt;/font&gt;" style="edgeLabel;resizable=0;html=1;align=left;verticalAlign=bottom;" connectable="0" vertex="1" parent="-T61vYKXW_mawetWw-yA-9">
          <mxGeometry x="24" y="100" as="geometry" />
        </mxCell>
        <mxCell id="-T61vYKXW_mawetWw-yA-16" value="Public subnet" style="points=[[0,0],[0.25,0],[0.5,0],[0.75,0],[1,0],[1,0.25],[1,0.5],[1,0.75],[1,1],[0.75,1],[0.5,1],[0.25,1],[0,1],[0,0.75],[0,0.5],[0,0.25]];outlineConnect=0;gradientColor=none;html=1;whiteSpace=wrap;fontSize=12;fontStyle=0;container=1;pointerEvents=0;collapsible=0;recursiveResize=0;shape=mxgraph.aws4.group;grIcon=mxgraph.aws4.group_security_group;grStroke=0;strokeColor=#248814;fillColor=#E9F3E6;verticalAlign=top;align=left;spacingLeft=30;fontColor=#248814;dashed=0;" vertex="1" parent="-T61vYKXW_mawetWw-yA-5">
          <mxGeometry x="460" y="120" width="110" height="100" as="geometry" />
        </mxCell>
        <mxCell id="-T61vYKXW_mawetWw-yA-17" value="" style="sketch=0;outlineConnect=0;fontColor=#232F3E;gradientColor=none;fillColor=#4D27AA;strokeColor=none;dashed=0;verticalLabelPosition=bottom;verticalAlign=top;align=center;html=1;fontSize=12;fontStyle=0;aspect=fixed;pointerEvents=1;shape=mxgraph.aws4.nat_gateway;" vertex="1" parent="-T61vYKXW_mawetWw-yA-16">
          <mxGeometry x="60" y="60" width="28" height="28" as="geometry" />
        </mxCell>
        <mxCell id="-T61vYKXW_mawetWw-yA-18" value="" style="sketch=0;aspect=fixed;pointerEvents=1;shadow=0;dashed=0;html=1;strokeColor=none;labelPosition=center;verticalLabelPosition=bottom;verticalAlign=top;align=center;fillColor=#00188D;shape=mxgraph.mscae.enterprise.application_server" vertex="1" parent="-T61vYKXW_mawetWw-yA-16">
          <mxGeometry x="29.799999999999955" y="36" width="17.2" height="20" as="geometry" />
        </mxCell>
        <mxCell id="-T61vYKXW_mawetWw-yA-19" value="" style="sketch=0;aspect=fixed;html=1;points=[];align=center;image;fontSize=12;image=img/lib/mscae/Network_Security_Groups_Classic.svg;" vertex="1" parent="-T61vYKXW_mawetWw-yA-16">
          <mxGeometry x="15" y="50" width="14.8" height="20" as="geometry" />
        </mxCell>
        <mxCell id="-T61vYKXW_mawetWw-yA-20" value="&lt;font style=&quot;font-size: 8px;&quot;&gt;SG&lt;/font&gt;" style="edgeLabel;resizable=0;html=1;align=left;verticalAlign=bottom;" connectable="0" vertex="1" parent="-T61vYKXW_mawetWw-yA-16">
          <mxGeometry x="9.99595795418611" y="56.001460740606035" as="geometry" />
        </mxCell>
        <mxCell id="-T61vYKXW_mawetWw-yA-21" value="" style="aspect=fixed;perimeter=ellipsePerimeter;html=1;align=center;shadow=0;dashed=0;spacingTop=3;image;image=img/lib/active_directory/web_server.svg;" vertex="1" parent="-T61vYKXW_mawetWw-yA-16">
          <mxGeometry x="10" y="68" width="16" height="20" as="geometry" />
        </mxCell>
        <mxCell id="-T61vYKXW_mawetWw-yA-22" value="&lt;font style=&quot;font-size: 8px;&quot;&gt;Web Server&lt;/font&gt;" style="edgeLabel;resizable=0;html=1;align=left;verticalAlign=bottom;" connectable="0" vertex="1" parent="-T61vYKXW_mawetWw-yA-16">
          <mxGeometry y="100" as="geometry" />
        </mxCell>
        <mxCell id="-T61vYKXW_mawetWw-yA-23" value="Private subnet" style="points=[[0,0],[0.25,0],[0.5,0],[0.75,0],[1,0],[1,0.25],[1,0.5],[1,0.75],[1,1],[0.75,1],[0.5,1],[0.25,1],[0,1],[0,0.75],[0,0.5],[0,0.25]];outlineConnect=0;gradientColor=none;html=1;whiteSpace=wrap;fontSize=12;fontStyle=0;container=1;pointerEvents=0;collapsible=0;recursiveResize=0;shape=mxgraph.aws4.group;grIcon=mxgraph.aws4.group_security_group;grStroke=0;strokeColor=#147EBA;fillColor=#E6F2F8;verticalAlign=top;align=left;spacingLeft=30;fontColor=#147EBA;dashed=0;" vertex="1" parent="-T61vYKXW_mawetWw-yA-5">
          <mxGeometry x="100" y="240" width="110" height="100" as="geometry" />
        </mxCell>
        <mxCell id="-T61vYKXW_mawetWw-yA-24" value="" style="sketch=0;outlineConnect=0;fontColor=#232F3E;gradientColor=none;fillColor=#2E27AD;strokeColor=none;dashed=0;verticalLabelPosition=bottom;verticalAlign=top;align=center;html=1;fontSize=12;fontStyle=0;aspect=fixed;pointerEvents=1;shape=mxgraph.aws4.rds_sql_server_instance;" vertex="1" parent="-T61vYKXW_mawetWw-yA-23">
          <mxGeometry x="40" y="60" width="18" height="18" as="geometry" />
        </mxCell>
        <mxCell id="-T61vYKXW_mawetWw-yA-25" value="" style="sketch=0;aspect=fixed;html=1;points=[];align=center;image;fontSize=12;image=img/lib/mscae/Network_Security_Groups_Classic.svg;" vertex="1" parent="-T61vYKXW_mawetWw-yA-23">
          <mxGeometry x="47.6" y="41" width="14.8" height="20" as="geometry" />
        </mxCell>
        <mxCell id="-T61vYKXW_mawetWw-yA-26" value="Private subnet" style="points=[[0,0],[0.25,0],[0.5,0],[0.75,0],[1,0],[1,0.25],[1,0.5],[1,0.75],[1,1],[0.75,1],[0.5,1],[0.25,1],[0,1],[0,0.75],[0,0.5],[0,0.25]];outlineConnect=0;gradientColor=none;html=1;whiteSpace=wrap;fontSize=12;fontStyle=0;container=1;pointerEvents=0;collapsible=0;recursiveResize=0;shape=mxgraph.aws4.group;grIcon=mxgraph.aws4.group_security_group;grStroke=0;strokeColor=#147EBA;fillColor=#E6F2F8;verticalAlign=top;align=left;spacingLeft=30;fontColor=#147EBA;dashed=0;" vertex="1" parent="-T61vYKXW_mawetWw-yA-5">
          <mxGeometry x="100" y="360" width="110" height="100" as="geometry" />
        </mxCell>
        <mxCell id="-T61vYKXW_mawetWw-yA-27" value="" style="outlineConnect=0;dashed=0;verticalLabelPosition=bottom;verticalAlign=top;align=center;html=1;shape=mxgraph.aws3.dynamo_db;fillColor=#2E73B8;gradientColor=none;" vertex="1" parent="-T61vYKXW_mawetWw-yA-26">
          <mxGeometry x="40" y="58" width="20" height="21" as="geometry" />
        </mxCell>
        <mxCell id="-T61vYKXW_mawetWw-yA-28" value="" style="sketch=0;aspect=fixed;html=1;points=[];align=center;image;fontSize=12;image=img/lib/mscae/Network_Security_Groups_Classic.svg;" vertex="1" parent="-T61vYKXW_mawetWw-yA-26">
          <mxGeometry x="47.599999999999994" y="41" width="14.8" height="20" as="geometry" />
        </mxCell>
        <mxCell id="-T61vYKXW_mawetWw-yA-29" value="Private subnet" style="points=[[0,0],[0.25,0],[0.5,0],[0.75,0],[1,0],[1,0.25],[1,0.5],[1,0.75],[1,1],[0.75,1],[0.5,1],[0.25,1],[0,1],[0,0.75],[0,0.5],[0,0.25]];outlineConnect=0;gradientColor=none;html=1;whiteSpace=wrap;fontSize=12;fontStyle=0;container=1;pointerEvents=0;collapsible=0;recursiveResize=0;shape=mxgraph.aws4.group;grIcon=mxgraph.aws4.group_security_group;grStroke=0;strokeColor=#147EBA;fillColor=#E6F2F8;verticalAlign=top;align=left;spacingLeft=30;fontColor=#147EBA;dashed=0;" vertex="1" parent="-T61vYKXW_mawetWw-yA-5">
          <mxGeometry x="460" y="240" width="110" height="100" as="geometry" />
        </mxCell>
        <mxCell id="-T61vYKXW_mawetWw-yA-30" value="" style="sketch=0;outlineConnect=0;fontColor=#232F3E;gradientColor=none;fillColor=#2E27AD;strokeColor=none;dashed=0;verticalLabelPosition=bottom;verticalAlign=top;align=center;html=1;fontSize=12;fontStyle=0;aspect=fixed;pointerEvents=1;shape=mxgraph.aws4.rds_sql_server_instance;" vertex="1" parent="-T61vYKXW_mawetWw-yA-29">
          <mxGeometry x="30" y="61" width="17" height="17" as="geometry" />
        </mxCell>
        <mxCell id="-T61vYKXW_mawetWw-yA-31" value="" style="sketch=0;aspect=fixed;html=1;points=[];align=center;image;fontSize=12;image=img/lib/mscae/Network_Security_Groups_Classic.svg;" vertex="1" parent="-T61vYKXW_mawetWw-yA-29">
          <mxGeometry x="47" y="41" width="14.8" height="20" as="geometry" />
        </mxCell>
        <mxCell id="-T61vYKXW_mawetWw-yA-32" value="Private subnet" style="points=[[0,0],[0.25,0],[0.5,0],[0.75,0],[1,0],[1,0.25],[1,0.5],[1,0.75],[1,1],[0.75,1],[0.5,1],[0.25,1],[0,1],[0,0.75],[0,0.5],[0,0.25]];outlineConnect=0;gradientColor=none;html=1;whiteSpace=wrap;fontSize=12;fontStyle=0;container=1;pointerEvents=0;collapsible=0;recursiveResize=0;shape=mxgraph.aws4.group;grIcon=mxgraph.aws4.group_security_group;grStroke=0;strokeColor=#147EBA;fillColor=#E6F2F8;verticalAlign=top;align=left;spacingLeft=30;fontColor=#147EBA;dashed=0;" vertex="1" parent="-T61vYKXW_mawetWw-yA-5">
          <mxGeometry x="460" y="360" width="110" height="100" as="geometry" />
        </mxCell>
        <mxCell id="-T61vYKXW_mawetWw-yA-33" value="" style="outlineConnect=0;dashed=0;verticalLabelPosition=bottom;verticalAlign=top;align=center;html=1;shape=mxgraph.aws3.dynamo_db;fillColor=#2E73B8;gradientColor=none;" vertex="1" parent="-T61vYKXW_mawetWw-yA-32">
          <mxGeometry x="30" y="58" width="20" height="21" as="geometry" />
        </mxCell>
        <mxCell id="-T61vYKXW_mawetWw-yA-34" value="" style="sketch=0;aspect=fixed;html=1;points=[];align=center;image;fontSize=12;image=img/lib/mscae/Network_Security_Groups_Classic.svg;" vertex="1" parent="-T61vYKXW_mawetWw-yA-32">
          <mxGeometry x="47.6" y="41" width="14.8" height="20" as="geometry" />
        </mxCell>
        <mxCell id="-T61vYKXW_mawetWw-yA-35" value="" style="sketch=0;outlineConnect=0;fontColor=#232F3E;gradientColor=none;fillColor=#4D27AA;strokeColor=none;dashed=0;verticalLabelPosition=bottom;verticalAlign=top;align=center;html=1;fontSize=12;fontStyle=0;aspect=fixed;pointerEvents=1;shape=mxgraph.aws4.network_access_control_list;" vertex="1" parent="-T61vYKXW_mawetWw-yA-5">
          <mxGeometry x="442" y="156" width="18" height="18" as="geometry" />
        </mxCell>
        <mxCell id="-T61vYKXW_mawetWw-yA-36" value="" style="sketch=0;outlineConnect=0;fontColor=#232F3E;gradientColor=none;fillColor=#4D27AA;strokeColor=none;dashed=0;verticalLabelPosition=bottom;verticalAlign=top;align=center;html=1;fontSize=12;fontStyle=0;aspect=fixed;pointerEvents=1;shape=mxgraph.aws4.network_access_control_list;" vertex="1" parent="-T61vYKXW_mawetWw-yA-5">
          <mxGeometry x="442" y="271" width="18" height="18" as="geometry" />
        </mxCell>
        <mxCell id="-T61vYKXW_mawetWw-yA-37" value="" style="sketch=0;outlineConnect=0;fontColor=#232F3E;gradientColor=none;fillColor=#4D27AA;strokeColor=none;dashed=0;verticalLabelPosition=bottom;verticalAlign=top;align=center;html=1;fontSize=12;fontStyle=0;aspect=fixed;pointerEvents=1;shape=mxgraph.aws4.network_access_control_list;" vertex="1" parent="-T61vYKXW_mawetWw-yA-5">
          <mxGeometry x="440" y="400" width="18" height="18" as="geometry" />
        </mxCell>
        <mxCell id="-T61vYKXW_mawetWw-yA-38" value="" style="sketch=0;outlineConnect=0;fontColor=#232F3E;gradientColor=none;fillColor=#4D27AA;strokeColor=none;dashed=0;verticalLabelPosition=bottom;verticalAlign=top;align=center;html=1;fontSize=12;fontStyle=0;aspect=fixed;pointerEvents=1;shape=mxgraph.aws4.network_access_control_list;" vertex="1" parent="-T61vYKXW_mawetWw-yA-5">
          <mxGeometry x="210" y="289" width="18" height="18" as="geometry" />
        </mxCell>
        <mxCell id="-T61vYKXW_mawetWw-yA-39" value="" style="sketch=0;outlineConnect=0;fontColor=#232F3E;gradientColor=none;fillColor=#4D27AA;strokeColor=none;dashed=0;verticalLabelPosition=bottom;verticalAlign=top;align=center;html=1;fontSize=12;fontStyle=0;aspect=fixed;pointerEvents=1;shape=mxgraph.aws4.network_access_control_list;" vertex="1" parent="-T61vYKXW_mawetWw-yA-5">
          <mxGeometry x="212" y="401" width="18" height="18" as="geometry" />
        </mxCell>
        <mxCell id="-T61vYKXW_mawetWw-yA-40" value="" style="sketch=0;outlineConnect=0;fontColor=#232F3E;gradientColor=none;fillColor=#4D27AA;strokeColor=none;dashed=0;verticalLabelPosition=bottom;verticalAlign=top;align=center;html=1;fontSize=12;fontStyle=0;aspect=fixed;pointerEvents=1;shape=mxgraph.aws4.network_access_control_list;" vertex="1" parent="-T61vYKXW_mawetWw-yA-5">
          <mxGeometry x="212" y="156" width="18" height="18" as="geometry" />
        </mxCell>
        <mxCell id="-T61vYKXW_mawetWw-yA-41" value="&lt;font style=&quot;font-size: 8px;&quot;&gt;Route table&lt;/font&gt;" style="sketch=0;outlineConnect=0;fontColor=#232F3E;gradientColor=none;strokeColor=#232F3E;fillColor=#ffffff;dashed=0;verticalLabelPosition=bottom;verticalAlign=top;align=center;html=1;fontSize=12;fontStyle=0;aspect=fixed;shape=mxgraph.aws4.resourceIcon;resIcon=mxgraph.aws4.route_table;" vertex="1" parent="-T61vYKXW_mawetWw-yA-5">
          <mxGeometry x="206.5" y="110" width="25" height="25" as="geometry" />
        </mxCell>
        <mxCell id="-T61vYKXW_mawetWw-yA-42" value="" style="sketch=0;outlineConnect=0;fontColor=#232F3E;gradientColor=none;fillColor=#4D27AA;strokeColor=none;dashed=0;verticalLabelPosition=bottom;verticalAlign=top;align=center;html=1;fontSize=12;fontStyle=0;aspect=fixed;pointerEvents=1;shape=mxgraph.aws4.route_table;" vertex="1" parent="-T61vYKXW_mawetWw-yA-5">
          <mxGeometry x="201.31" y="350" width="26.69" height="26" as="geometry" />
        </mxCell>
        <mxCell id="-T61vYKXW_mawetWw-yA-43" value="" style="sketch=0;outlineConnect=0;fontColor=#232F3E;gradientColor=none;fillColor=#4D27AA;strokeColor=none;dashed=0;verticalLabelPosition=bottom;verticalAlign=top;align=center;html=1;fontSize=12;fontStyle=0;aspect=fixed;pointerEvents=1;shape=mxgraph.aws4.route_table;" vertex="1" parent="-T61vYKXW_mawetWw-yA-5">
          <mxGeometry x="203.31" y="230" width="26.69" height="26" as="geometry" />
        </mxCell>
        <mxCell id="-T61vYKXW_mawetWw-yA-44" value="" style="sketch=0;outlineConnect=0;fontColor=#232F3E;gradientColor=none;fillColor=#4D27AA;strokeColor=none;dashed=0;verticalLabelPosition=bottom;verticalAlign=top;align=center;html=1;fontSize=12;fontStyle=0;aspect=fixed;pointerEvents=1;shape=mxgraph.aws4.route_table;" vertex="1" parent="-T61vYKXW_mawetWw-yA-5">
          <mxGeometry x="431.31" y="230" width="26.69" height="26" as="geometry" />
        </mxCell>
        <mxCell id="-T61vYKXW_mawetWw-yA-45" value="" style="sketch=0;outlineConnect=0;fontColor=#232F3E;gradientColor=none;fillColor=#4D27AA;strokeColor=none;dashed=0;verticalLabelPosition=bottom;verticalAlign=top;align=center;html=1;fontSize=12;fontStyle=0;aspect=fixed;pointerEvents=1;shape=mxgraph.aws4.route_table;" vertex="1" parent="-T61vYKXW_mawetWw-yA-5">
          <mxGeometry x="431.31" y="350" width="26.69" height="26" as="geometry" />
        </mxCell>
        <mxCell id="-T61vYKXW_mawetWw-yA-46" value="" style="sketch=0;outlineConnect=0;fontColor=#232F3E;gradientColor=none;fillColor=#4D27AA;strokeColor=none;dashed=0;verticalLabelPosition=bottom;verticalAlign=top;align=center;html=1;fontSize=12;fontStyle=0;aspect=fixed;pointerEvents=1;shape=mxgraph.aws4.customer_gateway;" vertex="1" parent="-T61vYKXW_mawetWw-yA-5">
          <mxGeometry x="325" y="110" width="30" height="30" as="geometry" />
        </mxCell>
        <mxCell id="-T61vYKXW_mawetWw-yA-47" value="&lt;font style=&quot;font-size: 8px;&quot;&gt;Route table&lt;/font&gt;" style="sketch=0;outlineConnect=0;fontColor=#232F3E;gradientColor=none;strokeColor=#232F3E;fillColor=#ffffff;dashed=0;verticalLabelPosition=bottom;verticalAlign=top;align=center;html=1;fontSize=12;fontStyle=0;aspect=fixed;shape=mxgraph.aws4.resourceIcon;resIcon=mxgraph.aws4.route_table;" vertex="1" parent="-T61vYKXW_mawetWw-yA-5">
          <mxGeometry x="431.31" y="110" width="25" height="25" as="geometry" />
        </mxCell>
        <mxCell id="-T61vYKXW_mawetWw-yA-48" value="" style="endArrow=classic;html=1;rounded=0;" edge="1" parent="-T61vYKXW_mawetWw-yA-5" source="-T61vYKXW_mawetWw-yA-47" target="-T61vYKXW_mawetWw-yA-46">
          <mxGeometry width="50" height="50" relative="1" as="geometry">
            <mxPoint x="320" y="260" as="sourcePoint" />
            <mxPoint x="370" y="210" as="targetPoint" />
          </mxGeometry>
        </mxCell>
        <mxCell id="-T61vYKXW_mawetWw-yA-49" value="" style="endArrow=classic;html=1;rounded=0;" edge="1" parent="-T61vYKXW_mawetWw-yA-5" source="-T61vYKXW_mawetWw-yA-41" target="-T61vYKXW_mawetWw-yA-46">
          <mxGeometry width="50" height="50" relative="1" as="geometry">
            <mxPoint x="441" y="133" as="sourcePoint" />
            <mxPoint x="365" y="135" as="targetPoint" />
            <Array as="points" />
          </mxGeometry>
        </mxCell>
        <mxCell id="-T61vYKXW_mawetWw-yA-50" value="" style="endArrow=classic;html=1;rounded=0;" edge="1" parent="-T61vYKXW_mawetWw-yA-5" source="-T61vYKXW_mawetWw-yA-17">
          <mxGeometry relative="1" as="geometry">
            <mxPoint x="260" y="-20" as="sourcePoint" />
            <mxPoint x="370" y="30" as="targetPoint" />
          </mxGeometry>
        </mxCell>
        <mxCell id="-T61vYKXW_mawetWw-yA-51" value="&lt;font style=&quot;font-size: 8px;&quot;&gt;NATGW&lt;/font&gt;" style="edgeLabel;resizable=0;html=1;align=left;verticalAlign=bottom;" connectable="0" vertex="1" parent="-T61vYKXW_mawetWw-yA-50">
          <mxGeometry x="-1" relative="1" as="geometry" />
        </mxCell>
        <mxCell id="-T61vYKXW_mawetWw-yA-52" value="IGW" style="edgeLabel;resizable=0;html=1;align=right;verticalAlign=bottom;" connectable="0" vertex="1" parent="-T61vYKXW_mawetWw-yA-50">
          <mxGeometry x="1" relative="1" as="geometry" />
        </mxCell>
        <mxCell id="-T61vYKXW_mawetWw-yA-53" value="" style="endArrow=classic;html=1;rounded=0;" edge="1" parent="-T61vYKXW_mawetWw-yA-5" source="-T61vYKXW_mawetWw-yA-10" target="-T61vYKXW_mawetWw-yA-6">
          <mxGeometry relative="1" as="geometry">
            <mxPoint x="260" y="-20" as="sourcePoint" />
            <mxPoint x="420" y="-20" as="targetPoint" />
          </mxGeometry>
        </mxCell>
        <mxCell id="-T61vYKXW_mawetWw-yA-54" value="&lt;font style=&quot;font-size: 8px;&quot;&gt;NATGW&lt;/font&gt;" style="edgeLabel;resizable=0;html=1;align=left;verticalAlign=bottom;" connectable="0" vertex="1" parent="-T61vYKXW_mawetWw-yA-53">
          <mxGeometry x="-1" relative="1" as="geometry">
            <mxPoint x="3" y="14" as="offset" />
          </mxGeometry>
        </mxCell>
        <mxCell id="-T61vYKXW_mawetWw-yA-55" value="" style="endArrow=classic;html=1;rounded=0;" edge="1" parent="-T61vYKXW_mawetWw-yA-5" source="-T61vYKXW_mawetWw-yA-30" target="-T61vYKXW_mawetWw-yA-17">
          <mxGeometry relative="1" as="geometry">
            <mxPoint x="260" y="230" as="sourcePoint" />
            <mxPoint x="420" y="230" as="targetPoint" />
          </mxGeometry>
        </mxCell>
        <mxCell id="-T61vYKXW_mawetWw-yA-56" value="&lt;font style=&quot;font-size: 8px;&quot;&gt;App Server&lt;/font&gt;" style="edgeLabel;resizable=0;html=1;align=left;verticalAlign=bottom;" connectable="0" vertex="1" parent="-T61vYKXW_mawetWw-yA-55">
          <mxGeometry x="-1" relative="1" as="geometry">
            <mxPoint x="6" y="17" as="offset" />
          </mxGeometry>
        </mxCell>
        <mxCell id="-T61vYKXW_mawetWw-yA-57" value="" style="endArrow=classic;html=1;rounded=0;" edge="1" parent="-T61vYKXW_mawetWw-yA-5">
          <mxGeometry relative="1" as="geometry">
            <mxPoint x="150" y="301.5" as="sourcePoint" />
            <mxPoint x="179" y="208.5" as="targetPoint" />
          </mxGeometry>
        </mxCell>
        <mxCell id="-T61vYKXW_mawetWw-yA-58" value="&lt;font style=&quot;font-size: 8px;&quot;&gt;App Server&lt;/font&gt;" style="edgeLabel;resizable=0;html=1;align=left;verticalAlign=bottom;" connectable="0" vertex="1" parent="-T61vYKXW_mawetWw-yA-57">
          <mxGeometry x="-1" relative="1" as="geometry">
            <mxPoint x="6" y="17" as="offset" />
          </mxGeometry>
        </mxCell>
        <mxCell id="-T61vYKXW_mawetWw-yA-59" value="" style="sketch=0;aspect=fixed;pointerEvents=1;shadow=0;dashed=0;html=1;strokeColor=none;labelPosition=center;verticalLabelPosition=bottom;verticalAlign=top;align=center;fillColor=#00188D;shape=mxgraph.azure.load_balancer_generic" vertex="1" parent="-T61vYKXW_mawetWw-yA-5">
          <mxGeometry x="325" y="200" width="22.2" height="30" as="geometry" />
        </mxCell>
        <mxCell id="-T61vYKXW_mawetWw-yA-60" value="&lt;font style=&quot;font-size: 8px;&quot;&gt;GW Endpoint&lt;/font&gt;" style="edgeLabel;resizable=0;html=1;align=center;verticalAlign=middle;" connectable="0" vertex="1" parent="-T61vYKXW_mawetWw-yA-5">
          <mxGeometry x="240" y="562.69" as="geometry">
            <mxPoint x="91" y="-12" as="offset" />
          </mxGeometry>
        </mxCell>
        <mxCell id="-T61vYKXW_mawetWw-yA-61" value="Router" style="edgeLabel;resizable=0;html=1;align=left;verticalAlign=bottom;" connectable="0" vertex="1" parent="-T61vYKXW_mawetWw-yA-5">
          <mxGeometry x="324.9959579541861" y="156.00146074060603" as="geometry" />
        </mxCell>
        <mxCell id="-T61vYKXW_mawetWw-yA-62" value="&lt;font style=&quot;font-size: 8px;&quot;&gt;ALB&lt;/font&gt;" style="edgeLabel;resizable=0;html=1;align=left;verticalAlign=bottom;" connectable="0" vertex="1" parent="-T61vYKXW_mawetWw-yA-5">
          <mxGeometry x="309.9959579541861" y="243.00146074060603" as="geometry" />
        </mxCell>
        <mxCell id="-T61vYKXW_mawetWw-yA-63" value="&lt;font style=&quot;font-size: 8px;&quot;&gt;DB Server&lt;/font&gt;" style="edgeLabel;resizable=0;html=1;align=left;verticalAlign=bottom;" connectable="0" vertex="1" parent="-T61vYKXW_mawetWw-yA-5">
          <mxGeometry x="499.9959579541861" y="450.00146074060603" as="geometry" />
        </mxCell>
        <mxCell id="-T61vYKXW_mawetWw-yA-64" value="&lt;font style=&quot;font-size: 8px;&quot;&gt;DB Server&lt;/font&gt;" style="edgeLabel;resizable=0;html=1;align=left;verticalAlign=bottom;" connectable="0" vertex="1" parent="-T61vYKXW_mawetWw-yA-5">
          <mxGeometry x="159.9959579541861" y="440.00146074060603" as="geometry" />
        </mxCell>
        <mxCell id="-T61vYKXW_mawetWw-yA-65" value="&lt;font style=&quot;font-size: 8px;&quot;&gt;SG&lt;/font&gt;" style="edgeLabel;resizable=0;html=1;align=left;verticalAlign=bottom;" connectable="0" vertex="1" parent="-T61vYKXW_mawetWw-yA-5">
          <mxGeometry x="519.9959579541861" y="418.00146074060603" as="geometry" />
        </mxCell>
        <mxCell id="-T61vYKXW_mawetWw-yA-66" value="&lt;font style=&quot;font-size: 8px;&quot;&gt;SG&lt;/font&gt;" style="edgeLabel;resizable=0;html=1;align=left;verticalAlign=bottom;" connectable="0" vertex="1" parent="-T61vYKXW_mawetWw-yA-5">
          <mxGeometry x="159.9959579541861" y="418.00146074060603" as="geometry" />
        </mxCell>
        <mxCell id="-T61vYKXW_mawetWw-yA-67" value="&lt;font style=&quot;font-size: 8px;&quot;&gt;SG&lt;/font&gt;" style="edgeLabel;resizable=0;html=1;align=left;verticalAlign=bottom;" connectable="0" vertex="1" parent="-T61vYKXW_mawetWw-yA-5">
          <mxGeometry x="159.9959579541861" y="307.00146074060603" as="geometry" />
        </mxCell>
        <mxCell id="-T61vYKXW_mawetWw-yA-68" value="&lt;font style=&quot;font-size: 8px;&quot;&gt;SG&lt;/font&gt;" style="edgeLabel;resizable=0;html=1;align=left;verticalAlign=bottom;" connectable="0" vertex="1" parent="-T61vYKXW_mawetWw-yA-5">
          <mxGeometry x="514.9959579541861" y="290.00146074060603" as="geometry" />
        </mxCell>
        <mxCell id="-T61vYKXW_mawetWw-yA-69" value="" style="endArrow=classic;html=1;rounded=0;entryX=0;entryY=0.25;entryDx=0;entryDy=0;exitX=1;exitY=1;exitDx=0;exitDy=0;" edge="1" parent="-T61vYKXW_mawetWw-yA-5" target="-T61vYKXW_mawetWw-yA-21">
          <mxGeometry width="50" height="50" relative="1" as="geometry">
            <mxPoint x="349.5" y="250" as="sourcePoint" />
            <mxPoint x="402.6" y="145" as="targetPoint" />
          </mxGeometry>
        </mxCell>
        <mxCell id="-T61vYKXW_mawetWw-yA-70" value="" style="endArrow=classic;html=1;rounded=0;entryX=0.392;entryY=0.975;entryDx=0;entryDy=0;entryPerimeter=0;" edge="1" parent="-T61vYKXW_mawetWw-yA-5" target="-T61vYKXW_mawetWw-yA-9">
          <mxGeometry width="50" height="50" relative="1" as="geometry">
            <mxPoint x="332.2479687499999" y="249" as="sourcePoint" />
            <mxPoint x="360" y="260" as="targetPoint" />
            <Array as="points" />
          </mxGeometry>
        </mxCell>
        <mxCell id="-T61vYKXW_mawetWw-yA-71" value="" style="sketch=0;outlineConnect=0;fontColor=#232F3E;gradientColor=none;fillColor=#3F8624;strokeColor=none;dashed=0;verticalLabelPosition=bottom;verticalAlign=top;align=center;html=1;fontSize=12;fontStyle=0;aspect=fixed;pointerEvents=1;shape=mxgraph.aws4.bucket_with_objects;" vertex="1" parent="-T61vYKXW_mawetWw-yA-5">
          <mxGeometry x="266.02" y="531.35" width="19.23" height="20" as="geometry" />
        </mxCell>
        <mxCell id="-T61vYKXW_mawetWw-yA-72" value="&lt;font style=&quot;font-size: 8px;&quot;&gt;Amazon CloudWatch&lt;/font&gt;" style="sketch=0;outlineConnect=0;fontColor=#232F3E;gradientColor=none;strokeColor=#ffffff;fillColor=#232F3E;dashed=0;verticalLabelPosition=middle;verticalAlign=bottom;align=center;html=1;whiteSpace=wrap;fontSize=10;fontStyle=1;spacing=3;shape=mxgraph.aws4.productIcon;prIcon=mxgraph.aws4.cloudwatch;" vertex="1" parent="-T61vYKXW_mawetWw-yA-5">
          <mxGeometry x="510" y="524.03" width="20" height="42.69" as="geometry" />
        </mxCell>
        <mxCell id="-T61vYKXW_mawetWw-yA-73" value="&lt;font style=&quot;font-size: 8px;&quot;&gt;S3 Bucket&lt;/font&gt;" style="edgeLabel;resizable=0;html=1;align=right;verticalAlign=bottom;" connectable="0" vertex="1" parent="-T61vYKXW_mawetWw-yA-5">
          <mxGeometry x="299.9981291553879" y="562.687410120659" as="geometry" />
        </mxCell>
        <mxCell id="-T61vYKXW_mawetWw-yA-74" value="&lt;font style=&quot;font-size: 8px;&quot;&gt;&lt;font style=&quot;font-size: 8px;&quot;&gt;Amazon &lt;/font&gt;&lt;font style=&quot;font-size: 8px;&quot;&gt;&lt;font style=&quot;font-size: 8px;&quot;&gt;SN&lt;/font&gt;S&lt;/font&gt;&lt;/font&gt;" style="sketch=0;outlineConnect=0;fontColor=#232F3E;gradientColor=none;strokeColor=#ffffff;fillColor=#232F3E;dashed=0;verticalLabelPosition=middle;verticalAlign=bottom;align=center;html=1;whiteSpace=wrap;fontSize=10;fontStyle=1;spacing=3;shape=mxgraph.aws4.productIcon;prIcon=mxgraph.aws4.sns;" vertex="1" parent="-T61vYKXW_mawetWw-yA-5">
          <mxGeometry x="550" y="520" width="20" height="42.69" as="geometry" />
        </mxCell>
        <mxCell id="-T61vYKXW_mawetWw-yA-75" value="&lt;font style=&quot;font-size: 8px;&quot;&gt;SG&lt;/font&gt;" style="edgeLabel;resizable=0;html=1;align=left;verticalAlign=bottom;" connectable="0" vertex="1" parent="-T61vYKXW_mawetWw-yA-5">
          <mxGeometry x="358.9959579541861" y="198.00146074060603" as="geometry">
            <mxPoint x="-7" as="offset" />
          </mxGeometry>
        </mxCell>
        <mxCell id="-T61vYKXW_mawetWw-yA-76" value="" style="sketch=0;aspect=fixed;html=1;points=[];align=center;image;fontSize=12;image=img/lib/mscae/Network_Security_Groups_Classic.svg;" vertex="1" parent="-T61vYKXW_mawetWw-yA-5">
          <mxGeometry x="338" y="188" width="14.8" height="20" as="geometry" />
        </mxCell>
        <mxCell id="-T61vYKXW_mawetWw-yA-77" value="" style="verticalLabelPosition=bottom;html=1;verticalAlign=top;align=center;strokeColor=none;fillColor=#00BEF2;shape=mxgraph.azure.load_balancer_generic;pointerEvents=1;" vertex="1" parent="-T61vYKXW_mawetWw-yA-5">
          <mxGeometry x="338" y="376" width="27" height="32" as="geometry" />
        </mxCell>
        <mxCell id="-T61vYKXW_mawetWw-yA-78" value="" style="endArrow=classic;startArrow=classic;html=1;rounded=0;exitX=0.5;exitY=0;exitDx=0;exitDy=0;exitPerimeter=0;" edge="1" parent="-T61vYKXW_mawetWw-yA-5" source="-T61vYKXW_mawetWw-yA-59">
          <mxGeometry width="50" height="50" relative="1" as="geometry">
            <mxPoint x="280" y="230" as="sourcePoint" />
            <mxPoint x="330" y="180" as="targetPoint" />
          </mxGeometry>
        </mxCell>
        <mxCell id="-T61vYKXW_mawetWw-yA-79" value="" style="endArrow=classic;html=1;rounded=0;exitX=0.49;exitY=1;exitDx=0;exitDy=0;exitPerimeter=0;" edge="1" parent="-T61vYKXW_mawetWw-yA-5" source="-T61vYKXW_mawetWw-yA-59">
          <mxGeometry width="50" height="50" relative="1" as="geometry">
            <mxPoint x="311.5" y="370" as="sourcePoint" />
            <mxPoint x="335.26610256410254" y="249" as="targetPoint" />
          </mxGeometry>
        </mxCell>
        <mxCell id="-T61vYKXW_mawetWw-yA-80" value="" style="sketch=0;outlineConnect=0;fontColor=#232F3E;gradientColor=none;fillColor=#B0084D;strokeColor=none;dashed=0;verticalLabelPosition=bottom;verticalAlign=top;align=center;html=1;fontSize=12;fontStyle=0;aspect=fixed;pointerEvents=1;shape=mxgraph.aws4.alarm;" vertex="1" parent="-T61vYKXW_mawetWw-yA-5">
          <mxGeometry x="321" y="274" width="22" height="22" as="geometry" />
        </mxCell>
        <mxCell id="-T61vYKXW_mawetWw-yA-81" value="&lt;font style=&quot;font-size: 8px;&quot;&gt;CloudWatch Alarm&lt;/font&gt;" style="edgeLabel;resizable=0;html=1;align=left;verticalAlign=bottom;" connectable="0" vertex="1" parent="-T61vYKXW_mawetWw-yA-5">
          <mxGeometry x="293.71595795418614" y="310.00146074060603" as="geometry" />
        </mxCell>
        <mxCell id="-T61vYKXW_mawetWw-yA-82" value="" style="rounded=1;arcSize=0;dashed=1;fillColor=none;gradientColor=none;dashPattern=8 3 1 3;strokeWidth=2;" vertex="1" parent="-T61vYKXW_mawetWw-yA-5">
          <mxGeometry x="296.56" y="323" width="84.75" height="17" as="geometry" />
        </mxCell>
        <mxCell id="-T61vYKXW_mawetWw-yA-83" value="&lt;font style=&quot;font-size: 8px;&quot;&gt;Auto Scaling Group&lt;/font&gt;" style="edgeLabel;resizable=0;html=1;align=left;verticalAlign=bottom;" connectable="0" vertex="1" parent="-T61vYKXW_mawetWw-yA-5">
          <mxGeometry x="296.5559579541861" y="340.00146074060603" as="geometry" />
        </mxCell>
        <mxCell id="-T61vYKXW_mawetWw-yA-84" value="" style="endArrow=classic;html=1;rounded=0;" edge="1" parent="-T61vYKXW_mawetWw-yA-5" target="-T61vYKXW_mawetWw-yA-6">
          <mxGeometry relative="1" as="geometry">
            <mxPoint x="360" y="-50" as="sourcePoint" />
            <mxPoint x="336.5" y="-20" as="targetPoint" />
          </mxGeometry>
        </mxCell>
        <mxCell id="-T61vYKXW_mawetWw-yA-85" value="" style="sketch=0;outlineConnect=0;fontColor=#232F3E;gradientColor=none;fillColor=#4D27AA;strokeColor=none;dashed=0;verticalLabelPosition=bottom;verticalAlign=top;align=center;html=1;fontSize=12;fontStyle=0;aspect=fixed;pointerEvents=1;shape=mxgraph.aws4.flow_logs;" vertex="1" parent="-T61vYKXW_mawetWw-yA-5">
          <mxGeometry x="132" y="540" width="28" height="28" as="geometry" />
        </mxCell>
        <mxCell id="-T61vYKXW_mawetWw-yA-86" value="&lt;font style=&quot;font-size: 8px;&quot;&gt;VPC Flow Logs&lt;/font&gt;" style="edgeLabel;resizable=0;html=1;align=left;verticalAlign=bottom;" connectable="0" vertex="1" parent="-T61vYKXW_mawetWw-yA-5">
          <mxGeometry x="110" y="580" as="geometry" />
        </mxCell>
        <mxCell id="-T61vYKXW_mawetWw-yA-87" value="" style="endArrow=classic;startArrow=classic;html=1;rounded=0;" edge="1" parent="-T61vYKXW_mawetWw-yA-5" source="-T61vYKXW_mawetWw-yA-88" target="-T61vYKXW_mawetWw-yA-71">
          <mxGeometry width="50" height="50" relative="1" as="geometry">
            <mxPoint x="290" y="510" as="sourcePoint" />
            <mxPoint x="480.01000000000005" y="462" as="targetPoint" />
          </mxGeometry>
        </mxCell>
        <mxCell id="-T61vYKXW_mawetWw-yA-88" value="" style="sketch=0;outlineConnect=0;fontColor=#232F3E;gradientColor=none;fillColor=#4D27AA;strokeColor=none;dashed=0;verticalLabelPosition=bottom;verticalAlign=top;align=center;html=1;fontSize=12;fontStyle=0;aspect=fixed;pointerEvents=1;shape=mxgraph.aws4.endpoint;" vertex="1" parent="-T61vYKXW_mawetWw-yA-5">
          <mxGeometry x="359" y="524.03" width="22.31" height="22.31" as="geometry" />
        </mxCell>
        <mxCell id="-T61vYKXW_mawetWw-yA-89" value="&lt;font style=&quot;font-size: 8px;&quot;&gt;&amp;nbsp; Interface Endpoint&lt;/font&gt;" style="edgeLabel;resizable=0;html=1;align=left;verticalAlign=bottom;" connectable="0" vertex="1" parent="-T61vYKXW_mawetWw-yA-5">
          <mxGeometry x="379.9959579541861" y="554.001460740606" as="geometry" />
        </mxCell>
        <mxCell id="-T61vYKXW_mawetWw-yA-90" value="" style="endArrow=classic;startArrow=classic;html=1;rounded=0;" edge="1" parent="-T61vYKXW_mawetWw-yA-5" source="-T61vYKXW_mawetWw-yA-88">
          <mxGeometry width="50" height="50" relative="1" as="geometry">
            <mxPoint x="365" y="540" as="sourcePoint" />
            <mxPoint x="500" y="537" as="targetPoint" />
          </mxGeometry>
        </mxCell>
        <mxCell id="-T61vYKXW_mawetWw-yA-91" value="&lt;font style=&quot;font-size: 8px;&quot;&gt;ENI(PrivateLink)&lt;/font&gt;" style="edgeLabel;resizable=0;html=1;align=left;verticalAlign=bottom;" connectable="0" vertex="1" parent="-T61vYKXW_mawetWw-yA-5">
          <mxGeometry x="431.3059579541861" y="537.6914607406061" as="geometry" />
        </mxCell>
        <mxCell id="-T61vYKXW_mawetWw-yA-92" value="&lt;font style=&quot;font-size: 8px;&quot;&gt;SG&lt;/font&gt;" style="edgeLabel;resizable=0;html=1;align=left;verticalAlign=bottom;rotation=0;" connectable="0" vertex="1" parent="-T61vYKXW_mawetWw-yA-5">
          <mxGeometry x="406.7459579541861" y="524.03" as="geometry">
            <mxPoint x="6" y="3" as="offset" />
          </mxGeometry>
        </mxCell>
        <mxCell id="-T61vYKXW_mawetWw-yA-93" value="" style="sketch=0;aspect=fixed;html=1;points=[];align=center;image;fontSize=12;image=img/lib/mscae/Network_Security_Groups_Classic.svg;" vertex="1" parent="-T61vYKXW_mawetWw-yA-5">
          <mxGeometry x="400" y="518.85" width="13.49" height="18.24" as="geometry" />
        </mxCell>
        <mxCell id="-T61vYKXW_mawetWw-yA-94" value="" style="sketch=0;points=[[0,0,0],[0.25,0,0],[0.5,0,0],[0.75,0,0],[1,0,0],[0,1,0],[0.25,1,0],[0.5,1,0],[0.75,1,0],[1,1,0],[0,0.25,0],[0,0.5,0],[0,0.75,0],[1,0.25,0],[1,0.5,0],[1,0.75,0]];outlineConnect=0;fontColor=#232F3E;gradientColor=#4D72F3;gradientDirection=north;fillColor=#3334B9;strokeColor=#ffffff;dashed=0;verticalLabelPosition=bottom;verticalAlign=top;align=center;html=1;fontSize=12;fontStyle=0;aspect=fixed;shape=mxgraph.aws4.resourceIcon;resIcon=mxgraph.aws4.dynamodb;" vertex="1" parent="-T61vYKXW_mawetWw-yA-5">
          <mxGeometry x="240" y="526.34" width="17.69" height="17.69" as="geometry" />
        </mxCell>
        <mxCell id="-T61vYKXW_mawetWw-yA-95" value="&lt;font style=&quot;font-size: 8px;&quot;&gt;DynamoDB&lt;/font&gt;" style="edgeLabel;resizable=0;html=1;align=left;verticalAlign=bottom;" connectable="0" vertex="1" parent="-T61vYKXW_mawetWw-yA-5">
          <mxGeometry x="216.6559579541861" y="554.001460740606" as="geometry" />
        </mxCell>
        <mxCell id="-T61vYKXW_mawetWw-yA-96" value="&lt;font style=&quot;font-size: 8px;&quot;&gt;VPC&lt;/font&gt;" style="edgeLabel;resizable=0;html=1;align=center;verticalAlign=middle;" connectable="0" vertex="1" parent="-T61vYKXW_mawetWw-yA-5">
          <mxGeometry x="280" y="562.69" as="geometry">
            <mxPoint x="91" y="-12" as="offset" />
          </mxGeometry>
        </mxCell>
        <mxCell id="-T61vYKXW_mawetWw-yA-97" value="&lt;font size=&quot;1&quot;&gt;Free&lt;/font&gt;" style="edgeLabel;html=1;align=center;verticalAlign=middle;resizable=0;points=[];" connectable="0" vertex="1" parent="-T61vYKXW_mawetWw-yA-5">
          <mxGeometry x="311.49807334295826" y="527.9735021565207" as="geometry">
            <mxPoint x="10" y="8" as="offset" />
          </mxGeometry>
        </mxCell>
        <mxCell id="-T61vYKXW_mawetWw-yA-98" value="" style="rounded=1;arcSize=0;dashed=1;fillColor=none;gradientColor=none;dashPattern=8 3 1 3;strokeWidth=2;" vertex="1" parent="-T61vYKXW_mawetWw-yA-5">
          <mxGeometry x="293.72" y="254" width="84.75" height="17" as="geometry" />
        </mxCell>
        <mxCell id="-T61vYKXW_mawetWw-yA-99" value="" style="endArrow=classic;html=1;rounded=0;entryX=0.392;entryY=0.975;entryDx=0;entryDy=0;entryPerimeter=0;" edge="1" parent="-T61vYKXW_mawetWw-yA-5">
          <mxGeometry width="50" height="50" relative="1" as="geometry">
            <mxPoint x="345.2479687499999" y="338" as="sourcePoint" />
            <mxPoint x="156" y="307" as="targetPoint" />
            <Array as="points" />
          </mxGeometry>
        </mxCell>
        <mxCell id="-T61vYKXW_mawetWw-yA-100" value="" style="endArrow=classic;html=1;rounded=0;entryX=0.392;entryY=0.975;entryDx=0;entryDy=0;entryPerimeter=0;exitX=0.659;exitY=1.009;exitDx=0;exitDy=0;exitPerimeter=0;" edge="1" parent="-T61vYKXW_mawetWw-yA-5" source="-T61vYKXW_mawetWw-yA-82">
          <mxGeometry width="50" height="50" relative="1" as="geometry">
            <mxPoint x="679.9979687499999" y="340" as="sourcePoint" />
            <mxPoint x="490.75" y="309" as="targetPoint" />
            <Array as="points" />
          </mxGeometry>
        </mxCell>
        <mxCell id="-T61vYKXW_mawetWw-yA-101" value="" style="endArrow=classic;startArrow=classic;html=1;rounded=0;" edge="1" parent="-T61vYKXW_mawetWw-yA-5">
          <mxGeometry width="50" height="50" relative="1" as="geometry">
            <mxPoint x="318" y="289" as="sourcePoint" />
            <mxPoint x="338" y="269" as="targetPoint" />
            <Array as="points">
              <mxPoint x="338" y="269" />
            </Array>
          </mxGeometry>
        </mxCell>
        <mxCell id="-T61vYKXW_mawetWw-yA-102" value="&lt;font style=&quot;font-size: 8px;&quot;&gt;NLB&lt;/font&gt;" style="edgeLabel;resizable=0;html=1;align=left;verticalAlign=bottom;" connectable="0" vertex="1" parent="-T61vYKXW_mawetWw-yA-5">
          <mxGeometry x="365" y="490" as="geometry">
            <mxPoint x="-28" y="-62" as="offset" />
          </mxGeometry>
        </mxCell>
        <mxCell id="-T61vYKXW_mawetWw-yA-103" value="" style="aspect=fixed;perimeter=ellipsePerimeter;html=1;align=center;shadow=0;dashed=0;spacingTop=3;image;image=img/lib/active_directory/internet_cloud.svg;" vertex="1" parent="1">
          <mxGeometry x="680" y="70" width="50" height="31.5" as="geometry" />
        </mxCell>
        <mxCell id="-T61vYKXW_mawetWw-yA-104" value="" style="endArrow=classic;html=1;rounded=0;" edge="1" parent="1" source="-T61vYKXW_mawetWw-yA-103" target="-T61vYKXW_mawetWw-yA-105">
          <mxGeometry width="50" height="50" relative="1" as="geometry">
            <mxPoint x="630" y="140" as="sourcePoint" />
            <mxPoint x="650" y="180" as="targetPoint" />
          </mxGeometry>
        </mxCell>
        <mxCell id="-T61vYKXW_mawetWw-yA-105" value="" style="sketch=0;outlineConnect=0;fontColor=#232F3E;gradientColor=none;fillColor=#4D27AA;strokeColor=none;dashed=0;verticalLabelPosition=bottom;verticalAlign=top;align=center;html=1;fontSize=12;fontStyle=0;aspect=fixed;pointerEvents=1;shape=mxgraph.aws4.route_53_resolver_dns_firewall;" vertex="1" parent="1">
          <mxGeometry x="635" y="130" width="38" height="38" as="geometry" />
        </mxCell>
        <mxCell id="-T61vYKXW_mawetWw-yA-106" value="DNS Route 53" style="edgeLabel;resizable=0;html=1;align=left;verticalAlign=bottom;" connectable="0" vertex="1" parent="1">
          <mxGeometry x="559.9959579541861" y="168.00146074060603" as="geometry" />
        </mxCell>
        <mxCell id="-T61vYKXW_mawetWw-yA-107" value="VPC" style="points=[[0,0],[0.25,0],[0.5,0],[0.75,0],[1,0],[1,0.25],[1,0.5],[1,0.75],[1,1],[0.75,1],[0.5,1],[0.25,1],[0,1],[0,0.75],[0,0.5],[0,0.25]];outlineConnect=0;gradientColor=none;html=1;whiteSpace=wrap;fontSize=12;fontStyle=0;container=1;pointerEvents=0;collapsible=0;recursiveResize=0;shape=mxgraph.aws4.group;grIcon=mxgraph.aws4.group_vpc;strokeColor=#248814;fillColor=none;verticalAlign=top;align=left;spacingLeft=30;fontColor=#AAB7B8;dashed=0;" vertex="1" parent="1">
          <mxGeometry x="120" y="650" width="60" height="50" as="geometry" />
        </mxCell>
        <mxCell id="-T61vYKXW_mawetWw-yA-108" value="&lt;font style=&quot;font-size: 11px;&quot;&gt;Corporate data center&lt;/font&gt;" style="points=[[0,0],[0.25,0],[0.5,0],[0.75,0],[1,0],[1,0.25],[1,0.5],[1,0.75],[1,1],[0.75,1],[0.5,1],[0.25,1],[0,1],[0,0.75],[0,0.5],[0,0.25]];outlineConnect=0;gradientColor=none;html=1;whiteSpace=wrap;fontSize=12;fontStyle=0;container=1;pointerEvents=0;collapsible=0;recursiveResize=0;shape=mxgraph.aws4.group;grIcon=mxgraph.aws4.group_corporate_data_center;strokeColor=#5A6C86;fillColor=none;verticalAlign=top;align=left;spacingLeft=30;fontColor=#5A6C86;dashed=0;" vertex="1" parent="1">
          <mxGeometry x="200" y="940" width="186" height="105" as="geometry" />
        </mxCell>
        <mxCell id="-T61vYKXW_mawetWw-yA-109" value="" style="sketch=0;outlineConnect=0;fontColor=#232F3E;gradientColor=none;fillColor=#4D27AA;strokeColor=none;dashed=0;verticalLabelPosition=bottom;verticalAlign=top;align=center;html=1;fontSize=12;fontStyle=0;aspect=fixed;pointerEvents=1;shape=mxgraph.aws4.customer_gateway;" vertex="1" parent="-T61vYKXW_mawetWw-yA-108">
          <mxGeometry x="2.1316282072803006e-14" y="-22" width="28" height="28" as="geometry" />
        </mxCell>
        <mxCell id="-T61vYKXW_mawetWw-yA-110" value="" style="sketch=0;outlineConnect=0;fontColor=#232F3E;gradientColor=none;fillColor=#4D27AA;strokeColor=none;dashed=0;verticalLabelPosition=bottom;verticalAlign=top;align=center;html=1;fontSize=12;fontStyle=0;aspect=fixed;pointerEvents=1;shape=mxgraph.aws4.customer_gateway;" vertex="1" parent="-T61vYKXW_mawetWw-yA-108">
          <mxGeometry x="140.00000000000003" y="-22" width="28" height="28" as="geometry" />
        </mxCell>
        <mxCell id="-T61vYKXW_mawetWw-yA-111" value="" style="sketch=0;points=[[0,0,0],[0.25,0,0],[0.5,0,0],[0.75,0,0],[1,0,0],[0,1,0],[0.25,1,0],[0.5,1,0],[0.75,1,0],[1,1,0],[0,0.25,0],[0,0.5,0],[0,0.75,0],[1,0.25,0],[1,0.5,0],[1,0.75,0]];outlineConnect=0;fontColor=#232F3E;gradientColor=#945DF2;gradientDirection=north;fillColor=#5A30B5;strokeColor=#ffffff;dashed=0;verticalLabelPosition=bottom;verticalAlign=top;align=center;html=1;fontSize=12;fontStyle=0;aspect=fixed;shape=mxgraph.aws4.resourceIcon;resIcon=mxgraph.aws4.transit_gateway;" vertex="1" parent="1">
          <mxGeometry x="180" y="760" width="30" height="30" as="geometry" />
        </mxCell>
        <mxCell id="-T61vYKXW_mawetWw-yA-112" value="" style="endArrow=classic;startArrow=classic;html=1;rounded=0;exitX=0.25;exitY=0;exitDx=0;exitDy=0;exitPerimeter=0;" edge="1" parent="1" source="-T61vYKXW_mawetWw-yA-111">
          <mxGeometry width="50" height="50" relative="1" as="geometry">
            <mxPoint x="90" y="750" as="sourcePoint" />
            <mxPoint x="140" y="700" as="targetPoint" />
          </mxGeometry>
        </mxCell>
        <mxCell id="-T61vYKXW_mawetWw-yA-113" value="" style="endArrow=classic;startArrow=classic;html=1;rounded=0;entryX=1;entryY=0;entryDx=0;entryDy=0;entryPerimeter=0;" edge="1" parent="1" source="-T61vYKXW_mawetWw-yA-5" target="-T61vYKXW_mawetWw-yA-111">
          <mxGeometry width="50" height="50" relative="1" as="geometry">
            <mxPoint x="234" y="820" as="sourcePoint" />
            <mxPoint x="186" y="760" as="targetPoint" />
          </mxGeometry>
        </mxCell>
        <mxCell id="-T61vYKXW_mawetWw-yA-114" value="" style="sketch=0;outlineConnect=0;fontColor=#232F3E;gradientColor=none;fillColor=#4D27AA;strokeColor=none;dashed=0;verticalLabelPosition=bottom;verticalAlign=top;align=center;html=1;fontSize=12;fontStyle=0;aspect=fixed;pointerEvents=1;shape=mxgraph.aws4.peering;" vertex="1" parent="1">
          <mxGeometry x="270" y="646" width="28" height="28" as="geometry" />
        </mxCell>
        <mxCell id="-T61vYKXW_mawetWw-yA-115" value="&lt;font style=&quot;font-size: 8px;&quot;&gt;Transit Gateway&lt;/font&gt;" style="edgeLabel;resizable=0;html=1;align=left;verticalAlign=bottom;" connectable="0" vertex="1" parent="1">
          <mxGeometry x="160" y="800" as="geometry" />
        </mxCell>
        <mxCell id="-T61vYKXW_mawetWw-yA-116" value="" style="endArrow=classic;startArrow=none;html=1;rounded=0;" edge="1" parent="1" source="-T61vYKXW_mawetWw-yA-120">
          <mxGeometry width="50" height="50" relative="1" as="geometry">
            <mxPoint x="244" y="850" as="sourcePoint" />
            <mxPoint x="196" y="790" as="targetPoint" />
          </mxGeometry>
        </mxCell>
        <mxCell id="-T61vYKXW_mawetWw-yA-117" value="" style="endArrow=none;dashed=1;html=1;dashPattern=1 3;strokeWidth=2;rounded=0;exitX=1;exitY=0.25;exitDx=0;exitDy=0;" edge="1" parent="1" source="-T61vYKXW_mawetWw-yA-107" target="-T61vYKXW_mawetWw-yA-114">
          <mxGeometry width="50" height="50" relative="1" as="geometry">
            <mxPoint x="180" y="691" as="sourcePoint" />
            <mxPoint x="230" y="641" as="targetPoint" />
          </mxGeometry>
        </mxCell>
        <mxCell id="-T61vYKXW_mawetWw-yA-118" value="&lt;font style=&quot;font-size: 8px;&quot;&gt;VPN Connection&lt;/font&gt;" style="edgeLabel;resizable=0;html=1;align=left;verticalAlign=bottom;" connectable="0" vertex="1" parent="1">
          <mxGeometry x="130" y="860" as="geometry" />
        </mxCell>
        <mxCell id="-T61vYKXW_mawetWw-yA-119" value="" style="endArrow=none;startArrow=classic;html=1;rounded=0;" edge="1" parent="1" source="-T61vYKXW_mawetWw-yA-109" target="-T61vYKXW_mawetWw-yA-120">
          <mxGeometry width="50" height="50" relative="1" as="geometry">
            <mxPoint x="208" y="880" as="sourcePoint" />
            <mxPoint x="196" y="790" as="targetPoint" />
          </mxGeometry>
        </mxCell>
        <mxCell id="-T61vYKXW_mawetWw-yA-120" value="" style="sketch=0;outlineConnect=0;fontColor=#232F3E;gradientColor=none;fillColor=#4D27AA;strokeColor=none;dashed=0;verticalLabelPosition=bottom;verticalAlign=top;align=center;html=1;fontSize=12;fontStyle=0;aspect=fixed;pointerEvents=1;shape=mxgraph.aws4.vpn_connection;" vertex="1" parent="1">
          <mxGeometry x="190" y="820" width="20" height="22.28" as="geometry" />
        </mxCell>
        <mxCell id="-T61vYKXW_mawetWw-yA-121" value="" style="endArrow=none;dashed=1;html=1;dashPattern=1 3;strokeWidth=2;rounded=0;startArrow=none;" edge="1" parent="1" source="-T61vYKXW_mawetWw-yA-129">
          <mxGeometry width="50" height="50" relative="1" as="geometry">
            <mxPoint x="250" y="840" as="sourcePoint" />
            <mxPoint x="300" y="790" as="targetPoint" />
            <Array as="points" />
          </mxGeometry>
        </mxCell>
        <mxCell id="-T61vYKXW_mawetWw-yA-122" value="&lt;font style=&quot;font-size: 8px;&quot;&gt;S2S VPN Connection&lt;/font&gt;" style="edgeLabel;resizable=0;html=1;align=left;verticalAlign=bottom;" connectable="0" vertex="1" parent="1">
          <mxGeometry x="250" y="840" as="geometry" />
        </mxCell>
        <mxCell id="-T61vYKXW_mawetWw-yA-123" value="&lt;font style=&quot;font-size: 8px;&quot;&gt;Customer Gateway&lt;/font&gt;" style="edgeLabel;resizable=0;html=1;align=left;verticalAlign=bottom;" connectable="0" vertex="1" parent="1">
          <mxGeometry x="130" y="908" as="geometry" />
        </mxCell>
        <mxCell id="-T61vYKXW_mawetWw-yA-124" value="" style="aspect=fixed;html=1;points=[];align=center;image;fontSize=12;image=img/lib/azure2/networking/NAT.svg;" vertex="1" parent="1">
          <mxGeometry x="370" y="843" width="27" height="27" as="geometry" />
        </mxCell>
        <mxCell id="-T61vYKXW_mawetWw-yA-125" value="" style="endArrow=none;dashed=1;html=1;dashPattern=1 3;strokeWidth=2;rounded=0;startArrow=none;" edge="1" parent="1" source="-T61vYKXW_mawetWw-yA-131">
          <mxGeometry width="50" height="50" relative="1" as="geometry">
            <mxPoint x="255" y="890" as="sourcePoint" />
            <mxPoint x="310" y="800" as="targetPoint" />
            <Array as="points" />
          </mxGeometry>
        </mxCell>
        <mxCell id="-T61vYKXW_mawetWw-yA-126" value="OR" style="edgeLabel;resizable=0;html=1;align=left;verticalAlign=bottom;" connectable="0" vertex="1" parent="1">
          <mxGeometry x="280" y="870" as="geometry">
            <mxPoint x="6" y="3" as="offset" />
          </mxGeometry>
        </mxCell>
        <mxCell id="-T61vYKXW_mawetWw-yA-127" value="&lt;font style=&quot;font-size: 8px;&quot;&gt;NAT Device&lt;/font&gt;" style="edgeLabel;resizable=0;html=1;align=left;verticalAlign=bottom;" connectable="0" vertex="1" parent="1">
          <mxGeometry x="370" y="880" as="geometry" />
        </mxCell>
        <mxCell id="-T61vYKXW_mawetWw-yA-128" value="" style="endArrow=none;dashed=1;html=1;dashPattern=1 3;strokeWidth=2;rounded=0;" edge="1" parent="1" source="-T61vYKXW_mawetWw-yA-109" target="-T61vYKXW_mawetWw-yA-129">
          <mxGeometry width="50" height="50" relative="1" as="geometry">
            <mxPoint x="245" y="880" as="sourcePoint" />
            <mxPoint x="300" y="790" as="targetPoint" />
            <Array as="points" />
          </mxGeometry>
        </mxCell>
        <mxCell id="-T61vYKXW_mawetWw-yA-129" value="" style="sketch=0;outlineConnect=0;fontColor=#232F3E;gradientColor=none;fillColor=#4D27AA;strokeColor=none;dashed=0;verticalLabelPosition=bottom;verticalAlign=top;align=center;html=1;fontSize=12;fontStyle=0;aspect=fixed;pointerEvents=1;shape=mxgraph.aws4.vpn_connection;" vertex="1" parent="1">
          <mxGeometry x="260" y="840" width="20" height="22.29" as="geometry" />
        </mxCell>
        <mxCell id="-T61vYKXW_mawetWw-yA-130" value="" style="endArrow=none;dashed=1;html=1;dashPattern=1 3;strokeWidth=2;rounded=0;" edge="1" parent="1" source="-T61vYKXW_mawetWw-yA-124" target="-T61vYKXW_mawetWw-yA-131">
          <mxGeometry width="50" height="50" relative="1" as="geometry">
            <mxPoint x="339" y="882" as="sourcePoint" />
            <mxPoint x="310" y="800" as="targetPoint" />
            <Array as="points" />
          </mxGeometry>
        </mxCell>
        <mxCell id="-T61vYKXW_mawetWw-yA-131" value="" style="sketch=0;outlineConnect=0;fontColor=#232F3E;gradientColor=none;fillColor=#4D27AA;strokeColor=none;dashed=0;verticalLabelPosition=bottom;verticalAlign=top;align=center;html=1;fontSize=12;fontStyle=0;aspect=fixed;pointerEvents=1;shape=mxgraph.aws4.vpn_connection;" vertex="1" parent="1">
          <mxGeometry x="334" y="828.86" width="20" height="22.28" as="geometry" />
        </mxCell>
        <mxCell id="-T61vYKXW_mawetWw-yA-132" value="VPC" style="points=[[0,0],[0.25,0],[0.5,0],[0.75,0],[1,0],[1,0.25],[1,0.5],[1,0.75],[1,1],[0.75,1],[0.5,1],[0.25,1],[0,1],[0,0.75],[0,0.5],[0,0.25]];outlineConnect=0;gradientColor=none;html=1;whiteSpace=wrap;fontSize=12;fontStyle=0;container=1;pointerEvents=0;collapsible=0;recursiveResize=0;shape=mxgraph.aws4.group;grIcon=mxgraph.aws4.group_vpc;strokeColor=#248814;fillColor=none;verticalAlign=top;align=left;spacingLeft=30;fontColor=#AAB7B8;dashed=0;" vertex="1" parent="1">
          <mxGeometry x="120" y="650" width="60" height="50" as="geometry" />
        </mxCell>
        <mxCell id="-T61vYKXW_mawetWw-yA-133" value="VPC" style="points=[[0,0],[0.25,0],[0.5,0],[0.75,0],[1,0],[1,0.25],[1,0.5],[1,0.75],[1,1],[0.75,1],[0.5,1],[0.25,1],[0,1],[0,0.75],[0,0.5],[0,0.25]];outlineConnect=0;gradientColor=none;html=1;whiteSpace=wrap;fontSize=12;fontStyle=0;container=1;pointerEvents=0;collapsible=0;recursiveResize=0;shape=mxgraph.aws4.group;grIcon=mxgraph.aws4.group_vpc;strokeColor=#248814;fillColor=none;verticalAlign=top;align=left;spacingLeft=30;fontColor=#AAB7B8;dashed=0;" vertex="1" parent="1">
          <mxGeometry x="770" y="871" width="60" height="50" as="geometry" />
        </mxCell>
        <mxCell id="-T61vYKXW_mawetWw-yA-134" value="" style="endArrow=classic;startArrow=classic;html=1;rounded=0;entryX=0;entryY=0;entryDx=0;entryDy=0;" edge="1" parent="1" target="-T61vYKXW_mawetWw-yA-136">
          <mxGeometry width="50" height="50" relative="1" as="geometry">
            <mxPoint x="720" y="770" as="sourcePoint" />
            <mxPoint x="800" y="767" as="targetPoint" />
          </mxGeometry>
        </mxCell>
        <mxCell id="-T61vYKXW_mawetWw-yA-135" value="&lt;font style=&quot;font-size: 9px;&quot;&gt;S2S&lt;/font&gt;" style="edgeLabel;html=1;align=center;verticalAlign=middle;resizable=0;points=[];" connectable="0" vertex="1" parent="-T61vYKXW_mawetWw-yA-134">
          <mxGeometry x="0.2638" y="1" relative="1" as="geometry">
            <mxPoint as="offset" />
          </mxGeometry>
        </mxCell>
        <mxCell id="-T61vYKXW_mawetWw-yA-136" value="&lt;font style=&quot;font-size: 8px;&quot;&gt;Data Center&lt;/font&gt;" style="points=[[0,0],[0.25,0],[0.5,0],[0.75,0],[1,0],[1,0.25],[1,0.5],[1,0.75],[1,1],[0.75,1],[0.5,1],[0.25,1],[0,1],[0,0.75],[0,0.5],[0,0.25]];outlineConnect=0;gradientColor=none;html=1;whiteSpace=wrap;fontSize=12;fontStyle=0;container=1;pointerEvents=0;collapsible=0;recursiveResize=0;shape=mxgraph.aws4.group;grIcon=mxgraph.aws4.group_corporate_data_center;strokeColor=#5A6C86;fillColor=none;verticalAlign=top;align=left;spacingLeft=30;fontColor=#5A6C86;dashed=0;" vertex="1" parent="1">
          <mxGeometry x="870" y="870" width="60" height="45" as="geometry" />
        </mxCell>
        <mxCell id="-T61vYKXW_mawetWw-yA-137" value="" style="endArrow=classic;startArrow=classic;html=1;rounded=0;" edge="1" parent="1">
          <mxGeometry width="50" height="50" relative="1" as="geometry">
            <mxPoint x="731.31" y="770" as="sourcePoint" />
            <mxPoint x="785.436984126984" y="871" as="targetPoint" />
            <Array as="points">
              <mxPoint x="721.31" y="770" />
            </Array>
          </mxGeometry>
        </mxCell>
        <mxCell id="-T61vYKXW_mawetWw-yA-138" value="&lt;font style=&quot;font-size: 9px;&quot;&gt;TGW&lt;/font&gt;" style="edgeLabel;html=1;align=center;verticalAlign=middle;resizable=0;points=[];" connectable="0" vertex="1" parent="-T61vYKXW_mawetWw-yA-137">
          <mxGeometry x="0.3658" y="-2" relative="1" as="geometry">
            <mxPoint as="offset" />
          </mxGeometry>
        </mxCell>
        <mxCell id="-T61vYKXW_mawetWw-yA-139" value="" style="endArrow=none;dashed=1;html=1;dashPattern=1 3;strokeWidth=2;rounded=0;" edge="1" parent="1" source="-T61vYKXW_mawetWw-yA-110">
          <mxGeometry width="50" height="50" relative="1" as="geometry">
            <mxPoint x="360" y="900" as="sourcePoint" />
            <mxPoint x="380" y="870" as="targetPoint" />
          </mxGeometry>
        </mxCell>
        <mxCell id="-T61vYKXW_mawetWw-yA-140" value="&lt;font style=&quot;font-size: 8px;&quot;&gt;(Public IP)&lt;/font&gt;" style="edgeLabel;resizable=0;html=1;align=left;verticalAlign=bottom;" connectable="0" vertex="1" parent="1">
          <mxGeometry x="369.9959579541861" y="890.001460740606" as="geometry" />
        </mxCell>
        <mxCell id="-T61vYKXW_mawetWw-yA-141" value="&lt;font style=&quot;font-size: 8px;&quot;&gt;(Public IP)&lt;/font&gt;" style="edgeLabel;resizable=0;html=1;align=left;verticalAlign=bottom;" connectable="0" vertex="1" parent="1">
          <mxGeometry x="139.9959579541861" y="921.001460740606" as="geometry" />
        </mxCell>
        <mxCell id="-T61vYKXW_mawetWw-yA-142" value="&lt;font style=&quot;font-size: 8px;&quot;&gt;Customer Gateway&lt;/font&gt;" style="edgeLabel;resizable=0;html=1;align=left;verticalAlign=bottom;" connectable="0" vertex="1" parent="1">
          <mxGeometry x="284" y="921" as="geometry" />
        </mxCell>
        <mxCell id="-T61vYKXW_mawetWw-yA-143" value="&lt;font style=&quot;font-size: 8px;&quot;&gt;(Private IP)&lt;/font&gt;" style="edgeLabel;resizable=0;html=1;align=left;verticalAlign=bottom;" connectable="0" vertex="1" parent="1">
          <mxGeometry x="292.9959579541861" y="932.001460740606" as="geometry" />
        </mxCell>
        <mxCell id="-T61vYKXW_mawetWw-yA-144" value="" style="endArrow=none;dashed=1;html=1;dashPattern=1 3;strokeWidth=2;rounded=0;" edge="1" parent="1">
          <mxGeometry width="50" height="50" relative="1" as="geometry">
            <mxPoint x="470" y="850" as="sourcePoint" />
            <mxPoint x="309" y="790" as="targetPoint" />
          </mxGeometry>
        </mxCell>
        <mxCell id="-T61vYKXW_mawetWw-yA-145" value="" style="points=[[0,0],[0.25,0],[0.5,0],[0.75,0],[1,0],[1,0.25],[1,0.5],[1,0.75],[1,1],[0.75,1],[0.5,1],[0.25,1],[0,1],[0,0.75],[0,0.5],[0,0.25]];outlineConnect=0;gradientColor=none;html=1;whiteSpace=wrap;fontSize=12;fontStyle=0;container=1;pointerEvents=0;collapsible=0;recursiveResize=0;shape=mxgraph.aws4.group;grIcon=mxgraph.aws4.group_corporate_data_center;strokeColor=#5A6C86;fillColor=none;verticalAlign=top;align=left;spacingLeft=30;fontColor=#5A6C86;dashed=0;" vertex="1" parent="1">
          <mxGeometry x="449" y="862.29" width="41" height="37.71" as="geometry" />
        </mxCell>
        <mxCell id="-T61vYKXW_mawetWw-yA-146" value="" style="sketch=0;outlineConnect=0;fontColor=#232F3E;gradientColor=none;fillColor=#4D27AA;strokeColor=none;dashed=0;verticalLabelPosition=bottom;verticalAlign=top;align=center;html=1;fontSize=12;fontStyle=0;aspect=fixed;pointerEvents=1;shape=mxgraph.aws4.customer_gateway;" vertex="1" parent="-T61vYKXW_mawetWw-yA-145">
          <mxGeometry x="2.1316282072803006e-14" y="-22" width="28" height="28" as="geometry" />
        </mxCell>
        <mxCell id="-T61vYKXW_mawetWw-yA-147" value="" style="points=[[0,0],[0.25,0],[0.5,0],[0.75,0],[1,0],[1,0.25],[1,0.5],[1,0.75],[1,1],[0.75,1],[0.5,1],[0.25,1],[0,1],[0,0.75],[0,0.5],[0,0.25]];outlineConnect=0;gradientColor=none;html=1;whiteSpace=wrap;fontSize=12;fontStyle=0;container=1;pointerEvents=0;collapsible=0;recursiveResize=0;shape=mxgraph.aws4.group;grIcon=mxgraph.aws4.group_corporate_data_center;strokeColor=#5A6C86;fillColor=none;verticalAlign=top;align=left;spacingLeft=30;fontColor=#5A6C86;dashed=0;" vertex="1" parent="1">
          <mxGeometry x="510" y="862.29" width="41" height="37.71" as="geometry" />
        </mxCell>
        <mxCell id="-T61vYKXW_mawetWw-yA-148" value="" style="sketch=0;outlineConnect=0;fontColor=#232F3E;gradientColor=none;fillColor=#4D27AA;strokeColor=none;dashed=0;verticalLabelPosition=bottom;verticalAlign=top;align=center;html=1;fontSize=12;fontStyle=0;aspect=fixed;pointerEvents=1;shape=mxgraph.aws4.customer_gateway;" vertex="1" parent="-T61vYKXW_mawetWw-yA-147">
          <mxGeometry x="2.1316282072803006e-14" y="-22" width="28" height="28" as="geometry" />
        </mxCell>
        <mxCell id="-T61vYKXW_mawetWw-yA-149" value="" style="points=[[0,0],[0.25,0],[0.5,0],[0.75,0],[1,0],[1,0.25],[1,0.5],[1,0.75],[1,1],[0.75,1],[0.5,1],[0.25,1],[0,1],[0,0.75],[0,0.5],[0,0.25]];outlineConnect=0;gradientColor=none;html=1;whiteSpace=wrap;fontSize=12;fontStyle=0;container=1;pointerEvents=0;collapsible=0;recursiveResize=0;shape=mxgraph.aws4.group;grIcon=mxgraph.aws4.group_corporate_data_center;strokeColor=#5A6C86;fillColor=none;verticalAlign=top;align=left;spacingLeft=30;fontColor=#5A6C86;dashed=0;" vertex="1" parent="1">
          <mxGeometry x="570" y="862.29" width="41" height="37.71" as="geometry" />
        </mxCell>
        <mxCell id="-T61vYKXW_mawetWw-yA-150" value="" style="sketch=0;outlineConnect=0;fontColor=#232F3E;gradientColor=none;fillColor=#4D27AA;strokeColor=none;dashed=0;verticalLabelPosition=bottom;verticalAlign=top;align=center;html=1;fontSize=12;fontStyle=0;aspect=fixed;pointerEvents=1;shape=mxgraph.aws4.customer_gateway;" vertex="1" parent="-T61vYKXW_mawetWw-yA-149">
          <mxGeometry x="2.1316282072803006e-14" y="-22" width="28" height="28" as="geometry" />
        </mxCell>
        <mxCell id="-T61vYKXW_mawetWw-yA-151" value="" style="endArrow=none;dashed=1;html=1;dashPattern=1 3;strokeWidth=2;rounded=0;" edge="1" parent="1">
          <mxGeometry width="50" height="50" relative="1" as="geometry">
            <mxPoint x="581" y="851.14" as="sourcePoint" />
            <mxPoint x="310" y="791" as="targetPoint" />
          </mxGeometry>
        </mxCell>
        <mxCell id="-T61vYKXW_mawetWw-yA-152" value="" style="endArrow=none;dashed=1;html=1;dashPattern=1 3;strokeWidth=2;rounded=0;startArrow=none;" edge="1" parent="1" source="-T61vYKXW_mawetWw-yA-154">
          <mxGeometry width="50" height="50" relative="1" as="geometry">
            <mxPoint x="490" y="870" as="sourcePoint" />
            <mxPoint x="310" y="790" as="targetPoint" />
          </mxGeometry>
        </mxCell>
        <mxCell id="-T61vYKXW_mawetWw-yA-153" value="" style="endArrow=none;dashed=1;html=1;dashPattern=1 3;strokeWidth=2;rounded=0;" edge="1" parent="1" source="-T61vYKXW_mawetWw-yA-148" target="-T61vYKXW_mawetWw-yA-154">
          <mxGeometry width="50" height="50" relative="1" as="geometry">
            <mxPoint x="510" y="850" as="sourcePoint" />
            <mxPoint x="310" y="790" as="targetPoint" />
          </mxGeometry>
        </mxCell>
        <mxCell id="-T61vYKXW_mawetWw-yA-154" value="" style="sketch=0;outlineConnect=0;fontColor=#232F3E;gradientColor=none;fillColor=#4D27AA;strokeColor=none;dashed=0;verticalLabelPosition=bottom;verticalAlign=top;align=center;html=1;fontSize=12;fontStyle=0;aspect=fixed;pointerEvents=1;shape=mxgraph.aws4.vpn_connection;" vertex="1" parent="1">
          <mxGeometry x="417.6" y="810" width="20" height="22.29" as="geometry" />
        </mxCell>
        <mxCell id="-T61vYKXW_mawetWw-yA-155" value="OR" style="edgeLabel;resizable=0;html=1;align=left;verticalAlign=bottom;" connectable="0" vertex="1" parent="1">
          <mxGeometry x="370" y="843" as="geometry">
            <mxPoint x="6" y="3" as="offset" />
          </mxGeometry>
        </mxCell>
        <mxCell id="-T61vYKXW_mawetWw-yA-156" value="&lt;font style=&quot;font-size: 8px;&quot;&gt;&amp;nbsp;VPN&amp;nbsp; Cloud Hub&lt;/font&gt;" style="edgeLabel;resizable=0;html=1;align=left;verticalAlign=bottom;" connectable="0" vertex="1" parent="1">
          <mxGeometry x="449" y="840" as="geometry" />
        </mxCell>
        <mxCell id="-T61vYKXW_mawetWw-yA-157" value="OR" style="edgeLabel;resizable=0;html=1;align=left;verticalAlign=bottom;" connectable="0" vertex="1" parent="1">
          <mxGeometry x="210" y="860" as="geometry">
            <mxPoint x="6" y="3" as="offset" />
          </mxGeometry>
        </mxCell>
        <mxCell id="-T61vYKXW_mawetWw-yA-158" value="&lt;font style=&quot;font-size: 8px;&quot;&gt;Auto Scaling Group&lt;/font&gt;" style="edgeLabel;resizable=0;html=1;align=left;verticalAlign=bottom;" connectable="0" vertex="1" parent="1">
          <mxGeometry x="585.2459579541861" y="491.00146074060603" as="geometry" />
        </mxCell>
        <mxCell id="-T61vYKXW_mawetWw-yA-159" value="" style="shape=image;html=1;verticalAlign=top;verticalLabelPosition=bottom;labelBackgroundColor=#ffffff;imageAspect=0;aspect=fixed;image=https://cdn2.iconfinder.com/data/icons/crystalproject/128x128/apps/Session-Manager.png" vertex="1" parent="1">
          <mxGeometry x="655" y="820" width="28" height="28" as="geometry" />
        </mxCell>
        <mxCell id="-T61vYKXW_mawetWw-yA-160" value="&lt;font style=&quot;font-size: 8px;&quot;&gt;Session Manager&lt;/font&gt;" style="edgeLabel;resizable=0;html=1;align=left;verticalAlign=bottom;" connectable="0" vertex="1" parent="1">
          <mxGeometry x="639.9959579541861" y="856.501460740606" as="geometry" />
        </mxCell>
        <mxCell id="-T61vYKXW_mawetWw-yA-161" value="Actor" style="shape=umlActor;verticalLabelPosition=bottom;verticalAlign=top;html=1;outlineConnect=0;" vertex="1" parent="1">
          <mxGeometry x="663" y="862.29" width="20" height="30" as="geometry" />
        </mxCell>
        <mxCell id="-T61vYKXW_mawetWw-yA-162" value="&lt;font style=&quot;font-size: 8px;&quot;&gt;Admin User&lt;/font&gt;" style="edgeLabel;resizable=0;html=1;align=left;verticalAlign=bottom;" connectable="0" vertex="1" parent="1">
          <mxGeometry x="648.9959579541861" y="915.001460740606" as="geometry" />
        </mxCell>
        <mxCell id="-T61vYKXW_mawetWw-yA-163" value="" style="endArrow=classic;html=1;rounded=0;" edge="1" parent="1">
          <mxGeometry width="50" height="50" relative="1" as="geometry">
            <mxPoint x="660" y="870" as="sourcePoint" />
            <mxPoint x="660" y="832.29" as="targetPoint" />
          </mxGeometry>
        </mxCell>
        <mxCell id="-T61vYKXW_mawetWw-yA-164" value="" style="endArrow=classic;html=1;rounded=0;" edge="1" parent="1" source="-T61vYKXW_mawetWw-yA-159">
          <mxGeometry width="50" height="50" relative="1" as="geometry">
            <mxPoint x="585" y="990" as="sourcePoint" />
            <mxPoint x="660" y="780" as="targetPoint" />
          </mxGeometry>
        </mxCell>
      </root>
    </mxGraphModel>
  </diagram>
  <diagram id="4nETvvN8NN0rVK_KSjW3" name="TGW">
    <mxGraphModel dx="936" dy="522" grid="1" gridSize="10" guides="1" tooltips="1" connect="1" arrows="1" fold="1" page="1" pageScale="1" pageWidth="850" pageHeight="1100" math="0" shadow="0">
      <root>
        <mxCell id="0" />
        <mxCell id="1" parent="0" />
        <mxCell id="OyZpybToC58qL0jPKVZn-1" value="VPC" style="sketch=0;outlineConnect=0;gradientColor=none;html=1;whiteSpace=wrap;fontSize=12;fontStyle=0;shape=mxgraph.aws4.group;grIcon=mxgraph.aws4.group_vpc;strokeColor=#879196;fillColor=none;verticalAlign=top;align=left;spacingLeft=30;fontColor=#879196;dashed=0;" vertex="1" parent="1">
          <mxGeometry x="10" y="40" width="310" height="400" as="geometry" />
        </mxCell>
        <mxCell id="OyZpybToC58qL0jPKVZn-2" value="VPC" style="sketch=0;outlineConnect=0;gradientColor=none;html=1;whiteSpace=wrap;fontSize=12;fontStyle=0;shape=mxgraph.aws4.group;grIcon=mxgraph.aws4.group_vpc;strokeColor=#879196;fillColor=none;verticalAlign=top;align=left;spacingLeft=30;fontColor=#879196;dashed=0;" vertex="1" parent="1">
          <mxGeometry x="10" y="520" width="310" height="390" as="geometry" />
        </mxCell>
        <mxCell id="OyZpybToC58qL0jPKVZn-3" value="VPC" style="sketch=0;outlineConnect=0;gradientColor=none;html=1;whiteSpace=wrap;fontSize=12;fontStyle=0;shape=mxgraph.aws4.group;grIcon=mxgraph.aws4.group_vpc;strokeColor=#879196;fillColor=none;verticalAlign=top;align=left;spacingLeft=30;fontColor=#879196;dashed=0;" vertex="1" parent="1">
          <mxGeometry x="520" y="30" width="320" height="410" as="geometry" />
        </mxCell>
        <mxCell id="OyZpybToC58qL0jPKVZn-4" value="VPC" style="points=[[0,0],[0.25,0],[0.5,0],[0.75,0],[1,0],[1,0.25],[1,0.5],[1,0.75],[1,1],[0.75,1],[0.5,1],[0.25,1],[0,1],[0,0.75],[0,0.5],[0,0.25]];outlineConnect=0;gradientColor=none;html=1;whiteSpace=wrap;fontSize=12;fontStyle=0;container=1;pointerEvents=0;collapsible=0;recursiveResize=0;shape=mxgraph.aws4.group;grIcon=mxgraph.aws4.group_vpc;strokeColor=#248814;fillColor=none;verticalAlign=top;align=left;spacingLeft=30;fontColor=#AAB7B8;dashed=0;" vertex="1" parent="1">
          <mxGeometry x="520" y="520" width="320" height="400" as="geometry" />
        </mxCell>
        <mxCell id="OyZpybToC58qL0jPKVZn-5" value="" style="sketch=0;outlineConnect=0;fontColor=#232F3E;gradientColor=none;fillColor=#4D27AA;strokeColor=none;dashed=0;verticalLabelPosition=bottom;verticalAlign=top;align=center;html=1;fontSize=12;fontStyle=0;aspect=fixed;pointerEvents=1;shape=mxgraph.aws4.route_table;" vertex="1" parent="OyZpybToC58qL0jPKVZn-4">
          <mxGeometry x="-10" y="187" width="26.68" height="26" as="geometry" />
        </mxCell>
        <mxCell id="OyZpybToC58qL0jPKVZn-6" value="Shared" style="edgeLabel;resizable=0;html=1;align=left;verticalAlign=bottom;" connectable="0" vertex="1" parent="OyZpybToC58qL0jPKVZn-4">
          <mxGeometry x="89.99595795418611" y="30.001460740606035" as="geometry" />
        </mxCell>
        <mxCell id="OyZpybToC58qL0jPKVZn-7" value="Availability Zone" style="fillColor=none;strokeColor=#147EBA;dashed=1;verticalAlign=top;fontStyle=0;fontColor=#147EBA;whiteSpace=wrap;html=1;" vertex="1" parent="OyZpybToC58qL0jPKVZn-4">
          <mxGeometry x="16.680000000000064" y="35" width="130" height="330" as="geometry" />
        </mxCell>
        <mxCell id="OyZpybToC58qL0jPKVZn-8" value="Availability Zone" style="fillColor=none;strokeColor=#147EBA;dashed=1;verticalAlign=top;fontStyle=0;fontColor=#147EBA;whiteSpace=wrap;html=1;" vertex="1" parent="OyZpybToC58qL0jPKVZn-4">
          <mxGeometry x="180" y="35" width="130" height="330" as="geometry" />
        </mxCell>
        <mxCell id="OyZpybToC58qL0jPKVZn-9" value="Private subnet" style="points=[[0,0],[0.25,0],[0.5,0],[0.75,0],[1,0],[1,0.25],[1,0.5],[1,0.75],[1,1],[0.75,1],[0.5,1],[0.25,1],[0,1],[0,0.75],[0,0.5],[0,0.25]];outlineConnect=0;gradientColor=none;html=1;whiteSpace=wrap;fontSize=12;fontStyle=0;container=1;pointerEvents=0;collapsible=0;recursiveResize=0;shape=mxgraph.aws4.group;grIcon=mxgraph.aws4.group_security_group;grStroke=0;strokeColor=#147EBA;fillColor=#E6F2F8;verticalAlign=top;align=left;spacingLeft=30;fontColor=#147EBA;dashed=0;" vertex="1" parent="OyZpybToC58qL0jPKVZn-4">
          <mxGeometry x="31.680000000000064" y="230" width="100" height="90" as="geometry" />
        </mxCell>
        <mxCell id="OyZpybToC58qL0jPKVZn-10" value="" style="sketch=0;points=[[0,0,0],[0.25,0,0],[0.5,0,0],[0.75,0,0],[1,0,0],[0,1,0],[0.25,1,0],[0.5,1,0],[0.75,1,0],[1,1,0],[0,0.25,0],[0,0.5,0],[0,0.75,0],[1,0.25,0],[1,0.5,0],[1,0.75,0]];outlineConnect=0;fontColor=#232F3E;gradientColor=#F78E04;gradientDirection=north;fillColor=#D05C17;strokeColor=#ffffff;dashed=0;verticalLabelPosition=bottom;verticalAlign=top;align=center;html=1;fontSize=12;fontStyle=0;aspect=fixed;shape=mxgraph.aws4.resourceIcon;resIcon=mxgraph.aws4.ec2;" vertex="1" parent="OyZpybToC58qL0jPKVZn-9">
          <mxGeometry x="18.319999999999936" y="62" width="28" height="28" as="geometry" />
        </mxCell>
        <mxCell id="OyZpybToC58qL0jPKVZn-11" value="Private subnet" style="points=[[0,0],[0.25,0],[0.5,0],[0.75,0],[1,0],[1,0.25],[1,0.5],[1,0.75],[1,1],[0.75,1],[0.5,1],[0.25,1],[0,1],[0,0.75],[0,0.5],[0,0.25]];outlineConnect=0;gradientColor=none;html=1;whiteSpace=wrap;fontSize=12;fontStyle=0;container=1;pointerEvents=0;collapsible=0;recursiveResize=0;shape=mxgraph.aws4.group;grIcon=mxgraph.aws4.group_security_group;grStroke=0;strokeColor=#147EBA;fillColor=#E6F2F8;verticalAlign=top;align=left;spacingLeft=30;fontColor=#147EBA;dashed=0;" vertex="1" parent="OyZpybToC58qL0jPKVZn-4">
          <mxGeometry x="195" y="230" width="100" height="90" as="geometry" />
        </mxCell>
        <mxCell id="OyZpybToC58qL0jPKVZn-12" value="Public subnet" style="points=[[0,0],[0.25,0],[0.5,0],[0.75,0],[1,0],[1,0.25],[1,0.5],[1,0.75],[1,1],[0.75,1],[0.5,1],[0.25,1],[0,1],[0,0.75],[0,0.5],[0,0.25]];outlineConnect=0;gradientColor=none;html=1;whiteSpace=wrap;fontSize=12;fontStyle=0;container=1;pointerEvents=0;collapsible=0;recursiveResize=0;shape=mxgraph.aws4.group;grIcon=mxgraph.aws4.group_security_group;grStroke=0;strokeColor=#248814;fillColor=#E9F3E6;verticalAlign=top;align=left;spacingLeft=30;fontColor=#248814;dashed=0;" vertex="1" parent="OyZpybToC58qL0jPKVZn-4">
          <mxGeometry x="31.68" y="70" width="100" height="90" as="geometry" />
        </mxCell>
        <mxCell id="OyZpybToC58qL0jPKVZn-13" value="Public subnet" style="points=[[0,0],[0.25,0],[0.5,0],[0.75,0],[1,0],[1,0.25],[1,0.5],[1,0.75],[1,1],[0.75,1],[0.5,1],[0.25,1],[0,1],[0,0.75],[0,0.5],[0,0.25]];outlineConnect=0;gradientColor=none;html=1;whiteSpace=wrap;fontSize=12;fontStyle=0;container=1;pointerEvents=0;collapsible=0;recursiveResize=0;shape=mxgraph.aws4.group;grIcon=mxgraph.aws4.group_security_group;grStroke=0;strokeColor=#248814;fillColor=#E9F3E6;verticalAlign=top;align=left;spacingLeft=30;fontColor=#248814;dashed=0;" vertex="1" parent="OyZpybToC58qL0jPKVZn-4">
          <mxGeometry x="195" y="70" width="100" height="90" as="geometry" />
        </mxCell>
        <mxCell id="OyZpybToC58qL0jPKVZn-14" value="" style="sketch=0;points=[[0,0,0],[0.25,0,0],[0.5,0,0],[0.75,0,0],[1,0,0],[0,1,0],[0.25,1,0],[0.5,1,0],[0.75,1,0],[1,1,0],[0,0.25,0],[0,0.5,0],[0,0.75,0],[1,0.25,0],[1,0.5,0],[1,0.75,0]];outlineConnect=0;fontColor=#232F3E;gradientColor=#F78E04;gradientDirection=north;fillColor=#D05C17;strokeColor=#ffffff;dashed=0;verticalLabelPosition=bottom;verticalAlign=top;align=center;html=1;fontSize=12;fontStyle=0;aspect=fixed;shape=mxgraph.aws4.resourceIcon;resIcon=mxgraph.aws4.ec2;" vertex="1" parent="OyZpybToC58qL0jPKVZn-13">
          <mxGeometry x="5" y="48.5" width="28" height="28" as="geometry" />
        </mxCell>
        <mxCell id="OyZpybToC58qL0jPKVZn-15" value="" style="sketch=0;points=[[0,0,0],[0.25,0,0],[0.5,0,0],[0.75,0,0],[1,0,0],[0,1,0],[0.25,1,0],[0.5,1,0],[0.75,1,0],[1,1,0],[0,0.25,0],[0,0.5,0],[0,0.75,0],[1,0.25,0],[1,0.5,0],[1,0.75,0]];outlineConnect=0;fontColor=#232F3E;gradientColor=#F78E04;gradientDirection=north;fillColor=#D05C17;strokeColor=#ffffff;dashed=0;verticalLabelPosition=bottom;verticalAlign=top;align=center;html=1;fontSize=12;fontStyle=0;aspect=fixed;shape=mxgraph.aws4.resourceIcon;resIcon=mxgraph.aws4.ec2;" vertex="1" parent="OyZpybToC58qL0jPKVZn-4">
          <mxGeometry x="50" y="120" width="28" height="28" as="geometry" />
        </mxCell>
        <mxCell id="OyZpybToC58qL0jPKVZn-16" value="" style="sketch=0;points=[[0,0,0],[0.25,0,0],[0.5,0,0],[0.75,0,0],[1,0,0],[0,1,0],[0.25,1,0],[0.5,1,0],[0.75,1,0],[1,1,0],[0,0.25,0],[0,0.5,0],[0,0.75,0],[1,0.25,0],[1,0.5,0],[1,0.75,0]];outlineConnect=0;fontColor=#232F3E;gradientColor=#F78E04;gradientDirection=north;fillColor=#D05C17;strokeColor=#ffffff;dashed=0;verticalLabelPosition=bottom;verticalAlign=top;align=center;html=1;fontSize=12;fontStyle=0;aspect=fixed;shape=mxgraph.aws4.resourceIcon;resIcon=mxgraph.aws4.ec2;" vertex="1" parent="OyZpybToC58qL0jPKVZn-4">
          <mxGeometry x="210" y="280" width="28" height="28" as="geometry" />
        </mxCell>
        <mxCell id="OyZpybToC58qL0jPKVZn-17" value="" style="sketch=0;outlineConnect=0;fontColor=#232F3E;gradientColor=none;fillColor=#4D27AA;strokeColor=none;dashed=0;verticalLabelPosition=bottom;verticalAlign=top;align=center;html=1;fontSize=12;fontStyle=0;aspect=fixed;pointerEvents=1;shape=mxgraph.aws4.internet_gateway;" vertex="1" parent="OyZpybToC58qL0jPKVZn-4">
          <mxGeometry x="145.5000000000001" y="-10" width="29" height="29" as="geometry" />
        </mxCell>
        <mxCell id="OyZpybToC58qL0jPKVZn-18" value="" style="sketch=0;outlineConnect=0;fontColor=#232F3E;gradientColor=none;fillColor=#4D27AA;strokeColor=none;dashed=0;verticalLabelPosition=bottom;verticalAlign=top;align=center;html=1;fontSize=12;fontStyle=0;aspect=fixed;pointerEvents=1;shape=mxgraph.aws4.route_table;" vertex="1" parent="1">
          <mxGeometry x="310" y="707" width="26.68" height="26" as="geometry" />
        </mxCell>
        <mxCell id="OyZpybToC58qL0jPKVZn-19" value="" style="sketch=0;outlineConnect=0;fontColor=#232F3E;gradientColor=none;fillColor=#4D27AA;strokeColor=none;dashed=0;verticalLabelPosition=bottom;verticalAlign=top;align=center;html=1;fontSize=12;fontStyle=0;aspect=fixed;pointerEvents=1;shape=mxgraph.aws4.route_table;" vertex="1" parent="1">
          <mxGeometry x="310" y="227" width="26.68" height="26" as="geometry" />
        </mxCell>
        <mxCell id="OyZpybToC58qL0jPKVZn-20" value="" style="sketch=0;outlineConnect=0;fontColor=#232F3E;gradientColor=none;fillColor=#4D27AA;strokeColor=none;dashed=0;verticalLabelPosition=bottom;verticalAlign=top;align=center;html=1;fontSize=12;fontStyle=0;aspect=fixed;pointerEvents=1;shape=mxgraph.aws4.route_table;" vertex="1" parent="1">
          <mxGeometry x="510" y="227" width="26.68" height="26" as="geometry" />
        </mxCell>
        <mxCell id="OyZpybToC58qL0jPKVZn-21" value="" style="endArrow=classic;startArrow=classic;html=1;rounded=0;exitX=0.75;exitY=0;exitDx=0;exitDy=0;exitPerimeter=0;" edge="1" parent="1" source="OyZpybToC58qL0jPKVZn-26" target="OyZpybToC58qL0jPKVZn-20">
          <mxGeometry width="50" height="50" relative="1" as="geometry">
            <mxPoint x="430" y="420" as="sourcePoint" />
            <mxPoint x="450" y="350" as="targetPoint" />
          </mxGeometry>
        </mxCell>
        <mxCell id="OyZpybToC58qL0jPKVZn-22" value="" style="endArrow=classic;startArrow=classic;html=1;rounded=0;" edge="1" parent="1" source="OyZpybToC58qL0jPKVZn-26" target="OyZpybToC58qL0jPKVZn-19">
          <mxGeometry width="50" height="50" relative="1" as="geometry">
            <mxPoint x="430" y="420" as="sourcePoint" />
            <mxPoint x="480" y="253" as="targetPoint" />
          </mxGeometry>
        </mxCell>
        <mxCell id="OyZpybToC58qL0jPKVZn-23" value="" style="endArrow=classic;startArrow=none;html=1;rounded=0;" edge="1" parent="1" source="OyZpybToC58qL0jPKVZn-26">
          <mxGeometry width="50" height="50" relative="1" as="geometry">
            <mxPoint x="332" y="725" as="sourcePoint" />
            <mxPoint x="425" y="508" as="targetPoint" />
          </mxGeometry>
        </mxCell>
        <mxCell id="OyZpybToC58qL0jPKVZn-24" value="" style="endArrow=classic;startArrow=classic;html=1;rounded=0;entryX=0;entryY=1;entryDx=0;entryDy=0;entryPerimeter=0;" edge="1" parent="1" source="OyZpybToC58qL0jPKVZn-18" target="OyZpybToC58qL0jPKVZn-26">
          <mxGeometry width="50" height="50" relative="1" as="geometry">
            <mxPoint x="294" y="725" as="sourcePoint" />
            <mxPoint x="387" y="508" as="targetPoint" />
          </mxGeometry>
        </mxCell>
        <mxCell id="OyZpybToC58qL0jPKVZn-25" value="" style="endArrow=none;startArrow=classic;html=1;rounded=0;entryX=1;entryY=1;entryDx=0;entryDy=0;entryPerimeter=0;" edge="1" parent="1" source="OyZpybToC58qL0jPKVZn-5" target="OyZpybToC58qL0jPKVZn-26">
          <mxGeometry width="50" height="50" relative="1" as="geometry">
            <mxPoint x="517" y="707" as="sourcePoint" />
            <mxPoint x="425" y="508" as="targetPoint" />
          </mxGeometry>
        </mxCell>
        <mxCell id="OyZpybToC58qL0jPKVZn-26" value="" style="sketch=0;points=[[0,0,0],[0.25,0,0],[0.5,0,0],[0.75,0,0],[1,0,0],[0,1,0],[0.25,1,0],[0.5,1,0],[0.75,1,0],[1,1,0],[0,0.25,0],[0,0.5,0],[0,0.75,0],[1,0.25,0],[1,0.5,0],[1,0.75,0]];outlineConnect=0;fontColor=#232F3E;gradientColor=#945DF2;gradientDirection=north;fillColor=#5A30B5;strokeColor=#ffffff;dashed=0;verticalLabelPosition=bottom;verticalAlign=top;align=center;html=1;fontSize=12;fontStyle=0;aspect=fixed;shape=mxgraph.aws4.resourceIcon;resIcon=mxgraph.aws4.transit_gateway;" vertex="1" parent="1">
          <mxGeometry x="406" y="470" width="34" height="34" as="geometry" />
        </mxCell>
        <mxCell id="OyZpybToC58qL0jPKVZn-27" value="Private subnet" style="points=[[0,0],[0.25,0],[0.5,0],[0.75,0],[1,0],[1,0.25],[1,0.5],[1,0.75],[1,1],[0.75,1],[0.5,1],[0.25,1],[0,1],[0,0.75],[0,0.5],[0,0.25]];outlineConnect=0;gradientColor=none;html=1;whiteSpace=wrap;fontSize=12;fontStyle=0;container=1;pointerEvents=0;collapsible=0;recursiveResize=0;shape=mxgraph.aws4.group;grIcon=mxgraph.aws4.group_security_group;grStroke=0;strokeColor=#147EBA;fillColor=#E6F2F8;verticalAlign=top;align=left;spacingLeft=30;fontColor=#147EBA;dashed=0;" vertex="1" parent="1">
          <mxGeometry x="550" y="110" width="95" height="90" as="geometry" />
        </mxCell>
        <mxCell id="OyZpybToC58qL0jPKVZn-28" value="Availability Zone" style="fillColor=none;strokeColor=#147EBA;dashed=1;verticalAlign=top;fontStyle=0;fontColor=#147EBA;whiteSpace=wrap;html=1;" vertex="1" parent="1">
          <mxGeometry x="536.6800000000001" y="80" width="130" height="330" as="geometry" />
        </mxCell>
        <mxCell id="OyZpybToC58qL0jPKVZn-29" value="Availability Zone" style="fillColor=none;strokeColor=#147EBA;dashed=1;verticalAlign=top;fontStyle=0;fontColor=#147EBA;whiteSpace=wrap;html=1;" vertex="1" parent="1">
          <mxGeometry x="700.0000000000001" y="80" width="130" height="330" as="geometry" />
        </mxCell>
        <mxCell id="OyZpybToC58qL0jPKVZn-30" value="Availability Zone" style="fillColor=none;strokeColor=#147EBA;dashed=1;verticalAlign=top;fontStyle=0;fontColor=#147EBA;whiteSpace=wrap;html=1;" vertex="1" parent="1">
          <mxGeometry x="40.000000000000114" y="80" width="130" height="330" as="geometry" />
        </mxCell>
        <mxCell id="OyZpybToC58qL0jPKVZn-31" value="Availability Zone" style="fillColor=none;strokeColor=#147EBA;dashed=1;verticalAlign=top;fontStyle=0;fontColor=#147EBA;whiteSpace=wrap;html=1;" vertex="1" parent="1">
          <mxGeometry x="180.0000000000001" y="80" width="130" height="330" as="geometry" />
        </mxCell>
        <mxCell id="OyZpybToC58qL0jPKVZn-32" value="Private subnet" style="points=[[0,0],[0.25,0],[0.5,0],[0.75,0],[1,0],[1,0.25],[1,0.5],[1,0.75],[1,1],[0.75,1],[0.5,1],[0.25,1],[0,1],[0,0.75],[0,0.5],[0,0.25]];outlineConnect=0;gradientColor=none;html=1;whiteSpace=wrap;fontSize=12;fontStyle=0;container=1;pointerEvents=0;collapsible=0;recursiveResize=0;shape=mxgraph.aws4.group;grIcon=mxgraph.aws4.group_security_group;grStroke=0;strokeColor=#147EBA;fillColor=#E6F2F8;verticalAlign=top;align=left;spacingLeft=30;fontColor=#147EBA;dashed=0;" vertex="1" parent="1">
          <mxGeometry x="195" y="590" width="100" height="90" as="geometry" />
        </mxCell>
        <mxCell id="OyZpybToC58qL0jPKVZn-33" value="Private subnet" style="points=[[0,0],[0.25,0],[0.5,0],[0.75,0],[1,0],[1,0.25],[1,0.5],[1,0.75],[1,1],[0.75,1],[0.5,1],[0.25,1],[0,1],[0,0.75],[0,0.5],[0,0.25]];outlineConnect=0;gradientColor=none;html=1;whiteSpace=wrap;fontSize=12;fontStyle=0;container=1;pointerEvents=0;collapsible=0;recursiveResize=0;shape=mxgraph.aws4.group;grIcon=mxgraph.aws4.group_security_group;grStroke=0;strokeColor=#147EBA;fillColor=#E6F2F8;verticalAlign=top;align=left;spacingLeft=30;fontColor=#147EBA;dashed=0;" vertex="1" parent="1">
          <mxGeometry x="195" y="110" width="100" height="90" as="geometry" />
        </mxCell>
        <mxCell id="OyZpybToC58qL0jPKVZn-34" value="" style="sketch=0;points=[[0,0,0],[0.25,0,0],[0.5,0,0],[0.75,0,0],[1,0,0],[0,1,0],[0.25,1,0],[0.5,1,0],[0.75,1,0],[1,1,0],[0,0.25,0],[0,0.5,0],[0,0.75,0],[1,0.25,0],[1,0.5,0],[1,0.75,0]];outlineConnect=0;fontColor=#232F3E;gradientColor=#F78E04;gradientDirection=north;fillColor=#D05C17;strokeColor=#ffffff;dashed=0;verticalLabelPosition=bottom;verticalAlign=top;align=center;html=1;fontSize=12;fontStyle=0;aspect=fixed;shape=mxgraph.aws4.resourceIcon;resIcon=mxgraph.aws4.ec2;" vertex="1" parent="OyZpybToC58qL0jPKVZn-33">
          <mxGeometry x="8" y="50" width="28" height="28" as="geometry" />
        </mxCell>
        <mxCell id="OyZpybToC58qL0jPKVZn-35" value="Private subnet" style="points=[[0,0],[0.25,0],[0.5,0],[0.75,0],[1,0],[1,0.25],[1,0.5],[1,0.75],[1,1],[0.75,1],[0.5,1],[0.25,1],[0,1],[0,0.75],[0,0.5],[0,0.25]];outlineConnect=0;gradientColor=none;html=1;whiteSpace=wrap;fontSize=12;fontStyle=0;container=1;pointerEvents=0;collapsible=0;recursiveResize=0;shape=mxgraph.aws4.group;grIcon=mxgraph.aws4.group_security_group;grStroke=0;strokeColor=#147EBA;fillColor=#E6F2F8;verticalAlign=top;align=left;spacingLeft=30;fontColor=#147EBA;dashed=0;" vertex="1" parent="1">
          <mxGeometry x="715" y="110" width="100" height="90" as="geometry" />
        </mxCell>
        <mxCell id="OyZpybToC58qL0jPKVZn-36" value="" style="sketch=0;points=[[0,0,0],[0.25,0,0],[0.5,0,0],[0.75,0,0],[1,0,0],[0,1,0],[0.25,1,0],[0.5,1,0],[0.75,1,0],[1,1,0],[0,0.25,0],[0,0.5,0],[0,0.75,0],[1,0.25,0],[1,0.5,0],[1,0.75,0]];outlineConnect=0;fontColor=#232F3E;gradientColor=#F78E04;gradientDirection=north;fillColor=#D05C17;strokeColor=#ffffff;dashed=0;verticalLabelPosition=bottom;verticalAlign=top;align=center;html=1;fontSize=12;fontStyle=0;aspect=fixed;shape=mxgraph.aws4.resourceIcon;resIcon=mxgraph.aws4.ec2;" vertex="1" parent="OyZpybToC58qL0jPKVZn-35">
          <mxGeometry x="15" y="50" width="28" height="28" as="geometry" />
        </mxCell>
        <mxCell id="OyZpybToC58qL0jPKVZn-37" value="Test 1" style="edgeLabel;resizable=0;html=1;align=left;verticalAlign=bottom;" connectable="0" vertex="1" parent="1">
          <mxGeometry x="104.99595795418611" y="70.00146074060603" as="geometry" />
        </mxCell>
        <mxCell id="OyZpybToC58qL0jPKVZn-38" value="Private subnet" style="points=[[0,0],[0.25,0],[0.5,0],[0.75,0],[1,0],[1,0.25],[1,0.5],[1,0.75],[1,1],[0.75,1],[0.5,1],[0.25,1],[0,1],[0,0.75],[0,0.5],[0,0.25]];outlineConnect=0;gradientColor=none;html=1;whiteSpace=wrap;fontSize=12;fontStyle=0;container=1;pointerEvents=0;collapsible=0;recursiveResize=0;shape=mxgraph.aws4.group;grIcon=mxgraph.aws4.group_security_group;grStroke=0;strokeColor=#147EBA;fillColor=#E6F2F8;verticalAlign=top;align=left;spacingLeft=30;fontColor=#147EBA;dashed=0;" vertex="1" parent="1">
          <mxGeometry x="55" y="600" width="100" height="90" as="geometry" />
        </mxCell>
        <mxCell id="OyZpybToC58qL0jPKVZn-39" value="Availability Zone" style="fillColor=none;strokeColor=#147EBA;dashed=1;verticalAlign=top;fontStyle=0;fontColor=#147EBA;whiteSpace=wrap;html=1;" vertex="1" parent="1">
          <mxGeometry x="30" y="560" width="130" height="330" as="geometry" />
        </mxCell>
        <mxCell id="OyZpybToC58qL0jPKVZn-40" value="Availability Zone" style="fillColor=none;strokeColor=#147EBA;dashed=1;verticalAlign=top;fontStyle=0;fontColor=#147EBA;whiteSpace=wrap;html=1;" vertex="1" parent="1">
          <mxGeometry x="180.0000000000001" y="560" width="130" height="330" as="geometry" />
        </mxCell>
        <mxCell id="OyZpybToC58qL0jPKVZn-41" value="Private subnet" style="points=[[0,0],[0.25,0],[0.5,0],[0.75,0],[1,0],[1,0.25],[1,0.5],[1,0.75],[1,1],[0.75,1],[0.5,1],[0.25,1],[0,1],[0,0.75],[0,0.5],[0,0.25]];outlineConnect=0;gradientColor=none;html=1;whiteSpace=wrap;fontSize=12;fontStyle=0;container=1;pointerEvents=0;collapsible=0;recursiveResize=0;shape=mxgraph.aws4.group;grIcon=mxgraph.aws4.group_security_group;grStroke=0;strokeColor=#147EBA;fillColor=#E6F2F8;verticalAlign=top;align=left;spacingLeft=30;fontColor=#147EBA;dashed=0;" vertex="1" parent="1">
          <mxGeometry x="65" y="120" width="100" height="90" as="geometry" />
        </mxCell>
        <mxCell id="OyZpybToC58qL0jPKVZn-42" value="" style="sketch=0;points=[[0,0,0],[0.25,0,0],[0.5,0,0],[0.75,0,0],[1,0,0],[0,1,0],[0.25,1,0],[0.5,1,0],[0.75,1,0],[1,1,0],[0,0.25,0],[0,0.5,0],[0,0.75,0],[1,0.25,0],[1,0.5,0],[1,0.75,0]];outlineConnect=0;fontColor=#232F3E;gradientColor=#F78E04;gradientDirection=north;fillColor=#D05C17;strokeColor=#ffffff;dashed=0;verticalLabelPosition=bottom;verticalAlign=top;align=center;html=1;fontSize=12;fontStyle=0;aspect=fixed;shape=mxgraph.aws4.resourceIcon;resIcon=mxgraph.aws4.ec2;" vertex="1" parent="OyZpybToC58qL0jPKVZn-41">
          <mxGeometry x="16" y="50" width="28" height="28" as="geometry" />
        </mxCell>
        <mxCell id="OyZpybToC58qL0jPKVZn-43" value="Test 2" style="edgeLabel;resizable=0;html=1;align=left;verticalAlign=bottom;" connectable="0" vertex="1" parent="1">
          <mxGeometry x="601.6759579541861" y="60.001460740606035" as="geometry" />
        </mxCell>
        <mxCell id="OyZpybToC58qL0jPKVZn-44" value="Prod" style="edgeLabel;resizable=0;html=1;align=left;verticalAlign=bottom;" connectable="0" vertex="1" parent="1">
          <mxGeometry x="104.99595795418611" y="550.001460740606" as="geometry" />
        </mxCell>
        <mxCell id="OyZpybToC58qL0jPKVZn-45" value="Attachment" style="edgeLabel;resizable=0;html=1;align=left;verticalAlign=bottom;" connectable="0" vertex="1" parent="1">
          <mxGeometry x="449.9959579541861" y="360.00146074060603" as="geometry" />
        </mxCell>
        <mxCell id="OyZpybToC58qL0jPKVZn-46" value="Attachment" style="edgeLabel;resizable=0;html=1;align=left;verticalAlign=bottom;" connectable="0" vertex="1" parent="1">
          <mxGeometry x="339.9959579541861" y="360.00146074060603" as="geometry" />
        </mxCell>
        <mxCell id="OyZpybToC58qL0jPKVZn-47" value="Attachment" style="edgeLabel;resizable=0;html=1;align=left;verticalAlign=bottom;" connectable="0" vertex="1" parent="1">
          <mxGeometry x="439.9959579541861" y="590.001460740606" as="geometry" />
        </mxCell>
        <mxCell id="OyZpybToC58qL0jPKVZn-48" value="Attachment" style="edgeLabel;resizable=0;html=1;align=left;verticalAlign=bottom;" connectable="0" vertex="1" parent="1">
          <mxGeometry x="349.9959579541861" y="590.001460740606" as="geometry" />
        </mxCell>
        <mxCell id="OyZpybToC58qL0jPKVZn-49" value="Association" style="edgeLabel;resizable=0;html=1;align=left;verticalAlign=bottom;" connectable="0" vertex="1" parent="1">
          <mxGeometry x="405.9959579541861" y="470.00146074060603" as="geometry" />
        </mxCell>
        <mxCell id="OyZpybToC58qL0jPKVZn-50" value="Association" style="edgeLabel;resizable=0;html=1;align=left;verticalAlign=bottom;" connectable="0" vertex="1" parent="1">
          <mxGeometry x="389.9959579541861" y="520.001460740606" as="geometry" />
        </mxCell>
        <mxCell id="OyZpybToC58qL0jPKVZn-51" value="TGW" style="edgeLabel;resizable=0;html=1;align=left;verticalAlign=bottom;" connectable="0" vertex="1" parent="1">
          <mxGeometry x="389.9959579541861" y="510.00146074060603" as="geometry">
            <mxPoint x="47" y="-13" as="offset" />
          </mxGeometry>
        </mxCell>
        <mxCell id="OyZpybToC58qL0jPKVZn-52" value="" style="shape=image;html=1;verticalAlign=top;verticalLabelPosition=bottom;labelBackgroundColor=#ffffff;imageAspect=0;aspect=fixed;image=https://cdn0.iconfinder.com/data/icons/evericons-24px-vol-1/24/circle-x-128.png" vertex="1" parent="1">
          <mxGeometry x="336.68" y="635" width="35" height="35" as="geometry" />
        </mxCell>
        <mxCell id="OyZpybToC58qL0jPKVZn-53" value="Blackhole" style="edgeLabel;resizable=0;html=1;align=left;verticalAlign=bottom;" connectable="0" vertex="1" parent="1">
          <mxGeometry x="323.33595795418614" y="680.001460740606" as="geometry" />
        </mxCell>
        <mxCell id="OyZpybToC58qL0jPKVZn-54" value="" style="sketch=0;points=[[0,0,0],[0.25,0,0],[0.5,0,0],[0.75,0,0],[1,0,0],[0,1,0],[0.25,1,0],[0.5,1,0],[0.75,1,0],[1,1,0],[0,0.25,0],[0,0.5,0],[0,0.75,0],[1,0.25,0],[1,0.5,0],[1,0.75,0]];outlineConnect=0;fontColor=#232F3E;gradientColor=#F78E04;gradientDirection=north;fillColor=#D05C17;strokeColor=#ffffff;dashed=0;verticalLabelPosition=bottom;verticalAlign=top;align=center;html=1;fontSize=12;fontStyle=0;aspect=fixed;shape=mxgraph.aws4.resourceIcon;resIcon=mxgraph.aws4.ec2;" vertex="1" parent="1">
          <mxGeometry x="65" y="652" width="28" height="28" as="geometry" />
        </mxCell>
        <mxCell id="OyZpybToC58qL0jPKVZn-55" value="" style="sketch=0;points=[[0,0,0],[0.25,0,0],[0.5,0,0],[0.75,0,0],[1,0,0],[0,1,0],[0.25,1,0],[0.5,1,0],[0.75,1,0],[1,1,0],[0,0.25,0],[0,0.5,0],[0,0.75,0],[1,0.25,0],[1,0.5,0],[1,0.75,0]];outlineConnect=0;fontColor=#232F3E;gradientColor=#F78E04;gradientDirection=north;fillColor=#D05C17;strokeColor=#ffffff;dashed=0;verticalLabelPosition=bottom;verticalAlign=top;align=center;html=1;fontSize=12;fontStyle=0;aspect=fixed;shape=mxgraph.aws4.resourceIcon;resIcon=mxgraph.aws4.ec2;" vertex="1" parent="1">
          <mxGeometry x="231" y="642" width="28" height="28" as="geometry" />
        </mxCell>
        <mxCell id="OyZpybToC58qL0jPKVZn-56" value="" style="sketch=0;points=[[0,0,0],[0.25,0,0],[0.5,0,0],[0.75,0,0],[1,0,0],[0,1,0],[0.25,1,0],[0.5,1,0],[0.75,1,0],[1,1,0],[0,0.25,0],[0,0.5,0],[0,0.75,0],[1,0.25,0],[1,0.5,0],[1,0.75,0]];outlineConnect=0;fontColor=#232F3E;gradientColor=#F78E04;gradientDirection=north;fillColor=#D05C17;strokeColor=#ffffff;dashed=0;verticalLabelPosition=bottom;verticalAlign=top;align=center;html=1;fontSize=12;fontStyle=0;aspect=fixed;shape=mxgraph.aws4.resourceIcon;resIcon=mxgraph.aws4.ec2;" vertex="1" parent="1">
          <mxGeometry x="560" y="160" width="28" height="28" as="geometry" />
        </mxCell>
        <mxCell id="OyZpybToC58qL0jPKVZn-57" value="" style="aspect=fixed;perimeter=ellipsePerimeter;html=1;align=center;shadow=0;dashed=0;spacingTop=3;image;image=img/lib/active_directory/internet_cloud.svg;" vertex="1" parent="1">
          <mxGeometry x="710" y="460" width="50" height="31.5" as="geometry" />
        </mxCell>
        <mxCell id="OyZpybToC58qL0jPKVZn-58" value="" style="endArrow=classic;html=1;rounded=0;exitX=0;exitY=0.75;exitDx=0;exitDy=0;" edge="1" parent="1" source="OyZpybToC58qL0jPKVZn-57" target="OyZpybToC58qL0jPKVZn-17">
          <mxGeometry width="50" height="50" relative="1" as="geometry">
            <mxPoint x="645" y="504" as="sourcePoint" />
            <mxPoint x="695" y="454" as="targetPoint" />
          </mxGeometry>
        </mxCell>
        <mxCell id="OyZpybToC58qL0jPKVZn-59" value="Customer&#xa;gateway" style="sketch=0;outlineConnect=0;fontColor=#232F3E;gradientColor=none;strokeColor=#232F3E;fillColor=#ffffff;dashed=0;verticalLabelPosition=bottom;verticalAlign=top;align=center;html=1;fontSize=12;fontStyle=0;aspect=fixed;shape=mxgraph.aws4.resourceIcon;resIcon=mxgraph.aws4.customer_gateway;" vertex="1" parent="1">
          <mxGeometry x="353.4" y="1027.5" width="40" height="40" as="geometry" />
        </mxCell>
        <mxCell id="OyZpybToC58qL0jPKVZn-60" value="VPN Connection" style="edgeLabel;resizable=0;html=1;align=left;verticalAlign=bottom;" connectable="0" vertex="1" parent="1">
          <mxGeometry x="379.9959579541861" y="760.001460740606" as="geometry" />
        </mxCell>
        <mxCell id="OyZpybToC58qL0jPKVZn-61" value="Customer&#xa;gateway" style="sketch=0;outlineConnect=0;fontColor=#232F3E;gradientColor=none;strokeColor=#232F3E;fillColor=#ffffff;dashed=0;verticalLabelPosition=bottom;verticalAlign=top;align=center;html=1;fontSize=12;fontStyle=0;aspect=fixed;shape=mxgraph.aws4.resourceIcon;resIcon=mxgraph.aws4.customer_gateway;" vertex="1" parent="1">
          <mxGeometry x="460" y="1029.5" width="40" height="40" as="geometry" />
        </mxCell>
        <mxCell id="OyZpybToC58qL0jPKVZn-62" value="" style="rounded=1;arcSize=10;dashed=0;fillColor=none;gradientColor=none;strokeWidth=2;" vertex="1" parent="1">
          <mxGeometry x="326.72" y="1044" width="200" height="170" as="geometry" />
        </mxCell>
        <mxCell id="OyZpybToC58qL0jPKVZn-63" value="" style="dashed=0;html=1;shape=mxgraph.aws3.corporate_data_center;fillColor=#7D7C7C;gradientColor=none;dashed=0;" vertex="1" parent="1">
          <mxGeometry x="325.06" y="1108" width="30" height="42" as="geometry" />
        </mxCell>
        <mxCell id="OyZpybToC58qL0jPKVZn-64" value="On-Prem Data Center" style="edgeLabel;resizable=0;html=1;align=left;verticalAlign=bottom;" connectable="0" vertex="1" parent="1">
          <mxGeometry x="373.39595795418614" y="1118.001460740606" as="geometry" />
        </mxCell>
        <mxCell id="OyZpybToC58qL0jPKVZn-65" value="" style="endArrow=classic;html=1;rounded=0;exitX=0.25;exitY=0.25;exitDx=0;exitDy=0;exitPerimeter=0;" edge="1" parent="1" source="OyZpybToC58qL0jPKVZn-59">
          <mxGeometry width="50" height="50" relative="1" as="geometry">
            <mxPoint x="372" y="920" as="sourcePoint" />
            <mxPoint x="410" y="520" as="targetPoint" />
          </mxGeometry>
        </mxCell>
        <mxCell id="OyZpybToC58qL0jPKVZn-66" value="" style="endArrow=classic;html=1;rounded=0;startArrow=none;" edge="1" parent="1" target="OyZpybToC58qL0jPKVZn-59">
          <mxGeometry width="50" height="50" relative="1" as="geometry">
            <mxPoint x="430" y="520" as="sourcePoint" />
            <mxPoint x="380" y="930" as="targetPoint" />
          </mxGeometry>
        </mxCell>
        <mxCell id="OyZpybToC58qL0jPKVZn-67" value="" style="sketch=0;outlineConnect=0;fontColor=#232F3E;gradientColor=none;fillColor=#4D27AA;strokeColor=none;dashed=0;verticalLabelPosition=bottom;verticalAlign=top;align=center;html=1;fontSize=12;fontStyle=0;aspect=fixed;pointerEvents=1;shape=mxgraph.aws4.vpn_connection;" vertex="1" parent="1">
          <mxGeometry x="406" y="711" width="25.13" height="28" as="geometry" />
        </mxCell>
        <mxCell id="OyZpybToC58qL0jPKVZn-68" value="" style="endArrow=classic;html=1;rounded=0;startArrow=none;entryX=0.75;entryY=0;entryDx=0;entryDy=0;" edge="1" parent="1" target="OyZpybToC58qL0jPKVZn-62">
          <mxGeometry width="50" height="50" relative="1" as="geometry">
            <mxPoint x="410" y="510" as="sourcePoint" />
            <mxPoint x="460" y="940" as="targetPoint" />
          </mxGeometry>
        </mxCell>
        <mxCell id="OyZpybToC58qL0jPKVZn-69" value="" style="endArrow=classic;html=1;rounded=0;exitX=0.786;exitY=-0.051;exitDx=0;exitDy=0;exitPerimeter=0;" edge="1" parent="1" source="OyZpybToC58qL0jPKVZn-62">
          <mxGeometry width="50" height="50" relative="1" as="geometry">
            <mxPoint x="401" y="910" as="sourcePoint" />
            <mxPoint x="439" y="510" as="targetPoint" />
          </mxGeometry>
        </mxCell>
        <mxCell id="OyZpybToC58qL0jPKVZn-70" value="" style="sketch=0;points=[[0,0,0],[0.25,0,0],[0.5,0,0],[0.75,0,0],[1,0,0],[0,1,0],[0.25,1,0],[0.5,1,0],[0.75,1,0],[1,1,0],[0,0.25,0],[0,0.5,0],[0,0.75,0],[1,0.25,0],[1,0.5,0],[1,0.75,0]];outlineConnect=0;fontColor=#232F3E;gradientColor=#945DF2;gradientDirection=north;fillColor=#5A30B5;strokeColor=#ffffff;dashed=0;verticalLabelPosition=bottom;verticalAlign=top;align=center;html=1;fontSize=12;fontStyle=0;aspect=fixed;shape=mxgraph.aws4.resourceIcon;resIcon=mxgraph.aws4.direct_connect;" vertex="1" parent="1">
          <mxGeometry x="116.5" y="1030" width="35" height="35" as="geometry" />
        </mxCell>
        <mxCell id="OyZpybToC58qL0jPKVZn-71" value="" style="rounded=1;arcSize=10;dashed=0;fillColor=none;gradientColor=none;strokeWidth=2;" vertex="1" parent="1">
          <mxGeometry x="34" y="1050" width="200" height="170" as="geometry" />
        </mxCell>
        <mxCell id="OyZpybToC58qL0jPKVZn-72" value="" style="rounded=1;arcSize=10;dashed=0;fillColor=none;gradientColor=none;strokeWidth=2;" vertex="1" parent="1">
          <mxGeometry x="50.5" y="1075.5" width="73.5" height="119" as="geometry" />
        </mxCell>
        <mxCell id="OyZpybToC58qL0jPKVZn-73" value="" style="rounded=1;arcSize=10;dashed=0;fillColor=none;gradientColor=none;strokeWidth=2;" vertex="1" parent="1">
          <mxGeometry x="144" y="1074" width="75" height="120.5" as="geometry" />
        </mxCell>
        <mxCell id="OyZpybToC58qL0jPKVZn-74" value="" style="sketch=0;outlineConnect=0;fontColor=#232F3E;gradientColor=none;fillColor=#4D27AA;strokeColor=none;dashed=0;verticalLabelPosition=bottom;verticalAlign=top;align=center;html=1;fontSize=12;fontStyle=0;aspect=fixed;pointerEvents=1;shape=mxgraph.aws4.customer_gateway;" vertex="1" parent="1">
          <mxGeometry x="159" y="1095" width="28" height="28" as="geometry" />
        </mxCell>
        <mxCell id="OyZpybToC58qL0jPKVZn-75" value="" style="sketch=0;outlineConnect=0;fontColor=#232F3E;gradientColor=none;fillColor=#4D27AA;strokeColor=none;dashed=0;verticalLabelPosition=bottom;verticalAlign=top;align=center;html=1;fontSize=12;fontStyle=0;aspect=fixed;pointerEvents=1;shape=mxgraph.aws4.customer_gateway;" vertex="1" parent="1">
          <mxGeometry x="73.25" y="1096" width="28" height="28" as="geometry" />
        </mxCell>
        <mxCell id="OyZpybToC58qL0jPKVZn-76" value="&lt;font style=&quot;font-size: 9px;&quot;&gt;Customer or&lt;br&gt;Partner router&lt;/font&gt;" style="edgeLabel;resizable=0;html=1;align=left;verticalAlign=bottom;" connectable="0" vertex="1" parent="1">
          <mxGeometry x="143.9959579541861" y="1154.001460740606" as="geometry" />
        </mxCell>
        <mxCell id="OyZpybToC58qL0jPKVZn-77" value="&lt;font style=&quot;border-color: var(--border-color); font-size: 9px;&quot;&gt;Direct Connect&lt;br style=&quot;border-color: var(--border-color);&quot;&gt;&lt;/font&gt;&lt;font style=&quot;border-color: var(--border-color); font-size: 9px;&quot;&gt;Endpoint&lt;/font&gt;" style="edgeLabel;resizable=0;html=1;align=left;verticalAlign=bottom;" connectable="0" vertex="1" parent="1">
          <mxGeometry x="50.49595795418611" y="1154.001460740606" as="geometry" />
        </mxCell>
        <mxCell id="OyZpybToC58qL0jPKVZn-78" value="&lt;font style=&quot;border-color: var(--border-color); font-size: 9px;&quot;&gt;&amp;nbsp;AWS Cage&lt;/font&gt;" style="edgeLabel;resizable=0;html=1;align=left;verticalAlign=bottom;" connectable="0" vertex="1" parent="1">
          <mxGeometry x="50.49595795418611" y="1184.001460740606" as="geometry" />
        </mxCell>
        <mxCell id="OyZpybToC58qL0jPKVZn-79" value="&lt;font style=&quot;border-color: var(--border-color); font-size: 9px;&quot;&gt;&amp;nbsp;Customer Cage&lt;/font&gt;" style="edgeLabel;resizable=0;html=1;align=left;verticalAlign=bottom;" connectable="0" vertex="1" parent="1">
          <mxGeometry x="143.9959579541861" y="1184.001460740606" as="geometry" />
        </mxCell>
        <mxCell id="OyZpybToC58qL0jPKVZn-80" value="&lt;font style=&quot;border-color: var(--border-color); font-size: 9px;&quot;&gt;&amp;nbsp;AWS&amp;nbsp; Direct Connect Location&lt;/font&gt;" style="edgeLabel;resizable=0;html=1;align=left;verticalAlign=bottom;" connectable="0" vertex="1" parent="1">
          <mxGeometry x="73.24595795418611" y="1214.001460740606" as="geometry" />
        </mxCell>
        <mxCell id="OyZpybToC58qL0jPKVZn-81" value="" style="endArrow=classic;startArrow=classic;html=1;rounded=0;" edge="1" parent="1" target="OyZpybToC58qL0jPKVZn-75">
          <mxGeometry width="50" height="50" relative="1" as="geometry">
            <mxPoint x="34.014999999999986" y="940" as="sourcePoint" />
            <mxPoint x="330" y="950" as="targetPoint" />
          </mxGeometry>
        </mxCell>
        <mxCell id="OyZpybToC58qL0jPKVZn-82" value="" style="endArrow=classic;startArrow=classic;html=1;rounded=0;" edge="1" parent="1">
          <mxGeometry width="50" height="50" relative="1" as="geometry">
            <mxPoint x="88.5" y="1096" as="sourcePoint" />
            <mxPoint x="164" y="1096" as="targetPoint" />
          </mxGeometry>
        </mxCell>
        <mxCell id="OyZpybToC58qL0jPKVZn-83" value="" style="endArrow=classic;startArrow=classic;html=1;rounded=0;entryX=-0.26;entryY=0.486;entryDx=0;entryDy=0;entryPerimeter=0;" edge="1" parent="1" target="OyZpybToC58qL0jPKVZn-84">
          <mxGeometry width="50" height="50" relative="1" as="geometry">
            <mxPoint x="190" y="1100" as="sourcePoint" />
            <mxPoint x="221" y="1084" as="targetPoint" />
          </mxGeometry>
        </mxCell>
        <mxCell id="OyZpybToC58qL0jPKVZn-84" value="" style="sketch=0;outlineConnect=0;fontColor=#232F3E;gradientColor=none;fillColor=#4D27AA;strokeColor=none;dashed=0;verticalLabelPosition=bottom;verticalAlign=top;align=center;html=1;fontSize=12;fontStyle=0;aspect=fixed;pointerEvents=1;shape=mxgraph.aws4.customer_gateway;" vertex="1" parent="1">
          <mxGeometry x="310.40000000000003" y="1069.5" width="28" height="28" as="geometry" />
        </mxCell>
        <mxCell id="OyZpybToC58qL0jPKVZn-85" value="&lt;font style=&quot;border-color: var(--border-color); font-size: 9px;&quot;&gt;VP Gateway&lt;/font&gt;" style="edgeLabel;resizable=0;html=1;align=left;verticalAlign=bottom;" connectable="0" vertex="1" parent="1">
          <mxGeometry x="39.99595795418611" y="940.001460740606" as="geometry" />
        </mxCell>
        <mxCell id="OyZpybToC58qL0jPKVZn-86" value="" style="sketch=0;outlineConnect=0;fontColor=#232F3E;gradientColor=none;fillColor=#3F8624;strokeColor=none;dashed=0;verticalLabelPosition=bottom;verticalAlign=top;align=center;html=1;fontSize=12;fontStyle=0;aspect=fixed;pointerEvents=1;shape=mxgraph.aws4.bucket_with_objects;" vertex="1" parent="1">
          <mxGeometry x="35.34" y="1244" width="17.31" height="18" as="geometry" />
        </mxCell>
        <mxCell id="OyZpybToC58qL0jPKVZn-87" value="" style="endArrow=none;dashed=1;html=1;dashPattern=1 3;strokeWidth=2;rounded=0;" edge="1" parent="1" target="OyZpybToC58qL0jPKVZn-75">
          <mxGeometry width="50" height="50" relative="1" as="geometry">
            <mxPoint x="44" y="1239" as="sourcePoint" />
            <mxPoint x="94" y="1189" as="targetPoint" />
          </mxGeometry>
        </mxCell>
        <mxCell id="OyZpybToC58qL0jPKVZn-88" value="" style="endArrow=none;dashed=1;html=1;dashPattern=1 3;strokeWidth=2;rounded=0;" edge="1" parent="1" source="OyZpybToC58qL0jPKVZn-74" target="OyZpybToC58qL0jPKVZn-75">
          <mxGeometry width="50" height="50" relative="1" as="geometry">
            <mxPoint x="54" y="1249" as="sourcePoint" />
            <mxPoint x="93" y="1134" as="targetPoint" />
          </mxGeometry>
        </mxCell>
        <mxCell id="OyZpybToC58qL0jPKVZn-89" value="" style="endArrow=none;dashed=1;html=1;dashPattern=1 3;strokeWidth=2;rounded=0;entryX=1.107;entryY=0.536;entryDx=0;entryDy=0;entryPerimeter=0;" edge="1" parent="1" source="OyZpybToC58qL0jPKVZn-84" target="OyZpybToC58qL0jPKVZn-74">
          <mxGeometry width="50" height="50" relative="1" as="geometry">
            <mxPoint x="310" y="1020" as="sourcePoint" />
            <mxPoint x="250" y="1150" as="targetPoint" />
            <Array as="points">
              <mxPoint x="260" y="1120" />
            </Array>
          </mxGeometry>
        </mxCell>
        <mxCell id="OyZpybToC58qL0jPKVZn-90" value="&lt;font style=&quot;border-color: var(--border-color); font-size: 9px;&quot;&gt;VLAN 1&lt;/font&gt;" style="edgeLabel;resizable=0;html=1;align=left;verticalAlign=bottom;" connectable="0" vertex="1" parent="1">
          <mxGeometry x="118.99595795418611" y="1096.001460740606" as="geometry" />
        </mxCell>
        <mxCell id="OyZpybToC58qL0jPKVZn-91" value="&lt;font style=&quot;border-color: var(--border-color); font-size: 9px;&quot;&gt;VLAN 2&lt;/font&gt;" style="edgeLabel;resizable=0;html=1;align=left;verticalAlign=bottom;" connectable="0" vertex="1" parent="1">
          <mxGeometry x="118.99595795418611" y="1124.001460740606" as="geometry" />
        </mxCell>
        <mxCell id="OyZpybToC58qL0jPKVZn-92" value="&lt;font style=&quot;border-color: var(--border-color); font-size: 9px;&quot;&gt;S3 Bucket&lt;/font&gt;" style="edgeLabel;resizable=0;html=1;align=left;verticalAlign=bottom;" connectable="0" vertex="1" parent="1">
          <mxGeometry x="29.99595795418611" y="1274.001460740606" as="geometry" />
        </mxCell>
        <mxCell id="OyZpybToC58qL0jPKVZn-93" value="VPC" style="points=[[0,0],[0.25,0],[0.5,0],[0.75,0],[1,0],[1,0.25],[1,0.5],[1,0.75],[1,1],[0.75,1],[0.5,1],[0.25,1],[0,1],[0,0.75],[0,0.5],[0,0.25]];outlineConnect=0;gradientColor=none;html=1;whiteSpace=wrap;fontSize=12;fontStyle=0;container=1;pointerEvents=0;collapsible=0;recursiveResize=0;shape=mxgraph.aws4.group;grIcon=mxgraph.aws4.group_vpc;strokeColor=#248814;fillColor=none;verticalAlign=top;align=left;spacingLeft=30;fontColor=#AAB7B8;dashed=0;" vertex="1" parent="1">
          <mxGeometry x="250" y="930" width="60" height="48.5" as="geometry" />
        </mxCell>
        <mxCell id="OyZpybToC58qL0jPKVZn-94" value="" style="sketch=0;outlineConnect=0;fontColor=#232F3E;gradientColor=none;fillColor=#4D27AA;strokeColor=none;dashed=0;verticalLabelPosition=bottom;verticalAlign=top;align=center;html=1;fontSize=12;fontStyle=0;aspect=fixed;pointerEvents=1;shape=mxgraph.aws4.vpn_gateway;" vertex="1" parent="OyZpybToC58qL0jPKVZn-93">
          <mxGeometry x="-19" y="22.5" width="26" height="26" as="geometry" />
        </mxCell>
        <mxCell id="OyZpybToC58qL0jPKVZn-95" value="" style="sketch=0;outlineConnect=0;fontColor=#232F3E;gradientColor=none;fillColor=#4D27AA;strokeColor=none;dashed=0;verticalLabelPosition=bottom;verticalAlign=top;align=center;html=1;fontSize=12;fontStyle=0;aspect=fixed;pointerEvents=1;shape=mxgraph.aws4.vpn_gateway;" vertex="1" parent="1">
          <mxGeometry x="14" y="914" width="26" height="26" as="geometry" />
        </mxCell>
        <mxCell id="OyZpybToC58qL0jPKVZn-96" value="VPC" style="points=[[0,0],[0.25,0],[0.5,0],[0.75,0],[1,0],[1,0.25],[1,0.5],[1,0.75],[1,1],[0.75,1],[0.5,1],[0.25,1],[0,1],[0,0.75],[0,0.5],[0,0.25]];outlineConnect=0;gradientColor=none;html=1;whiteSpace=wrap;fontSize=12;fontStyle=0;container=1;pointerEvents=0;collapsible=0;recursiveResize=0;shape=mxgraph.aws4.group;grIcon=mxgraph.aws4.group_vpc;strokeColor=#248814;fillColor=none;verticalAlign=top;align=left;spacingLeft=30;fontColor=#AAB7B8;dashed=0;" vertex="1" parent="1">
          <mxGeometry x="160" y="930" width="60" height="48.5" as="geometry" />
        </mxCell>
        <mxCell id="OyZpybToC58qL0jPKVZn-97" value="" style="sketch=0;outlineConnect=0;fontColor=#232F3E;gradientColor=none;fillColor=#4D27AA;strokeColor=none;dashed=0;verticalLabelPosition=bottom;verticalAlign=top;align=center;html=1;fontSize=12;fontStyle=0;aspect=fixed;pointerEvents=1;shape=mxgraph.aws4.vpn_gateway;" vertex="1" parent="OyZpybToC58qL0jPKVZn-96">
          <mxGeometry x="-16" y="22.5" width="26" height="26" as="geometry" />
        </mxCell>
        <mxCell id="OyZpybToC58qL0jPKVZn-98" value="" style="endArrow=none;dashed=1;html=1;dashPattern=1 3;strokeWidth=2;rounded=0;" edge="1" parent="1">
          <mxGeometry width="50" height="50" relative="1" as="geometry">
            <mxPoint x="145" y="1044" as="sourcePoint" />
            <mxPoint x="200" y="1010" as="targetPoint" />
          </mxGeometry>
        </mxCell>
        <mxCell id="OyZpybToC58qL0jPKVZn-99" value="" style="endArrow=none;dashed=1;html=1;dashPattern=1 3;strokeWidth=2;rounded=0;" edge="1" parent="1" target="OyZpybToC58qL0jPKVZn-94">
          <mxGeometry width="50" height="50" relative="1" as="geometry">
            <mxPoint x="190" y="1010" as="sourcePoint" />
            <mxPoint x="210" y="1020" as="targetPoint" />
          </mxGeometry>
        </mxCell>
        <mxCell id="OyZpybToC58qL0jPKVZn-100" value="" style="endArrow=none;dashed=1;html=1;dashPattern=1 3;strokeWidth=2;rounded=0;" edge="1" parent="1" target="OyZpybToC58qL0jPKVZn-97">
          <mxGeometry width="50" height="50" relative="1" as="geometry">
            <mxPoint x="190" y="1010" as="sourcePoint" />
            <mxPoint x="241" y="986" as="targetPoint" />
          </mxGeometry>
        </mxCell>
        <mxCell id="OyZpybToC58qL0jPKVZn-101" value="&lt;font style=&quot;border-color: var(--border-color); font-size: 9px;&quot;&gt;Direct Connect Gateway&lt;/font&gt;" style="edgeLabel;resizable=0;html=1;align=left;verticalAlign=bottom;" connectable="0" vertex="1" parent="1">
          <mxGeometry x="143.9959579541861" y="1020.001460740606" as="geometry" />
        </mxCell>
        <mxCell id="OyZpybToC58qL0jPKVZn-102" value="&lt;font style=&quot;border-color: var(--border-color); font-size: 9px;&quot;&gt;OR&lt;/font&gt;" style="edgeLabel;resizable=0;html=1;align=left;verticalAlign=bottom;" connectable="0" vertex="1" parent="1">
          <mxGeometry x="279.9959579541861" y="1030.001460740606" as="geometry" />
        </mxCell>
        <mxCell id="OyZpybToC58qL0jPKVZn-103" value="&lt;font style=&quot;font-size: 9px;&quot;&gt;VPN Connection&lt;/font&gt;" style="edgeLabel;resizable=0;html=1;align=left;verticalAlign=bottom;" connectable="0" vertex="1" parent="1">
          <mxGeometry x="233.9959579541861" y="1083.501460740606" as="geometry" />
        </mxCell>
        <mxCell id="OyZpybToC58qL0jPKVZn-104" value="" style="sketch=0;outlineConnect=0;fontColor=#232F3E;gradientColor=none;fillColor=#4D27AA;strokeColor=none;dashed=0;verticalLabelPosition=bottom;verticalAlign=top;align=center;html=1;fontSize=12;fontStyle=0;aspect=fixed;pointerEvents=1;shape=mxgraph.aws4.vpn_connection;" vertex="1" parent="1">
          <mxGeometry x="250" y="1091.14" width="15.13" height="16.86" as="geometry" />
        </mxCell>
      </root>
    </mxGraphModel>
  </diagram>
  <diagram id="nE6geRVtcbt4Yp36DHhr" name="Database">
    <mxGraphModel dx="936" dy="1622" grid="1" gridSize="10" guides="1" tooltips="1" connect="1" arrows="1" fold="1" page="1" pageScale="1" pageWidth="850" pageHeight="1100" math="0" shadow="0">
      <root>
        <mxCell id="0" />
        <mxCell id="1" parent="0" />
        <mxCell id="WNXv7E2quaEmnL9IHniY-2" value="Region" style="points=[[0,0],[0.25,0],[0.5,0],[0.75,0],[1,0],[1,0.25],[1,0.5],[1,0.75],[1,1],[0.75,1],[0.5,1],[0.25,1],[0,1],[0,0.75],[0,0.5],[0,0.25]];outlineConnect=0;gradientColor=none;html=1;whiteSpace=wrap;fontSize=12;fontStyle=0;container=1;pointerEvents=0;collapsible=0;recursiveResize=0;shape=mxgraph.aws4.group;grIcon=mxgraph.aws4.group_region;strokeColor=#147EBA;fillColor=none;verticalAlign=top;align=left;spacingLeft=30;fontColor=#147EBA;dashed=1;" vertex="1" parent="1">
          <mxGeometry x="120" y="-260" width="680" height="900" as="geometry" />
        </mxCell>
        <mxCell id="WNXv7E2quaEmnL9IHniY-3" value="Availability zone" style="sketch=0;outlineConnect=0;gradientColor=none;html=1;whiteSpace=wrap;fontSize=12;fontStyle=0;shape=mxgraph.aws4.group;grIcon=mxgraph.aws4.group_availability_zone;strokeColor=#545B64;fillColor=none;verticalAlign=top;align=left;spacingLeft=30;fontColor=#545B64;dashed=1;" vertex="1" parent="WNXv7E2quaEmnL9IHniY-2">
          <mxGeometry x="100" y="70" width="500" height="510" as="geometry" />
        </mxCell>
        <mxCell id="WNXv7E2quaEmnL9IHniY-4" value="Bastion Host" style="text;strokeColor=none;fillColor=none;align=left;verticalAlign=middle;spacingLeft=4;spacingRight=4;overflow=hidden;points=[[0,0.5],[1,0.5]];portConstraint=eastwest;rotatable=0;whiteSpace=wrap;html=1;" vertex="1" parent="WNXv7E2quaEmnL9IHniY-2">
          <mxGeometry x="250" y="170" width="80" height="30" as="geometry" />
        </mxCell>
        <mxCell id="WNXv7E2quaEmnL9IHniY-5" value="VPC" style="points=[[0,0],[0.25,0],[0.5,0],[0.75,0],[1,0],[1,0.25],[1,0.5],[1,0.75],[1,1],[0.75,1],[0.5,1],[0.25,1],[0,1],[0,0.75],[0,0.5],[0,0.25]];outlineConnect=0;gradientColor=none;html=1;whiteSpace=wrap;fontSize=12;fontStyle=0;container=1;pointerEvents=0;collapsible=0;recursiveResize=0;shape=mxgraph.aws4.group;grIcon=mxgraph.aws4.group_vpc;strokeColor=#248814;fillColor=none;verticalAlign=top;align=left;spacingLeft=30;fontColor=#AAB7B8;dashed=0;" vertex="1" parent="WNXv7E2quaEmnL9IHniY-2">
          <mxGeometry x="50" y="30" width="600" height="840" as="geometry" />
        </mxCell>
        <mxCell id="WNXv7E2quaEmnL9IHniY-6" value="Public subnet" style="points=[[0,0],[0.25,0],[0.5,0],[0.75,0],[1,0],[1,0.25],[1,0.5],[1,0.75],[1,1],[0.75,1],[0.5,1],[0.25,1],[0,1],[0,0.75],[0,0.5],[0,0.25]];outlineConnect=0;gradientColor=none;html=1;whiteSpace=wrap;fontSize=12;fontStyle=0;container=1;pointerEvents=0;collapsible=0;recursiveResize=0;shape=mxgraph.aws4.group;grIcon=mxgraph.aws4.group_security_group;grStroke=0;strokeColor=#248814;fillColor=#E9F3E6;verticalAlign=top;align=left;spacingLeft=30;fontColor=#248814;dashed=0;" vertex="1" parent="WNXv7E2quaEmnL9IHniY-5">
          <mxGeometry x="180" y="70" width="240" height="130" as="geometry" />
        </mxCell>
        <mxCell id="WNXv7E2quaEmnL9IHniY-7" value="" style="verticalLabelPosition=bottom;html=1;verticalAlign=top;strokeWidth=1;align=center;outlineConnect=0;dashed=0;outlineConnect=0;shape=mxgraph.aws3d.application_server;fillColor=#ECECEC;strokeColor=#5E5E5E;aspect=fixed;" vertex="1" parent="WNXv7E2quaEmnL9IHniY-6">
          <mxGeometry x="148" y="30" width="36.7" height="37" as="geometry" />
        </mxCell>
        <mxCell id="WNXv7E2quaEmnL9IHniY-8" value="" style="endArrow=classic;startArrow=classic;html=1;rounded=0;exitX=1;exitY=0.5;exitDx=0;exitDy=0;exitPerimeter=0;" edge="1" parent="WNXv7E2quaEmnL9IHniY-6" source="WNXv7E2quaEmnL9IHniY-10">
          <mxGeometry width="50" height="50" relative="1" as="geometry">
            <mxPoint x="55" y="52" as="sourcePoint" />
            <mxPoint x="105" y="2" as="targetPoint" />
          </mxGeometry>
        </mxCell>
        <mxCell id="WNXv7E2quaEmnL9IHniY-9" value="Private subnet" style="points=[[0,0],[0.25,0],[0.5,0],[0.75,0],[1,0],[1,0.25],[1,0.5],[1,0.75],[1,1],[0.75,1],[0.5,1],[0.25,1],[0,1],[0,0.75],[0,0.5],[0,0.25]];outlineConnect=0;gradientColor=none;html=1;whiteSpace=wrap;fontSize=12;fontStyle=0;container=1;pointerEvents=0;collapsible=0;recursiveResize=0;shape=mxgraph.aws4.group;grIcon=mxgraph.aws4.group_security_group;grStroke=0;strokeColor=#147EBA;fillColor=#E6F2F8;verticalAlign=top;align=left;spacingLeft=30;fontColor=#147EBA;dashed=0;" vertex="1" parent="WNXv7E2quaEmnL9IHniY-5">
          <mxGeometry x="180" y="230" width="240" height="130" as="geometry" />
        </mxCell>
        <mxCell id="WNXv7E2quaEmnL9IHniY-10" value="" style="sketch=0;points=[[0,0,0],[0.25,0,0],[0.5,0,0],[0.75,0,0],[1,0,0],[0,1,0],[0.25,1,0],[0.5,1,0],[0.75,1,0],[1,1,0],[0,0.25,0],[0,0.5,0],[0,0.75,0],[1,0.25,0],[1,0.5,0],[1,0.75,0]];outlineConnect=0;fontColor=#232F3E;gradientColor=#F78E04;gradientDirection=north;fillColor=#D05C17;strokeColor=#ffffff;dashed=0;verticalLabelPosition=bottom;verticalAlign=top;align=center;html=1;fontSize=12;fontStyle=0;aspect=fixed;shape=mxgraph.aws4.resourceIcon;resIcon=mxgraph.aws4.ec2;" vertex="1" parent="WNXv7E2quaEmnL9IHniY-9">
          <mxGeometry x="45" y="40" width="40" height="40" as="geometry" />
        </mxCell>
        <mxCell id="WNXv7E2quaEmnL9IHniY-11" value="" style="sketch=0;points=[[0,0,0],[0.25,0,0],[0.5,0,0],[0.75,0,0],[1,0,0],[0,1,0],[0.25,1,0],[0.5,1,0],[0.75,1,0],[1,1,0],[0,0.25,0],[0,0.5,0],[0,0.75,0],[1,0.25,0],[1,0.5,0],[1,0.75,0]];outlineConnect=0;fontColor=#232F3E;gradientColor=#F78E04;gradientDirection=north;fillColor=#D05C17;strokeColor=#ffffff;dashed=0;verticalLabelPosition=bottom;verticalAlign=top;align=center;html=1;fontSize=12;fontStyle=0;aspect=fixed;shape=mxgraph.aws4.resourceIcon;resIcon=mxgraph.aws4.ec2;" vertex="1" parent="WNXv7E2quaEmnL9IHniY-9">
          <mxGeometry x="130" y="40" width="40" height="40" as="geometry" />
        </mxCell>
        <mxCell id="WNXv7E2quaEmnL9IHniY-12" value="Private subnet" style="points=[[0,0],[0.25,0],[0.5,0],[0.75,0],[1,0],[1,0.25],[1,0.5],[1,0.75],[1,1],[0.75,1],[0.5,1],[0.25,1],[0,1],[0,0.75],[0,0.5],[0,0.25]];outlineConnect=0;gradientColor=none;html=1;whiteSpace=wrap;fontSize=12;fontStyle=0;container=1;pointerEvents=0;collapsible=0;recursiveResize=0;shape=mxgraph.aws4.group;grIcon=mxgraph.aws4.group_security_group;grStroke=0;strokeColor=#147EBA;fillColor=#E6F2F8;verticalAlign=top;align=left;spacingLeft=30;fontColor=#147EBA;dashed=0;" vertex="1" parent="WNXv7E2quaEmnL9IHniY-5">
          <mxGeometry x="180" y="400" width="240" height="130" as="geometry" />
        </mxCell>
        <mxCell id="WNXv7E2quaEmnL9IHniY-13" value="" style="sketch=0;points=[[0,0,0],[0.25,0,0],[0.5,0,0],[0.75,0,0],[1,0,0],[0,1,0],[0.25,1,0],[0.5,1,0],[0.75,1,0],[1,1,0],[0,0.25,0],[0,0.5,0],[0,0.75,0],[1,0.25,0],[1,0.5,0],[1,0.75,0]];outlineConnect=0;fontColor=#232F3E;gradientColor=#F78E04;gradientDirection=north;fillColor=#D05C17;strokeColor=#ffffff;dashed=0;verticalLabelPosition=bottom;verticalAlign=top;align=center;html=1;fontSize=12;fontStyle=0;aspect=fixed;shape=mxgraph.aws4.resourceIcon;resIcon=mxgraph.aws4.ec2;" vertex="1" parent="WNXv7E2quaEmnL9IHniY-12">
          <mxGeometry x="60" y="45" width="40" height="40" as="geometry" />
        </mxCell>
        <mxCell id="WNXv7E2quaEmnL9IHniY-14" value="RDS" style="text;html=1;strokeColor=none;fillColor=none;align=center;verticalAlign=middle;whiteSpace=wrap;rounded=0;" vertex="1" parent="WNXv7E2quaEmnL9IHniY-12">
          <mxGeometry x="71" y="80" width="40" height="30" as="geometry" />
        </mxCell>
        <mxCell id="WNXv7E2quaEmnL9IHniY-15" value="" style="sketch=0;outlineConnect=0;fontColor=#232F3E;gradientColor=none;fillColor=#4D27AA;strokeColor=none;dashed=0;verticalLabelPosition=bottom;verticalAlign=top;align=center;html=1;fontSize=12;fontStyle=0;aspect=fixed;pointerEvents=1;shape=mxgraph.aws4.internet_gateway;" vertex="1" parent="WNXv7E2quaEmnL9IHniY-5">
          <mxGeometry x="281" y="-20" width="38" height="38" as="geometry" />
        </mxCell>
        <mxCell id="WNXv7E2quaEmnL9IHniY-16" value="" style="outlineConnect=0;dashed=0;verticalLabelPosition=bottom;verticalAlign=top;align=center;html=1;shape=mxgraph.aws3.application_load_balancer;fillColor=#F58536;gradientColor=none;" vertex="1" parent="WNXv7E2quaEmnL9IHniY-5">
          <mxGeometry x="281" y="40" width="30" height="32" as="geometry" />
        </mxCell>
        <mxCell id="WNXv7E2quaEmnL9IHniY-17" value="" style="endArrow=classic;startArrow=classic;html=1;rounded=0;" edge="1" parent="WNXv7E2quaEmnL9IHniY-5" source="WNXv7E2quaEmnL9IHniY-13">
          <mxGeometry width="50" height="50" relative="1" as="geometry">
            <mxPoint x="351" y="468" as="sourcePoint" />
            <mxPoint x="319" y="280" as="targetPoint" />
          </mxGeometry>
        </mxCell>
        <mxCell id="WNXv7E2quaEmnL9IHniY-18" value="" style="endArrow=classic;startArrow=classic;html=1;rounded=0;" edge="1" parent="WNXv7E2quaEmnL9IHniY-5">
          <mxGeometry width="50" height="50" relative="1" as="geometry">
            <mxPoint x="271" y="458" as="sourcePoint" />
            <mxPoint x="239" y="270" as="targetPoint" />
          </mxGeometry>
        </mxCell>
        <mxCell id="WNXv7E2quaEmnL9IHniY-19" value="" style="verticalLabelPosition=bottom;html=1;verticalAlign=top;align=center;strokeColor=none;fillColor=#00BEF2;shape=mxgraph.azure.mysql_database;" vertex="1" parent="WNXv7E2quaEmnL9IHniY-5">
          <mxGeometry x="410" y="100" width="20" height="30" as="geometry" />
        </mxCell>
        <mxCell id="WNXv7E2quaEmnL9IHniY-20" value="" style="edgeStyle=orthogonalEdgeStyle;rounded=0;orthogonalLoop=1;jettySize=auto;html=1;entryX=1;entryY=0;entryDx=0;entryDy=0;" edge="1" parent="WNXv7E2quaEmnL9IHniY-2" source="WNXv7E2quaEmnL9IHniY-21" target="WNXv7E2quaEmnL9IHniY-14">
          <mxGeometry relative="1" as="geometry">
            <Array as="points">
              <mxPoint x="450" y="185" />
              <mxPoint x="450" y="510" />
            </Array>
          </mxGeometry>
        </mxCell>
        <mxCell id="WNXv7E2quaEmnL9IHniY-21" value="Bastion Host" style="text;html=1;strokeColor=none;fillColor=none;align=center;verticalAlign=middle;whiteSpace=wrap;rounded=0;" vertex="1" parent="WNXv7E2quaEmnL9IHniY-2">
          <mxGeometry x="378" y="170" width="40" height="30" as="geometry" />
        </mxCell>
        <mxCell id="WNXv7E2quaEmnL9IHniY-22" value="" style="sketch=0;outlineConnect=0;fontColor=#232F3E;gradientColor=none;fillColor=#4D27AA;strokeColor=none;dashed=0;verticalLabelPosition=bottom;verticalAlign=top;align=center;html=1;fontSize=12;fontStyle=0;aspect=fixed;pointerEvents=1;shape=mxgraph.aws4.route_53_resolver_dns_firewall;" vertex="1" parent="WNXv7E2quaEmnL9IHniY-2">
          <mxGeometry x="378" y="2" width="28" height="28" as="geometry" />
        </mxCell>
        <mxCell id="WNXv7E2quaEmnL9IHniY-23" value="Auto Scaling Group" style="sketch=0;outlineConnect=0;gradientColor=none;html=1;whiteSpace=wrap;fontSize=12;fontStyle=0;shape=mxgraph.aws4.groupCenter;grIcon=mxgraph.aws4.group_auto_scaling_group;grStroke=0;strokeColor=#879196;fillColor=#ECEFEF;verticalAlign=top;align=center;fontColor=#879196;dashed=0;spacingTop=25;" vertex="1" parent="WNXv7E2quaEmnL9IHniY-2">
          <mxGeometry x="320" y="230" width="40" height="20" as="geometry" />
        </mxCell>
        <mxCell id="WNXv7E2quaEmnL9IHniY-24" value="MySQL Workbench" style="text;html=1;strokeColor=none;fillColor=none;align=center;verticalAlign=middle;whiteSpace=wrap;rounded=0;" vertex="1" parent="WNXv7E2quaEmnL9IHniY-2">
          <mxGeometry x="460" y="160" width="50" height="30" as="geometry" />
        </mxCell>
        <mxCell id="WNXv7E2quaEmnL9IHniY-25" value="" style="endArrow=classic;startArrow=classic;html=1;rounded=0;" edge="1" parent="1" source="WNXv7E2quaEmnL9IHniY-11">
          <mxGeometry width="50" height="50" relative="1" as="geometry">
            <mxPoint x="425" y="50" as="sourcePoint" />
            <mxPoint x="465" y="-148" as="targetPoint" />
          </mxGeometry>
        </mxCell>
      </root>
    </mxGraphModel>
  </diagram>
  <diagram id="BUgw6SMP2_EWythYk80O" name="Bastion Host">
    <mxGraphModel dx="936" dy="522" grid="1" gridSize="10" guides="1" tooltips="1" connect="1" arrows="1" fold="1" page="1" pageScale="1" pageWidth="850" pageHeight="1100" math="0" shadow="0">
      <root>
        <mxCell id="0" />
        <mxCell id="1" parent="0" />
        <mxCell id="tYRyAeufGZNjQBaJ1hSC-1" value="Region" style="points=[[0,0],[0.25,0],[0.5,0],[0.75,0],[1,0],[1,0.25],[1,0.5],[1,0.75],[1,1],[0.75,1],[0.5,1],[0.25,1],[0,1],[0,0.75],[0,0.5],[0,0.25]];outlineConnect=0;gradientColor=none;html=1;whiteSpace=wrap;fontSize=12;fontStyle=0;container=1;pointerEvents=0;collapsible=0;recursiveResize=0;shape=mxgraph.aws4.group;grIcon=mxgraph.aws4.group_region;strokeColor=#147EBA;fillColor=none;verticalAlign=top;align=left;spacingLeft=30;fontColor=#147EBA;dashed=1;" vertex="1" parent="1">
          <mxGeometry x="130" y="130" width="640" height="670" as="geometry" />
        </mxCell>
        <mxCell id="tYRyAeufGZNjQBaJ1hSC-2" value="VPC" style="points=[[0,0],[0.25,0],[0.5,0],[0.75,0],[1,0],[1,0.25],[1,0.5],[1,0.75],[1,1],[0.75,1],[0.5,1],[0.25,1],[0,1],[0,0.75],[0,0.5],[0,0.25]];outlineConnect=0;gradientColor=none;html=1;whiteSpace=wrap;fontSize=12;fontStyle=0;container=1;pointerEvents=0;collapsible=0;recursiveResize=0;shape=mxgraph.aws4.group;grIcon=mxgraph.aws4.group_vpc;strokeColor=#248814;fillColor=none;verticalAlign=top;align=left;spacingLeft=30;fontColor=#AAB7B8;dashed=0;strokeWidth=3;" vertex="1" parent="tYRyAeufGZNjQBaJ1hSC-1">
          <mxGeometry x="45" y="80" width="550" height="590" as="geometry" />
        </mxCell>
        <mxCell id="tYRyAeufGZNjQBaJ1hSC-3" value="&#xa;&lt;span style=&quot;color: rgb(0, 0, 0); font-family: Helvetica; font-size: 12px; font-style: normal; font-variant-ligatures: normal; font-variant-caps: normal; font-weight: 400; letter-spacing: normal; orphans: 2; text-align: left; text-indent: 0px; text-transform: none; widows: 2; word-spacing: 0px; -webkit-text-stroke-width: 0px; background-color: rgb(255, 255, 255); text-decoration-thickness: initial; text-decoration-style: initial; text-decoration-color: initial; float: none; display: inline !important;&quot;&gt;Admin user&lt;/span&gt;&#xa;&#xa;" style="sketch=0;outlineConnect=0;gradientColor=none;html=1;whiteSpace=wrap;fontSize=12;fontStyle=0;shape=mxgraph.aws4.group;grIcon=mxgraph.aws4.group_availability_zone;strokeColor=#545B64;fillColor=none;verticalAlign=top;align=left;spacingLeft=30;fontColor=#545B64;dashed=1;" vertex="1" parent="tYRyAeufGZNjQBaJ1hSC-2">
          <mxGeometry x="30" y="40" width="490" height="470" as="geometry" />
        </mxCell>
        <mxCell id="tYRyAeufGZNjQBaJ1hSC-4" value="Public subnet" style="points=[[0,0],[0.25,0],[0.5,0],[0.75,0],[1,0],[1,0.25],[1,0.5],[1,0.75],[1,1],[0.75,1],[0.5,1],[0.25,1],[0,1],[0,0.75],[0,0.5],[0,0.25]];outlineConnect=0;gradientColor=none;html=1;whiteSpace=wrap;fontSize=12;fontStyle=0;container=1;pointerEvents=0;collapsible=0;recursiveResize=0;shape=mxgraph.aws4.group;grIcon=mxgraph.aws4.group_security_group;grStroke=0;strokeColor=#248814;fillColor=#E9F3E6;verticalAlign=top;align=left;spacingLeft=30;fontColor=#248814;dashed=0;" vertex="1" parent="tYRyAeufGZNjQBaJ1hSC-2">
          <mxGeometry x="190" y="60" width="135" height="120.00146074060603" as="geometry" />
        </mxCell>
        <mxCell id="tYRyAeufGZNjQBaJ1hSC-5" value="" style="verticalLabelPosition=bottom;html=1;verticalAlign=top;strokeWidth=1;align=center;outlineConnect=0;dashed=0;outlineConnect=0;shape=mxgraph.aws3d.application_server;fillColor=#ECECEC;strokeColor=#5E5E5E;aspect=fixed;" vertex="1" parent="tYRyAeufGZNjQBaJ1hSC-4">
          <mxGeometry x="3.1999999999999886" y="74" width="33.72" height="34" as="geometry" />
        </mxCell>
        <mxCell id="tYRyAeufGZNjQBaJ1hSC-6" value="&lt;font style=&quot;font-size: 8px;&quot;&gt;Bastion Host&lt;/font&gt;" style="edgeLabel;resizable=0;html=1;align=left;verticalAlign=bottom;" connectable="0" vertex="1" parent="tYRyAeufGZNjQBaJ1hSC-4">
          <mxGeometry x="-15.00404204581389" y="120.00146074060603" as="geometry" />
        </mxCell>
        <mxCell id="tYRyAeufGZNjQBaJ1hSC-7" value="Private subnet" style="points=[[0,0],[0.25,0],[0.5,0],[0.75,0],[1,0],[1,0.25],[1,0.5],[1,0.75],[1,1],[0.75,1],[0.5,1],[0.25,1],[0,1],[0,0.75],[0,0.5],[0,0.25]];outlineConnect=0;gradientColor=none;html=1;whiteSpace=wrap;fontSize=12;fontStyle=0;container=1;pointerEvents=0;collapsible=0;recursiveResize=0;shape=mxgraph.aws4.group;grIcon=mxgraph.aws4.group_security_group;grStroke=0;strokeColor=#147EBA;fillColor=#E6F2F8;verticalAlign=top;align=left;spacingLeft=30;fontColor=#147EBA;dashed=0;" vertex="1" parent="tYRyAeufGZNjQBaJ1hSC-2">
          <mxGeometry x="190" y="200" width="148" height="130" as="geometry" />
        </mxCell>
        <mxCell id="tYRyAeufGZNjQBaJ1hSC-8" value="" style="image;html=1;image=img/lib/clip_art/computers/Database_128x128.png" vertex="1" parent="tYRyAeufGZNjQBaJ1hSC-7">
          <mxGeometry x="35" y="60" width="60" height="40" as="geometry" />
        </mxCell>
        <mxCell id="tYRyAeufGZNjQBaJ1hSC-9" value="Route table" style="sketch=0;outlineConnect=0;fontColor=#232F3E;gradientColor=none;strokeColor=#232F3E;fillColor=#ffffff;dashed=0;verticalLabelPosition=bottom;verticalAlign=top;align=center;html=1;fontSize=12;fontStyle=0;aspect=fixed;shape=mxgraph.aws4.resourceIcon;resIcon=mxgraph.aws4.route_table;" vertex="1" parent="tYRyAeufGZNjQBaJ1hSC-7">
          <mxGeometry x="120" y="10" width="28" height="28" as="geometry" />
        </mxCell>
        <mxCell id="tYRyAeufGZNjQBaJ1hSC-10" value="Private subnet" style="points=[[0,0],[0.25,0],[0.5,0],[0.75,0],[1,0],[1,0.25],[1,0.5],[1,0.75],[1,1],[0.75,1],[0.5,1],[0.25,1],[0,1],[0,0.75],[0,0.5],[0,0.25]];outlineConnect=0;gradientColor=none;html=1;whiteSpace=wrap;fontSize=12;fontStyle=0;container=1;pointerEvents=0;collapsible=0;recursiveResize=0;shape=mxgraph.aws4.group;grIcon=mxgraph.aws4.group_security_group;grStroke=0;strokeColor=#147EBA;fillColor=#E6F2F8;verticalAlign=top;align=left;spacingLeft=30;fontColor=#147EBA;dashed=0;" vertex="1" parent="tYRyAeufGZNjQBaJ1hSC-2">
          <mxGeometry x="190" y="350" width="158" height="130" as="geometry" />
        </mxCell>
        <mxCell id="tYRyAeufGZNjQBaJ1hSC-11" value="" style="image;html=1;image=img/lib/clip_art/computers/Database_128x128.png" vertex="1" parent="tYRyAeufGZNjQBaJ1hSC-10">
          <mxGeometry x="35" y="70" width="60" height="40" as="geometry" />
        </mxCell>
        <mxCell id="tYRyAeufGZNjQBaJ1hSC-12" value="" style="image;sketch=0;aspect=fixed;html=1;points=[];align=center;fontSize=12;image=img/lib/mscae/Network_Security_Groups_Classic.svg;" vertex="1" parent="tYRyAeufGZNjQBaJ1hSC-10">
          <mxGeometry x="33.69999999999999" y="55" width="14.8" height="20" as="geometry" />
        </mxCell>
        <mxCell id="tYRyAeufGZNjQBaJ1hSC-13" value="Route table" style="sketch=0;outlineConnect=0;fontColor=#232F3E;gradientColor=none;strokeColor=#232F3E;fillColor=#ffffff;dashed=0;verticalLabelPosition=bottom;verticalAlign=top;align=center;html=1;fontSize=12;fontStyle=0;aspect=fixed;shape=mxgraph.aws4.resourceIcon;resIcon=mxgraph.aws4.route_table;" vertex="1" parent="tYRyAeufGZNjQBaJ1hSC-10">
          <mxGeometry x="130" y="27" width="28" height="28" as="geometry" />
        </mxCell>
        <mxCell id="tYRyAeufGZNjQBaJ1hSC-14" value="" style="sketch=0;outlineConnect=0;fontColor=#232F3E;gradientColor=none;fillColor=#4D27AA;strokeColor=none;dashed=0;verticalLabelPosition=bottom;verticalAlign=top;align=center;html=1;fontSize=12;fontStyle=0;aspect=fixed;pointerEvents=1;shape=mxgraph.aws4.nat_gateway;" vertex="1" parent="tYRyAeufGZNjQBaJ1hSC-2">
          <mxGeometry x="290" y="140" width="28" height="28" as="geometry" />
        </mxCell>
        <mxCell id="tYRyAeufGZNjQBaJ1hSC-15" value="" style="sketch=0;outlineConnect=0;fontColor=#232F3E;gradientColor=none;fillColor=#B0084D;strokeColor=none;dashed=0;verticalLabelPosition=bottom;verticalAlign=top;align=center;html=1;fontSize=12;fontStyle=0;aspect=fixed;pointerEvents=1;shape=mxgraph.aws4.endpoint;" vertex="1" parent="tYRyAeufGZNjQBaJ1hSC-2">
          <mxGeometry x="330" y="520" width="30" height="30" as="geometry" />
        </mxCell>
        <mxCell id="tYRyAeufGZNjQBaJ1hSC-16" value="" style="sketch=0;outlineConnect=0;fontColor=#232F3E;gradientColor=none;fillColor=#3F8624;strokeColor=none;dashed=0;verticalLabelPosition=bottom;verticalAlign=top;align=center;html=1;fontSize=12;fontStyle=0;aspect=fixed;pointerEvents=1;shape=mxgraph.aws4.bucket_with_objects;" vertex="1" parent="tYRyAeufGZNjQBaJ1hSC-2">
          <mxGeometry x="200" y="530" width="26.92" height="28" as="geometry" />
        </mxCell>
        <mxCell id="tYRyAeufGZNjQBaJ1hSC-17" value="" style="endArrow=classic;startArrow=classic;html=1;rounded=0;exitX=0.743;exitY=0.357;exitDx=0;exitDy=0;exitPerimeter=0;" edge="1" parent="tYRyAeufGZNjQBaJ1hSC-2" source="tYRyAeufGZNjQBaJ1hSC-16" target="tYRyAeufGZNjQBaJ1hSC-15">
          <mxGeometry width="50" height="50" relative="1" as="geometry">
            <mxPoint x="255" y="569" as="sourcePoint" />
            <mxPoint x="305" y="519" as="targetPoint" />
          </mxGeometry>
        </mxCell>
        <mxCell id="tYRyAeufGZNjQBaJ1hSC-18" value="&lt;font style=&quot;font-size: 8px;&quot;&gt;S3 Bucket&lt;/font&gt;" style="edgeLabel;resizable=0;html=1;align=left;verticalAlign=bottom;" connectable="0" vertex="1" parent="tYRyAeufGZNjQBaJ1hSC-2">
          <mxGeometry x="199.9959579541861" y="580.001460740606" as="geometry" />
        </mxCell>
        <mxCell id="tYRyAeufGZNjQBaJ1hSC-19" value="&lt;font style=&quot;font-size: 8px;&quot;&gt;Gateway Endpoint&lt;/font&gt;" style="edgeLabel;resizable=0;html=1;align=left;verticalAlign=bottom;" connectable="0" vertex="1" parent="tYRyAeufGZNjQBaJ1hSC-2">
          <mxGeometry x="324.9959579541861" y="570.001460740606" as="geometry" />
        </mxCell>
        <mxCell id="tYRyAeufGZNjQBaJ1hSC-20" value="&lt;font style=&quot;font-size: 8px;&quot;&gt;NAT Gateway&lt;/font&gt;" style="edgeLabel;resizable=0;html=1;align=left;verticalAlign=bottom;" connectable="0" vertex="1" parent="tYRyAeufGZNjQBaJ1hSC-2">
          <mxGeometry x="279.9959579541861" y="190.00146074060603" as="geometry" />
        </mxCell>
        <mxCell id="tYRyAeufGZNjQBaJ1hSC-21" value="" style="sketch=0;outlineConnect=0;fontColor=#232F3E;gradientColor=none;fillColor=#4D27AA;strokeColor=none;dashed=0;verticalLabelPosition=bottom;verticalAlign=top;align=center;html=1;fontSize=12;fontStyle=0;aspect=fixed;pointerEvents=1;shape=mxgraph.aws4.internet_gateway;" vertex="1" parent="tYRyAeufGZNjQBaJ1hSC-2">
          <mxGeometry x="238.5" y="-20" width="38" height="38" as="geometry" />
        </mxCell>
        <mxCell id="tYRyAeufGZNjQBaJ1hSC-22" value="&lt;font style=&quot;font-size: 8px;&quot;&gt;Internet Gateway&lt;/font&gt;" style="edgeLabel;resizable=0;html=1;align=left;verticalAlign=bottom;" connectable="0" vertex="1" parent="tYRyAeufGZNjQBaJ1hSC-2">
          <mxGeometry x="257.4959579541861" y="30.001460740606035" as="geometry" />
        </mxCell>
        <mxCell id="tYRyAeufGZNjQBaJ1hSC-23" value="" style="endArrow=classic;startArrow=classic;html=1;rounded=0;" edge="1" parent="tYRyAeufGZNjQBaJ1hSC-2" source="tYRyAeufGZNjQBaJ1hSC-25" target="tYRyAeufGZNjQBaJ1hSC-14">
          <mxGeometry width="50" height="50" relative="1" as="geometry">
            <mxPoint x="257.5" y="14.5" as="sourcePoint" />
            <mxPoint x="329.5" y="-16.5" as="targetPoint" />
          </mxGeometry>
        </mxCell>
        <mxCell id="tYRyAeufGZNjQBaJ1hSC-24" value="" style="endArrow=classic;startArrow=classic;html=1;rounded=0;" edge="1" parent="tYRyAeufGZNjQBaJ1hSC-2" source="tYRyAeufGZNjQBaJ1hSC-21" target="tYRyAeufGZNjQBaJ1hSC-25">
          <mxGeometry width="50" height="50" relative="1" as="geometry">
            <mxPoint x="372.5" y="154.5" as="sourcePoint" />
            <mxPoint x="414" y="280" as="targetPoint" />
          </mxGeometry>
        </mxCell>
        <mxCell id="tYRyAeufGZNjQBaJ1hSC-25" value="Route table" style="sketch=0;outlineConnect=0;fontColor=#232F3E;gradientColor=none;strokeColor=#232F3E;fillColor=#ffffff;dashed=0;verticalLabelPosition=bottom;verticalAlign=top;align=center;html=1;fontSize=12;fontStyle=0;aspect=fixed;shape=mxgraph.aws4.resourceIcon;resIcon=mxgraph.aws4.route_table;" vertex="1" parent="tYRyAeufGZNjQBaJ1hSC-2">
          <mxGeometry x="260" y="50" width="23" height="23" as="geometry" />
        </mxCell>
        <mxCell id="tYRyAeufGZNjQBaJ1hSC-26" value="" style="endArrow=classic;html=1;rounded=0;entryX=0.62;entryY=0.133;entryDx=0;entryDy=0;entryPerimeter=0;" edge="1" parent="tYRyAeufGZNjQBaJ1hSC-2" source="tYRyAeufGZNjQBaJ1hSC-30" target="tYRyAeufGZNjQBaJ1hSC-8">
          <mxGeometry width="50" height="50" relative="1" as="geometry">
            <mxPoint x="285" y="250" as="sourcePoint" />
            <mxPoint x="335" y="200" as="targetPoint" />
          </mxGeometry>
        </mxCell>
        <mxCell id="tYRyAeufGZNjQBaJ1hSC-27" value="" style="endArrow=classic;html=1;rounded=0;entryX=0.5;entryY=0;entryDx=0;entryDy=0;" edge="1" parent="tYRyAeufGZNjQBaJ1hSC-2" source="tYRyAeufGZNjQBaJ1hSC-5" target="tYRyAeufGZNjQBaJ1hSC-11">
          <mxGeometry width="50" height="50" relative="1" as="geometry">
            <mxPoint x="285" y="250" as="sourcePoint" />
            <mxPoint x="335" y="200" as="targetPoint" />
          </mxGeometry>
        </mxCell>
        <mxCell id="tYRyAeufGZNjQBaJ1hSC-28" value="" style="image;sketch=0;aspect=fixed;html=1;points=[];align=center;fontSize=12;image=img/lib/mscae/Network_Security_Groups_Classic.svg;" vertex="1" parent="tYRyAeufGZNjQBaJ1hSC-2">
          <mxGeometry x="171.5" y="130" width="18.5" height="25" as="geometry" />
        </mxCell>
        <mxCell id="tYRyAeufGZNjQBaJ1hSC-29" value="&lt;font style=&quot;font-size: 8px;&quot;&gt;SG&lt;/font&gt;" style="edgeLabel;resizable=0;html=1;align=left;verticalAlign=bottom;" connectable="0" vertex="1" parent="tYRyAeufGZNjQBaJ1hSC-2">
          <mxGeometry x="171.4959579541861" y="130.00146074060603" as="geometry" />
        </mxCell>
        <mxCell id="tYRyAeufGZNjQBaJ1hSC-30" value="" style="image;sketch=0;aspect=fixed;html=1;points=[];align=center;fontSize=12;image=img/lib/mscae/Network_Security_Groups_Classic.svg;" vertex="1" parent="tYRyAeufGZNjQBaJ1hSC-2">
          <mxGeometry x="235" y="235" width="18.5" height="25" as="geometry" />
        </mxCell>
        <mxCell id="tYRyAeufGZNjQBaJ1hSC-31" value="" style="endArrow=classic;html=1;rounded=0;entryX=0.62;entryY=0.133;entryDx=0;entryDy=0;entryPerimeter=0;" edge="1" parent="tYRyAeufGZNjQBaJ1hSC-2" source="tYRyAeufGZNjQBaJ1hSC-5" target="tYRyAeufGZNjQBaJ1hSC-30">
          <mxGeometry width="50" height="50" relative="1" as="geometry">
            <mxPoint x="333" y="308" as="sourcePoint" />
            <mxPoint x="377" y="405" as="targetPoint" />
          </mxGeometry>
        </mxCell>
        <mxCell id="tYRyAeufGZNjQBaJ1hSC-32" value="&lt;font style=&quot;font-size: 8px;&quot;&gt;SG&lt;/font&gt;" style="edgeLabel;resizable=0;html=1;align=left;verticalAlign=bottom;" connectable="0" vertex="1" parent="tYRyAeufGZNjQBaJ1hSC-2">
          <mxGeometry x="289.9959579541861" y="140.00146074060603" as="geometry">
            <mxPoint x="-44" y="109" as="offset" />
          </mxGeometry>
        </mxCell>
        <mxCell id="tYRyAeufGZNjQBaJ1hSC-33" value="Actor" style="shape=umlActor;verticalLabelPosition=bottom;verticalAlign=top;html=1;outlineConnect=0;" vertex="1" parent="tYRyAeufGZNjQBaJ1hSC-2">
          <mxGeometry x="65" y="150" width="20" height="20" as="geometry" />
        </mxCell>
        <mxCell id="tYRyAeufGZNjQBaJ1hSC-34" value="Admin user" style="edgeLabel;resizable=0;html=1;align=left;verticalAlign=bottom;fontSize=12;" connectable="0" vertex="1" parent="tYRyAeufGZNjQBaJ1hSC-2">
          <mxGeometry x="44.99595795418611" y="190.00146074060603" as="geometry" />
        </mxCell>
        <mxCell id="tYRyAeufGZNjQBaJ1hSC-35" value="" style="endArrow=classic;html=1;rounded=0;entryX=0.738;entryY=1.117;entryDx=0;entryDy=0;entryPerimeter=0;" edge="1" parent="tYRyAeufGZNjQBaJ1hSC-2" source="tYRyAeufGZNjQBaJ1hSC-36" target="tYRyAeufGZNjQBaJ1hSC-28">
          <mxGeometry width="50" height="50" relative="1" as="geometry">
            <mxPoint x="95" y="168" as="sourcePoint" />
            <mxPoint x="145" y="118" as="targetPoint" />
          </mxGeometry>
        </mxCell>
        <mxCell id="tYRyAeufGZNjQBaJ1hSC-36" value="" style="sketch=0;points=[[0,0,0],[0.25,0,0],[0.5,0,0],[0.75,0,0],[1,0,0],[0,1,0],[0.25,1,0],[0.5,1,0],[0.75,1,0],[1,1,0],[0,0.25,0],[0,0.5,0],[0,0.75,0],[1,0.25,0],[1,0.5,0],[1,0.75,0]];outlineConnect=0;fontColor=#232F3E;gradientColor=#945DF2;gradientDirection=north;fillColor=#5A30B5;strokeColor=#ffffff;dashed=0;verticalLabelPosition=bottom;verticalAlign=top;align=center;html=1;fontSize=12;fontStyle=0;aspect=fixed;shape=mxgraph.aws4.resourceIcon;resIcon=mxgraph.aws4.sql_workbench;" vertex="1" parent="tYRyAeufGZNjQBaJ1hSC-2">
          <mxGeometry x="115" y="150" width="23" height="23" as="geometry" />
        </mxCell>
        <mxCell id="tYRyAeufGZNjQBaJ1hSC-37" value="&lt;font style=&quot;font-size: 8px;&quot;&gt;SQL Workbench&lt;/font&gt;" style="edgeLabel;resizable=0;html=1;align=left;verticalAlign=bottom;" connectable="0" vertex="1" parent="tYRyAeufGZNjQBaJ1hSC-2">
          <mxGeometry x="99.99595795418611" y="154.00146074060603" as="geometry" />
        </mxCell>
        <mxCell id="tYRyAeufGZNjQBaJ1hSC-38" value="" style="endArrow=classic;html=1;rounded=0;entryX=0;entryY=0.5;entryDx=0;entryDy=0;entryPerimeter=0;" edge="1" parent="tYRyAeufGZNjQBaJ1hSC-2" source="tYRyAeufGZNjQBaJ1hSC-33" target="tYRyAeufGZNjQBaJ1hSC-36">
          <mxGeometry width="50" height="50" relative="1" as="geometry">
            <mxPoint x="190" y="300" as="sourcePoint" />
            <mxPoint x="112" y="168" as="targetPoint" />
          </mxGeometry>
        </mxCell>
        <mxCell id="tYRyAeufGZNjQBaJ1hSC-39" value="" style="endArrow=classic;html=1;rounded=0;" edge="1" parent="tYRyAeufGZNjQBaJ1hSC-2" source="tYRyAeufGZNjQBaJ1hSC-21" target="tYRyAeufGZNjQBaJ1hSC-5">
          <mxGeometry width="50" height="50" relative="1" as="geometry">
            <mxPoint x="285" y="250" as="sourcePoint" />
            <mxPoint x="335" y="200" as="targetPoint" />
          </mxGeometry>
        </mxCell>
        <mxCell id="tYRyAeufGZNjQBaJ1hSC-40" value="" style="sketch=0;outlineConnect=0;fontColor=#232F3E;gradientColor=none;fillColor=#4D27AA;strokeColor=none;dashed=0;verticalLabelPosition=bottom;verticalAlign=top;align=center;html=1;fontSize=12;fontStyle=0;aspect=fixed;pointerEvents=1;shape=mxgraph.aws4.route_53_resolver_dns_firewall;" vertex="1" parent="tYRyAeufGZNjQBaJ1hSC-1">
          <mxGeometry x="290" y="-10" width="38" height="38" as="geometry" />
        </mxCell>
        <mxCell id="tYRyAeufGZNjQBaJ1hSC-41" value="&lt;font style=&quot;font-size: 8px;&quot;&gt;DNS Route 53&lt;/font&gt;" style="edgeLabel;resizable=0;html=1;align=left;verticalAlign=bottom;" connectable="0" vertex="1" parent="tYRyAeufGZNjQBaJ1hSC-1">
          <mxGeometry x="308.9959579541861" y="40.001460740606035" as="geometry" />
        </mxCell>
        <mxCell id="tYRyAeufGZNjQBaJ1hSC-42" value="" style="endArrow=classic;startArrow=classic;html=1;rounded=0;" edge="1" parent="tYRyAeufGZNjQBaJ1hSC-1" source="tYRyAeufGZNjQBaJ1hSC-21">
          <mxGeometry width="50" height="50" relative="1" as="geometry">
            <mxPoint x="230" y="51" as="sourcePoint" />
            <mxPoint x="302" y="20" as="targetPoint" />
          </mxGeometry>
        </mxCell>
        <mxCell id="tYRyAeufGZNjQBaJ1hSC-43" value="" style="image;aspect=fixed;perimeter=ellipsePerimeter;html=1;align=center;shadow=0;dashed=0;spacingTop=3;image=img/lib/active_directory/internet_cloud.svg;" vertex="1" parent="1">
          <mxGeometry x="510" y="80" width="50" height="31.5" as="geometry" />
        </mxCell>
        <mxCell id="tYRyAeufGZNjQBaJ1hSC-44" value="" style="endArrow=classic;startArrow=classic;html=1;rounded=0;" edge="1" parent="1" source="tYRyAeufGZNjQBaJ1hSC-40">
          <mxGeometry width="50" height="50" relative="1" as="geometry">
            <mxPoint x="460" y="240" as="sourcePoint" />
            <mxPoint x="530" y="100" as="targetPoint" />
          </mxGeometry>
        </mxCell>
        <mxCell id="tYRyAeufGZNjQBaJ1hSC-45" value="&lt;font style=&quot;font-size: 8px;&quot;&gt;SG&lt;/font&gt;" style="edgeLabel;resizable=0;html=1;align=left;verticalAlign=bottom;" connectable="0" vertex="1" parent="1">
          <mxGeometry x="366.4959579541861" y="360.00146074060603" as="geometry">
            <mxPoint x="25" y="265" as="offset" />
          </mxGeometry>
        </mxCell>
        <mxCell id="tYRyAeufGZNjQBaJ1hSC-46" value="&#xa;&lt;span style=&quot;color: rgb(0, 0, 0); font-family: Helvetica; font-size: 12px; font-style: normal; font-variant-ligatures: normal; font-variant-caps: normal; font-weight: 400; letter-spacing: normal; orphans: 2; text-align: left; text-indent: 0px; text-transform: none; widows: 2; word-spacing: 0px; -webkit-text-stroke-width: 0px; background-color: rgb(255, 255, 255); text-decoration-thickness: initial; text-decoration-style: initial; text-decoration-color: initial; float: none; display: inline !important;&quot;&gt;Admin user&lt;/span&gt;&#xa;&#xa;" style="shape=umlActor;verticalLabelPosition=bottom;verticalAlign=top;html=1;outlineConnect=0;" vertex="1" parent="1">
          <mxGeometry x="465" y="860" width="20" height="20" as="geometry" />
        </mxCell>
        <mxCell id="tYRyAeufGZNjQBaJ1hSC-47" value="" style="shape=image;html=1;verticalAlign=top;verticalLabelPosition=bottom;labelBackgroundColor=#ffffff;imageAspect=0;aspect=fixed;image=https://cdn2.iconfinder.com/data/icons/crystalproject/128x128/apps/Session-Manager.png" vertex="1" parent="1">
          <mxGeometry x="465" y="820" width="28" height="28" as="geometry" />
        </mxCell>
        <mxCell id="tYRyAeufGZNjQBaJ1hSC-48" value="" style="endArrow=classic;html=1;rounded=0;exitX=0.5;exitY=0.5;exitDx=0;exitDy=0;exitPerimeter=0;" edge="1" parent="1" source="tYRyAeufGZNjQBaJ1hSC-46">
          <mxGeometry width="50" height="50" relative="1" as="geometry">
            <mxPoint x="460" y="680" as="sourcePoint" />
            <mxPoint x="480" y="830" as="targetPoint" />
          </mxGeometry>
        </mxCell>
        <mxCell id="tYRyAeufGZNjQBaJ1hSC-49" value="" style="endArrow=classic;startArrow=classic;html=1;rounded=0;" edge="1" parent="1">
          <mxGeometry width="50" height="50" relative="1" as="geometry">
            <mxPoint x="480" y="840" as="sourcePoint" />
            <mxPoint x="515" y="756" as="targetPoint" />
          </mxGeometry>
        </mxCell>
        <mxCell id="tYRyAeufGZNjQBaJ1hSC-50" value="&lt;font style=&quot;font-size: 8px;&quot;&gt;Session Manager&lt;/font&gt;" style="edgeLabel;resizable=0;html=1;align=left;verticalAlign=bottom;" connectable="0" vertex="1" parent="1">
          <mxGeometry x="478.9959579541861" y="848.001460740606" as="geometry" />
        </mxCell>
      </root>
    </mxGraphModel>
  </diagram>
  <diagram id="uBcrOMmQh_rrktaPW7Lo" name="DB Project">
    <mxGraphModel dx="936" dy="1622" grid="1" gridSize="10" guides="1" tooltips="1" connect="1" arrows="1" fold="1" page="1" pageScale="1" pageWidth="850" pageHeight="1100" math="0" shadow="0">
      <root>
        <mxCell id="0" />
        <mxCell id="1" parent="0" />
        <mxCell id="_CJY-n1weDHVDMnKZnRp-1" value="Region" style="points=[[0,0],[0.25,0],[0.5,0],[0.75,0],[1,0],[1,0.25],[1,0.5],[1,0.75],[1,1],[0.75,1],[0.5,1],[0.25,1],[0,1],[0,0.75],[0,0.5],[0,0.25]];outlineConnect=0;gradientColor=none;html=1;whiteSpace=wrap;fontSize=12;fontStyle=0;container=1;pointerEvents=0;collapsible=0;recursiveResize=0;shape=mxgraph.aws4.group;grIcon=mxgraph.aws4.group_region;strokeColor=#147EBA;fillColor=none;verticalAlign=top;align=left;spacingLeft=30;fontColor=#147EBA;dashed=1;" vertex="1" parent="1">
          <mxGeometry x="40" y="49" width="760" height="680" as="geometry" />
        </mxCell>
        <mxCell id="_CJY-n1weDHVDMnKZnRp-2" value="" style="sketch=0;outlineConnect=0;fontColor=#232F3E;gradientColor=none;fillColor=#4D27AA;strokeColor=none;dashed=0;verticalLabelPosition=bottom;verticalAlign=top;align=center;html=1;fontSize=12;fontStyle=0;aspect=fixed;pointerEvents=1;shape=mxgraph.aws4.internet_gateway;" vertex="1" parent="_CJY-n1weDHVDMnKZnRp-1">
          <mxGeometry x="366" y="30" width="28" height="28" as="geometry" />
        </mxCell>
        <mxCell id="_CJY-n1weDHVDMnKZnRp-3" value="" style="sketch=0;outlineConnect=0;fontColor=#232F3E;gradientColor=none;fillColor=#3F8624;strokeColor=none;dashed=0;verticalLabelPosition=bottom;verticalAlign=top;align=center;html=1;fontSize=12;fontStyle=0;aspect=fixed;pointerEvents=1;shape=mxgraph.aws4.bucket_with_objects;" vertex="1" parent="_CJY-n1weDHVDMnKZnRp-1">
          <mxGeometry x="540" y="640" width="26.92" height="28" as="geometry" />
        </mxCell>
        <mxCell id="_CJY-n1weDHVDMnKZnRp-4" value="GW Endpoint" style="edgeLabel;resizable=0;html=1;align=left;verticalAlign=bottom;" connectable="0" vertex="1" parent="_CJY-n1weDHVDMnKZnRp-1">
          <mxGeometry x="450" y="640" as="geometry" />
        </mxCell>
        <mxCell id="_CJY-n1weDHVDMnKZnRp-5" value="" style="sketch=0;outlineConnect=0;fontColor=#232F3E;gradientColor=none;fillColor=#4D27AA;strokeColor=none;dashed=0;verticalLabelPosition=bottom;verticalAlign=top;align=center;html=1;fontSize=12;fontStyle=0;aspect=fixed;pointerEvents=1;shape=mxgraph.aws4.endpoint;" vertex="1" parent="_CJY-n1weDHVDMnKZnRp-1">
          <mxGeometry x="470" y="600" width="28" height="28" as="geometry" />
        </mxCell>
        <mxCell id="_CJY-n1weDHVDMnKZnRp-6" value="S3 Bucket" style="edgeLabel;resizable=0;html=1;align=left;verticalAlign=bottom;" connectable="0" vertex="1" parent="_CJY-n1weDHVDMnKZnRp-1">
          <mxGeometry x="566.92" y="668" as="geometry" />
        </mxCell>
        <mxCell id="_CJY-n1weDHVDMnKZnRp-7" value="us-west-2" style="edgeLabel;resizable=0;html=1;align=left;verticalAlign=bottom;" connectable="0" vertex="1" parent="_CJY-n1weDHVDMnKZnRp-1">
          <mxGeometry x="70" y="30" as="geometry" />
        </mxCell>
        <mxCell id="_CJY-n1weDHVDMnKZnRp-8" value="VPC" style="points=[[0,0],[0.25,0],[0.5,0],[0.75,0],[1,0],[1,0.25],[1,0.5],[1,0.75],[1,1],[0.75,1],[0.5,1],[0.25,1],[0,1],[0,0.75],[0,0.5],[0,0.25]];outlineConnect=0;gradientColor=none;html=1;whiteSpace=wrap;fontSize=12;fontStyle=0;container=1;pointerEvents=0;collapsible=0;recursiveResize=0;shape=mxgraph.aws4.group;grIcon=mxgraph.aws4.group_vpc;strokeColor=#248814;fillColor=none;verticalAlign=top;align=left;spacingLeft=30;fontColor=#AAB7B8;dashed=0;" vertex="1" parent="1">
          <mxGeometry x="80" y="80" width="680" height="578" as="geometry" />
        </mxCell>
        <mxCell id="_CJY-n1weDHVDMnKZnRp-9" value="Availability Zone" style="fillColor=none;strokeColor=#147EBA;dashed=1;verticalAlign=top;fontStyle=0;fontColor=#147EBA;whiteSpace=wrap;html=1;" vertex="1" parent="_CJY-n1weDHVDMnKZnRp-8">
          <mxGeometry x="40" y="40" width="200" height="480" as="geometry" />
        </mxCell>
        <mxCell id="_CJY-n1weDHVDMnKZnRp-10" value="Availability Zone" style="fillColor=none;strokeColor=#147EBA;dashed=1;verticalAlign=top;fontStyle=0;fontColor=#147EBA;whiteSpace=wrap;html=1;" vertex="1" parent="_CJY-n1weDHVDMnKZnRp-8">
          <mxGeometry x="440" y="40" width="200" height="480" as="geometry" />
        </mxCell>
        <mxCell id="_CJY-n1weDHVDMnKZnRp-11" value="Private subnet" style="points=[[0,0],[0.25,0],[0.5,0],[0.75,0],[1,0],[1,0.25],[1,0.5],[1,0.75],[1,1],[0.75,1],[0.5,1],[0.25,1],[0,1],[0,0.75],[0,0.5],[0,0.25]];outlineConnect=0;gradientColor=none;html=1;whiteSpace=wrap;fontSize=12;fontStyle=0;container=1;pointerEvents=0;collapsible=0;recursiveResize=0;shape=mxgraph.aws4.group;grIcon=mxgraph.aws4.group_security_group;grStroke=0;strokeColor=#147EBA;fillColor=#E6F2F8;verticalAlign=top;align=left;spacingLeft=30;fontColor=#147EBA;dashed=0;" vertex="1" parent="_CJY-n1weDHVDMnKZnRp-8">
          <mxGeometry x="470" y="80" width="135" height="400" as="geometry" />
        </mxCell>
        <mxCell id="_CJY-n1weDHVDMnKZnRp-12" value="" style="image;aspect=fixed;perimeter=ellipsePerimeter;html=1;align=center;shadow=0;dashed=0;spacingTop=3;image=img/lib/active_directory/database_server.svg;" vertex="1" parent="_CJY-n1weDHVDMnKZnRp-11">
          <mxGeometry x="52.700000000000045" y="70" width="24.6" height="30" as="geometry" />
        </mxCell>
        <mxCell id="_CJY-n1weDHVDMnKZnRp-13" value="" style="image;sketch=0;aspect=fixed;html=1;points=[];align=center;fontSize=12;image=img/lib/mscae/Network_Security_Groups_Classic.svg;" vertex="1" parent="_CJY-n1weDHVDMnKZnRp-11">
          <mxGeometry x="37.120000000000005" y="55" width="14.8" height="20" as="geometry" />
        </mxCell>
        <mxCell id="_CJY-n1weDHVDMnKZnRp-14" value="" style="image;aspect=fixed;perimeter=ellipsePerimeter;html=1;align=center;shadow=0;dashed=0;spacingTop=3;image=img/lib/active_directory/database_server.svg;" vertex="1" parent="_CJY-n1weDHVDMnKZnRp-11">
          <mxGeometry x="42.12000000000005" y="290" width="24.6" height="30" as="geometry" />
        </mxCell>
        <mxCell id="_CJY-n1weDHVDMnKZnRp-15" value="" style="image;sketch=0;aspect=fixed;html=1;points=[];align=center;fontSize=12;image=img/lib/mscae/Network_Security_Groups_Classic.svg;" vertex="1" parent="_CJY-n1weDHVDMnKZnRp-11">
          <mxGeometry x="51.92" y="270" width="14.8" height="20" as="geometry" />
        </mxCell>
        <mxCell id="_CJY-n1weDHVDMnKZnRp-16" value="" style="endArrow=none;html=1;rounded=0;" edge="1" parent="_CJY-n1weDHVDMnKZnRp-11" source="_CJY-n1weDHVDMnKZnRp-3">
          <mxGeometry width="50" height="50" relative="1" as="geometry">
            <mxPoint x="2.7000000000000455" y="370" as="sourcePoint" />
            <mxPoint x="52.700000000000045" y="320" as="targetPoint" />
            <Array as="points">
              <mxPoint x="-20" y="500" />
            </Array>
          </mxGeometry>
        </mxCell>
        <mxCell id="_CJY-n1weDHVDMnKZnRp-17" value="Route table" style="sketch=0;outlineConnect=0;fontColor=#232F3E;gradientColor=none;strokeColor=#232F3E;fillColor=#ffffff;dashed=0;verticalLabelPosition=bottom;verticalAlign=top;align=center;html=1;fontSize=12;fontStyle=0;aspect=fixed;shape=mxgraph.aws4.resourceIcon;resIcon=mxgraph.aws4.route_table;" vertex="1" parent="_CJY-n1weDHVDMnKZnRp-11">
          <mxGeometry x="-10" y="140" width="30" height="30" as="geometry" />
        </mxCell>
        <mxCell id="_CJY-n1weDHVDMnKZnRp-18" value="" style="sketch=0;outlineConnect=0;fontColor=#232F3E;gradientColor=none;fillColor=#4D27AA;strokeColor=none;dashed=0;verticalLabelPosition=bottom;verticalAlign=top;align=center;html=1;fontSize=12;fontStyle=0;aspect=fixed;pointerEvents=1;shape=mxgraph.aws4.network_access_control_list;" vertex="1" parent="_CJY-n1weDHVDMnKZnRp-11">
          <mxGeometry x="-10" y="220" width="20" height="20" as="geometry" />
        </mxCell>
        <mxCell id="_CJY-n1weDHVDMnKZnRp-19" value="Public subnet" style="points=[[0,0],[0.25,0],[0.5,0],[0.75,0],[1,0],[1,0.25],[1,0.5],[1,0.75],[1,1],[0.75,1],[0.5,1],[0.25,1],[0,1],[0,0.75],[0,0.5],[0,0.25]];outlineConnect=0;gradientColor=none;html=1;whiteSpace=wrap;fontSize=12;fontStyle=0;container=1;pointerEvents=0;collapsible=0;recursiveResize=0;shape=mxgraph.aws4.group;grIcon=mxgraph.aws4.group_security_group;grStroke=0;strokeColor=#248814;fillColor=#E9F3E6;verticalAlign=top;align=left;spacingLeft=30;fontColor=#248814;dashed=0;" vertex="1" parent="_CJY-n1weDHVDMnKZnRp-8">
          <mxGeometry x="70" y="80" width="150" height="400" as="geometry" />
        </mxCell>
        <mxCell id="_CJY-n1weDHVDMnKZnRp-20" value="" style="sketch=0;outlineConnect=0;fontColor=#232F3E;gradientColor=none;fillColor=#4D27AA;strokeColor=none;dashed=0;verticalLabelPosition=bottom;verticalAlign=top;align=center;html=1;fontSize=12;fontStyle=0;aspect=fixed;pointerEvents=1;shape=mxgraph.aws4.nat_gateway;" vertex="1" parent="_CJY-n1weDHVDMnKZnRp-19">
          <mxGeometry x="102" y="70" width="28" height="28" as="geometry" />
        </mxCell>
        <mxCell id="_CJY-n1weDHVDMnKZnRp-21" value="" style="image;sketch=0;aspect=fixed;html=1;points=[];align=center;fontSize=12;image=img/lib/mscae/Network_Security_Groups_Classic.svg;" vertex="1" parent="_CJY-n1weDHVDMnKZnRp-19">
          <mxGeometry x="40" y="70" width="14.8" height="20" as="geometry" />
        </mxCell>
        <mxCell id="_CJY-n1weDHVDMnKZnRp-22" value="" style="sketch=0;points=[[0,0,0],[0.25,0,0],[0.5,0,0],[0.75,0,0],[1,0,0],[0,1,0],[0.25,1,0],[0.5,1,0],[0.75,1,0],[1,1,0],[0,0.25,0],[0,0.5,0],[0,0.75,0],[1,0.25,0],[1,0.5,0],[1,0.75,0]];outlineConnect=0;fontColor=#232F3E;gradientColor=#F78E04;gradientDirection=north;fillColor=#D05C17;strokeColor=#ffffff;dashed=0;verticalLabelPosition=bottom;verticalAlign=top;align=center;html=1;fontSize=12;fontStyle=0;aspect=fixed;shape=mxgraph.aws4.resourceIcon;resIcon=mxgraph.aws4.ec2;" vertex="1" parent="_CJY-n1weDHVDMnKZnRp-19">
          <mxGeometry x="40" y="270" width="28" height="28" as="geometry" />
        </mxCell>
        <mxCell id="_CJY-n1weDHVDMnKZnRp-23" value="" style="image;sketch=0;aspect=fixed;html=1;points=[];align=center;fontSize=12;image=img/lib/mscae/Network_Security_Groups_Classic.svg;" vertex="1" parent="_CJY-n1weDHVDMnKZnRp-19">
          <mxGeometry x="46.599999999999994" y="250" width="14.8" height="20" as="geometry" />
        </mxCell>
        <mxCell id="_CJY-n1weDHVDMnKZnRp-24" value="Nat GW" style="edgeLabel;resizable=0;html=1;align=left;verticalAlign=bottom;" connectable="0" vertex="1" parent="_CJY-n1weDHVDMnKZnRp-19">
          <mxGeometry x="80" y="130" as="geometry" />
        </mxCell>
        <mxCell id="_CJY-n1weDHVDMnKZnRp-25" value="" style="sketch=0;outlineConnect=0;fontColor=#232F3E;gradientColor=none;fillColor=#4D27AA;strokeColor=none;dashed=0;verticalLabelPosition=bottom;verticalAlign=top;align=center;html=1;fontSize=12;fontStyle=0;aspect=fixed;pointerEvents=1;shape=mxgraph.aws4.network_access_control_list;" vertex="1" parent="_CJY-n1weDHVDMnKZnRp-19">
          <mxGeometry x="140" y="210" width="20" height="20" as="geometry" />
        </mxCell>
        <mxCell id="_CJY-n1weDHVDMnKZnRp-26" value="" style="sketch=0;points=[[0,0,0],[0.25,0,0],[0.5,0,0],[0.75,0,0],[1,0,0],[0,1,0],[0.25,1,0],[0.5,1,0],[0.75,1,0],[1,1,0],[0,0.25,0],[0,0.5,0],[0,0.75,0],[1,0.25,0],[1,0.5,0],[1,0.75,0]];outlineConnect=0;fontColor=#232F3E;gradientColor=#F78E04;gradientDirection=north;fillColor=#D05C17;strokeColor=#ffffff;dashed=0;verticalLabelPosition=bottom;verticalAlign=top;align=center;html=1;fontSize=12;fontStyle=0;aspect=fixed;shape=mxgraph.aws4.resourceIcon;resIcon=mxgraph.aws4.ec2;" vertex="1" parent="_CJY-n1weDHVDMnKZnRp-8">
          <mxGeometry x="110" y="170" width="28" height="28" as="geometry" />
        </mxCell>
        <mxCell id="_CJY-n1weDHVDMnKZnRp-27" value="DB Server 2" style="edgeLabel;resizable=0;html=1;align=left;verticalAlign=bottom;" connectable="0" vertex="1" parent="_CJY-n1weDHVDMnKZnRp-8">
          <mxGeometry x="500" y="420" as="geometry" />
        </mxCell>
        <mxCell id="_CJY-n1weDHVDMnKZnRp-28" value="SG" style="edgeLabel;resizable=0;html=1;align=left;verticalAlign=bottom;" connectable="0" vertex="1" parent="_CJY-n1weDHVDMnKZnRp-8">
          <mxGeometry x="100" y="340" as="geometry" />
        </mxCell>
        <mxCell id="_CJY-n1weDHVDMnKZnRp-29" value="SG" style="edgeLabel;resizable=0;html=1;align=left;verticalAlign=bottom;" connectable="0" vertex="1" parent="_CJY-n1weDHVDMnKZnRp-8">
          <mxGeometry x="500" y="360" as="geometry" />
        </mxCell>
        <mxCell id="_CJY-n1weDHVDMnKZnRp-30" value="SG" style="edgeLabel;resizable=0;html=1;align=left;verticalAlign=bottom;" connectable="0" vertex="1" parent="_CJY-n1weDHVDMnKZnRp-8">
          <mxGeometry x="510" y="160" as="geometry" />
        </mxCell>
        <mxCell id="_CJY-n1weDHVDMnKZnRp-31" value="SG" style="edgeLabel;resizable=0;html=1;align=left;verticalAlign=bottom;" connectable="0" vertex="1" parent="_CJY-n1weDHVDMnKZnRp-8">
          <mxGeometry x="124" y="160" as="geometry" />
        </mxCell>
        <mxCell id="_CJY-n1weDHVDMnKZnRp-32" value="Bastion Host" style="edgeLabel;resizable=0;html=1;align=left;verticalAlign=bottom;" connectable="0" vertex="1" parent="_CJY-n1weDHVDMnKZnRp-8">
          <mxGeometry x="110" y="230" as="geometry" />
        </mxCell>
        <mxCell id="_CJY-n1weDHVDMnKZnRp-33" value="us-west-2a" style="edgeLabel;resizable=0;html=1;align=left;verticalAlign=bottom;" connectable="0" vertex="1" parent="_CJY-n1weDHVDMnKZnRp-8">
          <mxGeometry x="40" y="70" as="geometry" />
        </mxCell>
        <mxCell id="_CJY-n1weDHVDMnKZnRp-34" value="us-west-2b" style="edgeLabel;resizable=0;html=1;align=left;verticalAlign=bottom;" connectable="0" vertex="1" parent="_CJY-n1weDHVDMnKZnRp-8">
          <mxGeometry x="440" y="70" as="geometry" />
        </mxCell>
        <mxCell id="_CJY-n1weDHVDMnKZnRp-35" value="Web Server" style="edgeLabel;resizable=0;html=1;align=left;verticalAlign=bottom;" connectable="0" vertex="1" parent="_CJY-n1weDHVDMnKZnRp-8">
          <mxGeometry x="90" y="390" as="geometry" />
        </mxCell>
        <mxCell id="_CJY-n1weDHVDMnKZnRp-36" value="" style="endArrow=classic;html=1;rounded=0;entryX=0.631;entryY=1.258;entryDx=0;entryDy=0;entryPerimeter=0;" edge="1" parent="_CJY-n1weDHVDMnKZnRp-8" source="_CJY-n1weDHVDMnKZnRp-20" target="_CJY-n1weDHVDMnKZnRp-13">
          <mxGeometry width="50" height="50" relative="1" as="geometry">
            <mxPoint x="320" y="300" as="sourcePoint" />
            <mxPoint x="370" y="250" as="targetPoint" />
          </mxGeometry>
        </mxCell>
        <mxCell id="_CJY-n1weDHVDMnKZnRp-37" value="DB Server 1" style="edgeLabel;resizable=0;html=1;align=left;verticalAlign=bottom;" connectable="0" vertex="1" parent="_CJY-n1weDHVDMnKZnRp-8">
          <mxGeometry x="490" y="198" as="geometry" />
        </mxCell>
        <mxCell id="_CJY-n1weDHVDMnKZnRp-38" value="" style="endArrow=classic;startArrow=classic;html=1;rounded=0;exitX=0.5;exitY=1;exitDx=0;exitDy=0;exitPerimeter=0;entryX=0.047;entryY=1.129;entryDx=0;entryDy=0;entryPerimeter=0;" edge="1" parent="_CJY-n1weDHVDMnKZnRp-8" source="_CJY-n1weDHVDMnKZnRp-26" target="_CJY-n1weDHVDMnKZnRp-12">
          <mxGeometry width="50" height="50" relative="1" as="geometry">
            <mxPoint x="320" y="260" as="sourcePoint" />
            <mxPoint x="370" y="210" as="targetPoint" />
          </mxGeometry>
        </mxCell>
        <mxCell id="_CJY-n1weDHVDMnKZnRp-39" value="" style="endArrow=classic;startArrow=classic;html=1;rounded=0;exitX=0.25;exitY=1;exitDx=0;exitDy=0;exitPerimeter=0;" edge="1" parent="_CJY-n1weDHVDMnKZnRp-8" source="_CJY-n1weDHVDMnKZnRp-26" target="_CJY-n1weDHVDMnKZnRp-14">
          <mxGeometry width="50" height="50" relative="1" as="geometry">
            <mxPoint x="320" y="260" as="sourcePoint" />
            <mxPoint x="370" y="210" as="targetPoint" />
            <Array as="points">
              <mxPoint x="210" y="340" />
            </Array>
          </mxGeometry>
        </mxCell>
        <mxCell id="_CJY-n1weDHVDMnKZnRp-40" value="Route table" style="sketch=0;outlineConnect=0;fontColor=#232F3E;gradientColor=none;strokeColor=#232F3E;fillColor=#ffffff;dashed=0;verticalLabelPosition=bottom;verticalAlign=top;align=center;html=1;fontSize=12;fontStyle=0;aspect=fixed;shape=mxgraph.aws4.resourceIcon;resIcon=mxgraph.aws4.route_table;" vertex="1" parent="_CJY-n1weDHVDMnKZnRp-8">
          <mxGeometry x="210" y="220" width="30" height="30" as="geometry" />
        </mxCell>
        <mxCell id="_CJY-n1weDHVDMnKZnRp-41" value="" style="image;aspect=fixed;perimeter=ellipsePerimeter;html=1;align=center;shadow=0;dashed=0;spacingTop=3;image=img/lib/active_directory/internet_cloud.svg;" vertex="1" parent="1">
          <mxGeometry x="550" y="-70" width="40" height="25.2" as="geometry" />
        </mxCell>
        <mxCell id="_CJY-n1weDHVDMnKZnRp-42" value="" style="endArrow=classic;startArrow=classic;html=1;rounded=0;" edge="1" parent="1" source="_CJY-n1weDHVDMnKZnRp-26" target="_CJY-n1weDHVDMnKZnRp-2">
          <mxGeometry width="50" height="50" relative="1" as="geometry">
            <mxPoint x="400" y="410" as="sourcePoint" />
            <mxPoint x="450" y="360" as="targetPoint" />
            <Array as="points" />
          </mxGeometry>
        </mxCell>
        <mxCell id="_CJY-n1weDHVDMnKZnRp-43" value="" style="endArrow=classic;startArrow=classic;html=1;rounded=0;entryX=0.25;entryY=1;entryDx=0;entryDy=0;" edge="1" parent="1" source="_CJY-n1weDHVDMnKZnRp-47" target="_CJY-n1weDHVDMnKZnRp-41">
          <mxGeometry width="50" height="50" relative="1" as="geometry">
            <mxPoint x="400" y="180" as="sourcePoint" />
            <mxPoint x="450" y="130" as="targetPoint" />
          </mxGeometry>
        </mxCell>
        <mxCell id="_CJY-n1weDHVDMnKZnRp-44" value="Internet" style="edgeLabel;resizable=0;html=1;align=left;verticalAlign=bottom;" connectable="0" vertex="1" parent="1">
          <mxGeometry x="550" y="-20" as="geometry" />
        </mxCell>
        <mxCell id="_CJY-n1weDHVDMnKZnRp-45" value="" style="endArrow=classic;startArrow=classic;html=1;rounded=0;entryX=0.5;entryY=1;entryDx=0;entryDy=0;" edge="1" parent="1" source="_CJY-n1weDHVDMnKZnRp-22" target="_CJY-n1weDHVDMnKZnRp-41">
          <mxGeometry width="50" height="50" relative="1" as="geometry">
            <mxPoint x="400" y="340" as="sourcePoint" />
            <mxPoint x="450" y="290" as="targetPoint" />
            <Array as="points">
              <mxPoint x="160" y="230" />
            </Array>
          </mxGeometry>
        </mxCell>
        <mxCell id="_CJY-n1weDHVDMnKZnRp-46" value="" style="endArrow=classic;startArrow=classic;html=1;rounded=0;entryX=0.25;entryY=1;entryDx=0;entryDy=0;" edge="1" parent="1" source="_CJY-n1weDHVDMnKZnRp-2" target="_CJY-n1weDHVDMnKZnRp-47">
          <mxGeometry width="50" height="50" relative="1" as="geometry">
            <mxPoint x="432" y="79" as="sourcePoint" />
            <mxPoint x="541" y="-46" as="targetPoint" />
          </mxGeometry>
        </mxCell>
        <mxCell id="_CJY-n1weDHVDMnKZnRp-47" value="" style="sketch=0;outlineConnect=0;fontColor=#232F3E;gradientColor=none;fillColor=#4D27AA;strokeColor=none;dashed=0;verticalLabelPosition=bottom;verticalAlign=top;align=center;html=1;fontSize=12;fontStyle=0;aspect=fixed;pointerEvents=1;shape=mxgraph.aws4.route_53_resolver_dns_firewall;" vertex="1" parent="1">
          <mxGeometry x="460" width="38" height="38" as="geometry" />
        </mxCell>
      </root>
    </mxGraphModel>
  </diagram>
  <diagram id="IfhhQAY5zec6dh2af2KQ" name="Network Project">
    <mxGraphModel dx="936" dy="522" grid="1" gridSize="10" guides="1" tooltips="1" connect="1" arrows="1" fold="1" page="1" pageScale="1" pageWidth="850" pageHeight="1100" math="0" shadow="0">
      <root>
        <mxCell id="0" />
        <mxCell id="1" parent="0" />
        <mxCell id="FO4gd-rHeXVVBEwYshsS-1" value="" style="sketch=0;outlineConnect=0;fontColor=#232F3E;gradientColor=none;fillColor=#4D27AA;strokeColor=none;dashed=0;verticalLabelPosition=bottom;verticalAlign=top;align=center;html=1;fontSize=12;fontStyle=0;aspect=fixed;pointerEvents=1;shape=mxgraph.aws4.internet_gateway;" parent="1" vertex="1">
          <mxGeometry x="398.8200000000001" y="60" width="29" height="29" as="geometry" />
        </mxCell>
        <mxCell id="FO4gd-rHeXVVBEwYshsS-2" value="VPC" style="points=[[0,0],[0.25,0],[0.5,0],[0.75,0],[1,0],[1,0.25],[1,0.5],[1,0.75],[1,1],[0.75,1],[0.5,1],[0.25,1],[0,1],[0,0.75],[0,0.5],[0,0.25]];outlineConnect=0;gradientColor=none;html=1;whiteSpace=wrap;fontSize=12;fontStyle=0;container=1;pointerEvents=0;collapsible=0;recursiveResize=0;shape=mxgraph.aws4.group;grIcon=mxgraph.aws4.group_vpc;strokeColor=#248814;fillColor=none;verticalAlign=top;align=left;spacingLeft=30;fontColor=#AAB7B8;dashed=0;" parent="1" vertex="1">
          <mxGeometry x="160" y="70" width="530" height="530" as="geometry" />
        </mxCell>
        <mxCell id="FO4gd-rHeXVVBEwYshsS-3" value="Public subnet A" style="points=[[0,0],[0.25,0],[0.5,0],[0.75,0],[1,0],[1,0.25],[1,0.5],[1,0.75],[1,1],[0.75,1],[0.5,1],[0.25,1],[0,1],[0,0.75],[0,0.5],[0,0.25]];outlineConnect=0;gradientColor=none;html=1;whiteSpace=wrap;fontSize=12;fontStyle=0;container=1;pointerEvents=0;collapsible=0;recursiveResize=0;shape=mxgraph.aws4.group;grIcon=mxgraph.aws4.group_security_group;grStroke=0;strokeColor=#248814;fillColor=#E9F3E6;verticalAlign=top;align=left;spacingLeft=30;fontColor=#248814;dashed=0;" parent="FO4gd-rHeXVVBEwYshsS-2" vertex="1">
          <mxGeometry x="90" y="130" width="80" height="90" as="geometry" />
        </mxCell>
        <mxCell id="FO4gd-rHeXVVBEwYshsS-4" value="" style="sketch=0;points=[[0,0,0],[0.25,0,0],[0.5,0,0],[0.75,0,0],[1,0,0],[0,1,0],[0.25,1,0],[0.5,1,0],[0.75,1,0],[1,1,0],[0,0.25,0],[0,0.5,0],[0,0.75,0],[1,0.25,0],[1,0.5,0],[1,0.75,0]];outlineConnect=0;fontColor=#232F3E;gradientColor=#F78E04;gradientDirection=north;fillColor=#D05C17;strokeColor=#ffffff;dashed=0;verticalLabelPosition=bottom;verticalAlign=top;align=center;html=1;fontSize=12;fontStyle=0;aspect=fixed;shape=mxgraph.aws4.resourceIcon;resIcon=mxgraph.aws4.ec2;" parent="FO4gd-rHeXVVBEwYshsS-3" vertex="1">
          <mxGeometry x="51.00000000000006" y="62" width="28" height="28" as="geometry" />
        </mxCell>
        <mxCell id="FO4gd-rHeXVVBEwYshsS-5" value="Private subnet B" style="points=[[0,0],[0.25,0],[0.5,0],[0.75,0],[1,0],[1,0.25],[1,0.5],[1,0.75],[1,1],[0.75,1],[0.5,1],[0.25,1],[0,1],[0,0.75],[0,0.5],[0,0.25]];outlineConnect=0;gradientColor=none;html=1;whiteSpace=wrap;fontSize=12;fontStyle=0;container=1;pointerEvents=0;collapsible=0;recursiveResize=0;shape=mxgraph.aws4.group;grIcon=mxgraph.aws4.group_security_group;grStroke=0;strokeColor=#147EBA;fillColor=#E6F2F8;verticalAlign=top;align=left;spacingLeft=30;fontColor=#147EBA;dashed=0;" parent="FO4gd-rHeXVVBEwYshsS-2" vertex="1">
          <mxGeometry x="365" y="330" width="85" height="90" as="geometry" />
        </mxCell>
        <mxCell id="FO4gd-rHeXVVBEwYshsS-6" value="" style="image;aspect=fixed;perimeter=ellipsePerimeter;html=1;align=center;shadow=0;dashed=0;spacingTop=3;image=img/lib/active_directory/databases.svg;" parent="FO4gd-rHeXVVBEwYshsS-5" vertex="1">
          <mxGeometry x="39.789999999999964" y="60" width="20.41" height="20" as="geometry" />
        </mxCell>
        <mxCell id="FO4gd-rHeXVVBEwYshsS-7" value="Private subnet A" style="points=[[0,0],[0.25,0],[0.5,0],[0.75,0],[1,0],[1,0.25],[1,0.5],[1,0.75],[1,1],[0.75,1],[0.5,1],[0.25,1],[0,1],[0,0.75],[0,0.5],[0,0.25]];outlineConnect=0;gradientColor=none;html=1;whiteSpace=wrap;fontSize=12;fontStyle=0;container=1;pointerEvents=0;collapsible=0;recursiveResize=0;shape=mxgraph.aws4.group;grIcon=mxgraph.aws4.group_security_group;grStroke=0;strokeColor=#147EBA;fillColor=#E6F2F8;verticalAlign=top;align=left;spacingLeft=30;fontColor=#147EBA;dashed=0;" parent="FO4gd-rHeXVVBEwYshsS-2" vertex="1">
          <mxGeometry x="90" y="330" width="80" height="90" as="geometry" />
        </mxCell>
        <mxCell id="FO4gd-rHeXVVBEwYshsS-8" value="" style="image;aspect=fixed;perimeter=ellipsePerimeter;html=1;align=center;shadow=0;dashed=0;spacingTop=3;image=img/lib/active_directory/databases.svg;" parent="FO4gd-rHeXVVBEwYshsS-7" vertex="1">
          <mxGeometry x="29.590000000000003" y="60" width="20.41" height="20" as="geometry" />
        </mxCell>
        <mxCell id="FO4gd-rHeXVVBEwYshsS-9" value="Public subnet B" style="points=[[0,0],[0.25,0],[0.5,0],[0.75,0],[1,0],[1,0.25],[1,0.5],[1,0.75],[1,1],[0.75,1],[0.5,1],[0.25,1],[0,1],[0,0.75],[0,0.5],[0,0.25]];outlineConnect=0;gradientColor=none;html=1;whiteSpace=wrap;fontSize=12;fontStyle=0;container=1;pointerEvents=0;collapsible=0;recursiveResize=0;shape=mxgraph.aws4.group;grIcon=mxgraph.aws4.group_security_group;grStroke=0;strokeColor=#248814;fillColor=#E9F3E6;verticalAlign=top;align=left;spacingLeft=30;fontColor=#248814;dashed=0;" parent="FO4gd-rHeXVVBEwYshsS-2" vertex="1">
          <mxGeometry x="365" y="130" width="85" height="90" as="geometry" />
        </mxCell>
        <mxCell id="FO4gd-rHeXVVBEwYshsS-10" value="" style="sketch=0;outlineConnect=0;fontColor=#232F3E;gradientColor=none;fillColor=#4D27AA;strokeColor=none;dashed=0;verticalLabelPosition=bottom;verticalAlign=top;align=center;html=1;fontSize=12;fontStyle=0;aspect=fixed;pointerEvents=1;shape=mxgraph.aws4.application_load_balancer;" parent="FO4gd-rHeXVVBEwYshsS-9" vertex="1">
          <mxGeometry y="31" width="28" height="28" as="geometry" />
        </mxCell>
        <mxCell id="FO4gd-rHeXVVBEwYshsS-11" value="Auto Scaling group" style="points=[[0,0],[0.25,0],[0.5,0],[0.75,0],[1,0],[1,0.25],[1,0.5],[1,0.75],[1,1],[0.75,1],[0.5,1],[0.25,1],[0,1],[0,0.75],[0,0.5],[0,0.25]];outlineConnect=0;gradientColor=none;html=1;whiteSpace=wrap;fontSize=12;fontStyle=0;container=1;pointerEvents=0;collapsible=0;recursiveResize=0;shape=mxgraph.aws4.groupCenter;grIcon=mxgraph.aws4.group_auto_scaling_group;grStroke=1;strokeColor=#D86613;fillColor=none;verticalAlign=top;align=center;fontColor=#D86613;dashed=1;spacingTop=25;" parent="FO4gd-rHeXVVBEwYshsS-2" vertex="1">
          <mxGeometry x="240" y="190" width="60" height="20" as="geometry" />
        </mxCell>
        <mxCell id="FO4gd-rHeXVVBEwYshsS-12" value="" style="sketch=0;outlineConnect=0;fontColor=#232F3E;gradientColor=none;fillColor=#4D27AA;strokeColor=none;dashed=0;verticalLabelPosition=bottom;verticalAlign=top;align=center;html=1;fontSize=12;fontStyle=0;aspect=fixed;pointerEvents=1;shape=mxgraph.aws4.application_load_balancer;" parent="FO4gd-rHeXVVBEwYshsS-2" vertex="1">
          <mxGeometry x="140" y="161" width="28" height="28" as="geometry" />
        </mxCell>
        <mxCell id="FO4gd-rHeXVVBEwYshsS-13" value="" style="endArrow=classic;startArrow=classic;html=1;rounded=0;exitX=1;exitY=1;exitDx=0;exitDy=0;" parent="FO4gd-rHeXVVBEwYshsS-2" source="FO4gd-rHeXVVBEwYshsS-11" edge="1">
          <mxGeometry width="50" height="50" relative="1" as="geometry">
            <mxPoint x="315" y="225" as="sourcePoint" />
            <mxPoint x="365" y="175" as="targetPoint" />
          </mxGeometry>
        </mxCell>
        <mxCell id="FO4gd-rHeXVVBEwYshsS-14" value="" style="endArrow=classic;startArrow=classic;html=1;rounded=0;entryX=0;entryY=1;entryDx=0;entryDy=0;" parent="FO4gd-rHeXVVBEwYshsS-2" source="FO4gd-rHeXVVBEwYshsS-12" target="FO4gd-rHeXVVBEwYshsS-11" edge="1">
          <mxGeometry width="50" height="50" relative="1" as="geometry">
            <mxPoint x="240" y="310" as="sourcePoint" />
            <mxPoint x="290" y="260" as="targetPoint" />
          </mxGeometry>
        </mxCell>
        <mxCell id="FO4gd-rHeXVVBEwYshsS-15" value="" style="sketch=0;points=[[0,0,0],[0.25,0,0],[0.5,0,0],[0.75,0,0],[1,0,0],[0,1,0],[0.25,1,0],[0.5,1,0],[0.75,1,0],[1,1,0],[0,0.25,0],[0,0.5,0],[0,0.75,0],[1,0.25,0],[1,0.5,0],[1,0.75,0]];outlineConnect=0;fontColor=#232F3E;gradientColor=#F78E04;gradientDirection=north;fillColor=#D05C17;strokeColor=#ffffff;dashed=0;verticalLabelPosition=bottom;verticalAlign=top;align=center;html=1;fontSize=12;fontStyle=0;aspect=fixed;shape=mxgraph.aws4.resourceIcon;resIcon=mxgraph.aws4.ec2;" parent="FO4gd-rHeXVVBEwYshsS-2" vertex="1">
          <mxGeometry x="400" y="186" width="28" height="28" as="geometry" />
        </mxCell>
        <mxCell id="FO4gd-rHeXVVBEwYshsS-16" value="Availability Zone" style="fillColor=none;strokeColor=#147EBA;dashed=1;verticalAlign=top;fontStyle=0;fontColor=#147EBA;whiteSpace=wrap;html=1;" parent="FO4gd-rHeXVVBEwYshsS-2" vertex="1">
          <mxGeometry x="65" y="100" width="130" height="400" as="geometry" />
        </mxCell>
        <mxCell id="FO4gd-rHeXVVBEwYshsS-17" value="RDS DB" style="text;html=1;strokeColor=none;fillColor=none;align=center;verticalAlign=middle;whiteSpace=wrap;rounded=0;" parent="FO4gd-rHeXVVBEwYshsS-2" vertex="1">
          <mxGeometry x="240" y="390" width="60" height="30" as="geometry" />
        </mxCell>
        <mxCell id="FO4gd-rHeXVVBEwYshsS-18" value="" style="endArrow=classic;html=1;rounded=0;entryX=1;entryY=0.75;entryDx=0;entryDy=0;" parent="FO4gd-rHeXVVBEwYshsS-2" target="FO4gd-rHeXVVBEwYshsS-8" edge="1">
          <mxGeometry width="50" height="50" relative="1" as="geometry">
            <mxPoint x="250" y="405" as="sourcePoint" />
            <mxPoint x="290" y="410" as="targetPoint" />
          </mxGeometry>
        </mxCell>
        <mxCell id="FO4gd-rHeXVVBEwYshsS-19" value="" style="endArrow=classic;html=1;rounded=0;entryX=0.25;entryY=1;entryDx=0;entryDy=0;" parent="FO4gd-rHeXVVBEwYshsS-2" source="FO4gd-rHeXVVBEwYshsS-17" target="FO4gd-rHeXVVBEwYshsS-6" edge="1">
          <mxGeometry width="50" height="50" relative="1" as="geometry">
            <mxPoint x="258" y="425" as="sourcePoint" />
            <mxPoint x="149" y="415" as="targetPoint" />
          </mxGeometry>
        </mxCell>
        <mxCell id="FO4gd-rHeXVVBEwYshsS-20" value="Availability Zone" style="fillColor=none;strokeColor=#147EBA;dashed=1;verticalAlign=top;fontStyle=0;fontColor=#147EBA;whiteSpace=wrap;html=1;" parent="FO4gd-rHeXVVBEwYshsS-2" vertex="1">
          <mxGeometry x="342.5" y="100" width="130" height="400" as="geometry" />
        </mxCell>
        <mxCell id="FO4gd-rHeXVVBEwYshsS-21" value="" style="sketch=0;points=[[0,0,0],[0.25,0,0],[0.5,0,0],[0.75,0,0],[1,0,0],[0,1,0],[0.25,1,0],[0.5,1,0],[0.75,1,0],[1,1,0],[0,0.25,0],[0,0.5,0],[0,0.75,0],[1,0.25,0],[1,0.5,0],[1,0.75,0]];points=[[0,0,0],[0.25,0,0],[0.5,0,0],[0.75,0,0],[1,0,0],[0,1,0],[0.25,1,0],[0.5,1,0],[0.75,1,0],[1,1,0],[0,0.25,0],[0,0.5,0],[0,0.75,0],[1,0.25,0],[1,0.5,0],[1,0.75,0]];outlineConnect=0;fontColor=#232F3E;gradientColor=#F34482;gradientDirection=north;fillColor=#BC1356;strokeColor=#ffffff;dashed=0;verticalLabelPosition=bottom;verticalAlign=top;align=center;html=1;fontSize=12;fontStyle=0;aspect=fixed;shape=mxgraph.aws4.resourceIcon;resIcon=mxgraph.aws4.cloudwatch_2;" parent="FO4gd-rHeXVVBEwYshsS-2" vertex="1">
          <mxGeometry x="251" y="292" width="38" height="38" as="geometry" />
        </mxCell>
        <mxCell id="FO4gd-rHeXVVBEwYshsS-22" value="" style="image;aspect=fixed;perimeter=ellipsePerimeter;html=1;align=center;shadow=0;dashed=0;spacingTop=3;image=img/lib/active_directory/internet_cloud.svg;" parent="1" vertex="1">
          <mxGeometry x="463.32" y="10" width="50" height="31.5" as="geometry" />
        </mxCell>
        <mxCell id="FO4gd-rHeXVVBEwYshsS-23" value="" style="endArrow=classic;html=1;rounded=0;exitX=0;exitY=0.5;exitDx=0;exitDy=0;" parent="1" source="FO4gd-rHeXVVBEwYshsS-22" edge="1">
          <mxGeometry width="50" height="50" relative="1" as="geometry">
            <mxPoint x="400" y="100" as="sourcePoint" />
            <mxPoint x="420" y="60" as="targetPoint" />
          </mxGeometry>
        </mxCell>
      </root>
    </mxGraphModel>
  </diagram>
</mxfile>
